<svg width="188" height="40" viewBox="0 0 188 40" fill="none" xmlns="http://www.w3.org/2000/svg">
<path d="M30.3588 17.828C29.8535 18.3364 29.4665 18.95 29.2254 19.6249C28.9844 20.3 28.8952 21.0199 28.9641 21.7333L28.9401 21.7093C29.011 22.5492 28.8977 23.3943 28.6082 24.1859C28.3188 24.9773 27.8601 25.6961 27.2643 26.2921C26.6683 26.888 25.9494 27.3468 25.1578 27.6361C24.3664 27.9256 23.5212 28.0389 22.6814 27.968L22.7055 27.992C21.7009 27.8985 20.692 28.1171 19.8161 28.618C18.9404 29.1189 18.2404 29.8777 17.8117 30.7911C17.383 31.7044 17.2464 32.7276 17.4205 33.7215C17.5948 34.7152 18.0712 35.6311 18.7849 36.3441C19.4986 37.0572 20.4149 37.5328 21.4088 37.706C22.4028 37.8793 23.4258 37.7417 24.3388 37.3123C25.2517 36.8827 26.0098 36.1821 26.51 35.3059C27.0101 34.4296 27.2278 33.4205 27.1334 32.416L27.1588 32.44C27.0878 31.6003 27.201 30.7551 27.4905 29.9635C27.78 29.172 28.2388 28.4532 28.8346 27.8572C29.4306 27.2613 30.1495 26.8025 30.9409 26.5132C31.7325 26.2237 32.5776 26.1104 33.4174 26.1813L33.3921 26.1573C34.2127 26.2311 35.0387 26.0965 35.7935 25.7661C36.5481 25.4357 37.2073 24.9201 37.7097 24.2672C38.2121 23.6143 38.5417 22.8449 38.6676 22.0308C38.7936 21.2165 38.712 20.3837 38.4304 19.6093C38.1488 18.8351 37.6763 18.1444 37.0567 17.6013C36.437 17.0583 35.6904 16.6804 34.8859 16.5028C34.0813 16.3252 33.2449 16.3535 32.4543 16.5851C31.6636 16.8168 30.9443 17.2443 30.3628 17.828H30.3588Z" fill="#7C7C7C"/>
<path d="M20.5227 24.848L20.4973 24.824C21.2111 24.8959 21.9319 24.8083 22.6077 24.5675C23.2835 24.3267 23.8973 23.9388 24.4048 23.4317C24.9121 22.9247 25.3007 22.3111 25.5419 21.6355C25.7832 20.9599 25.8713 20.2392 25.8 19.5253L25.8253 19.5493C25.7544 18.7095 25.8677 17.8644 26.1571 17.0728C26.4465 16.2813 26.9053 15.5625 27.5012 14.9665C28.0972 14.3707 28.816 13.9119 29.6075 13.6225C30.3991 13.333 31.2441 13.2198 32.084 13.2907L32.0587 13.2667C33.0633 13.3611 34.0725 13.1432 34.9488 12.6428C35.8252 12.1425 36.5257 11.384 36.9551 10.4708C37.3844 9.55767 37.5216 8.53429 37.348 7.54028C37.1744 6.54627 36.6984 5.63003 35.9848 4.91651C35.2713 4.203 34.3551 3.72695 33.3611 3.55332C32.3671 3.37968 31.3437 3.5169 30.4305 3.94626C29.5173 4.3756 28.7589 5.0762 28.2585 5.95248C27.7581 6.82875 27.5403 7.83804 27.6347 8.84268L27.6107 8.81735C27.6817 9.6572 27.5687 10.5025 27.2793 11.2941C26.99 12.0857 26.5312 12.8046 25.9353 13.4007C25.3393 13.9965 24.6204 14.4553 23.8288 14.7447C23.0371 15.034 22.1919 15.1471 21.352 15.076L21.376 15.1013C20.6623 15.0295 19.9413 15.1171 19.2656 15.3579C18.5899 15.5985 17.976 15.9865 17.4685 16.4936C16.9611 17.0007 16.5727 17.6143 16.3313 18.2899C16.0901 18.9655 16.002 19.6861 16.0733 20.4L16.0493 20.376C16.12 21.2157 16.0065 22.0608 15.7171 22.8523C15.4275 23.6436 14.9688 24.3624 14.3729 24.9583C13.777 25.5541 13.0583 26.0128 12.2669 26.3024C11.4755 26.5919 10.6304 26.7053 9.79068 26.6347L9.81468 26.6587C8.81004 26.5643 7.80074 26.7821 6.92446 27.2825C6.0482 27.7829 5.3476 28.5413 4.91825 29.4545C4.48889 30.3677 4.35166 31.3911 4.5253 32.3851C4.69894 33.3791 5.175 34.2953 5.8885 35.0088C6.60202 35.7224 7.51826 36.1984 8.51228 36.372C9.50629 36.5456 10.5297 36.4084 11.4428 35.9791C12.356 35.5497 13.1145 34.8492 13.6148 33.9729C14.1152 33.0965 14.3331 32.0873 14.2387 31.0827L14.264 31.1067C14.1931 30.2668 14.3064 29.4217 14.5959 28.6301C14.8852 27.8387 15.344 27.1199 15.9399 26.5239C16.5359 25.928 17.2547 25.4692 18.0461 25.1799C18.8377 24.8904 19.6828 24.7771 20.5227 24.848Z" fill="#7C7C7C"/>
<path d="M11.5869 22.172C12.0923 21.6637 12.4792 21.0501 12.72 20.3751C12.9609 19.7 13.0497 18.98 12.9803 18.2667L13.0056 18.2907C12.9346 17.4507 13.0479 16.6052 13.3375 15.8135C13.6271 15.0217 14.0861 14.3028 14.6824 13.7068C15.2787 13.1108 15.9977 12.6522 16.7896 12.3629C17.5814 12.0736 18.4269 11.9607 19.2669 12.032L19.2416 12.008C20.2459 12.1021 21.2548 11.8841 22.1307 11.3838C23.0065 10.8835 23.7066 10.1252 24.1358 9.2123C24.5649 8.29942 24.702 7.27642 24.5284 6.28278C24.3548 5.28914 23.8788 4.37324 23.1656 3.65999C22.4524 2.94674 21.5364 2.47084 20.5428 2.29722C19.5492 2.12358 18.5261 2.26067 17.6133 2.68976C16.7004 3.11886 15.9421 3.81908 15.4419 4.69495C14.9415 5.57082 14.7234 6.5797 14.8176 7.58399L14.7936 7.55999C14.8645 8.39979 14.7512 9.24495 14.4617 10.0365C14.1723 10.828 13.7136 11.5468 13.1177 12.1428C12.5217 12.7387 11.8029 13.1974 11.0114 13.4868C10.2199 13.7763 9.37472 13.8896 8.53492 13.8187L8.55892 13.8427C7.73834 13.7691 6.91246 13.9039 6.15782 14.2344C5.40318 14.5649 4.74418 15.0807 4.2419 15.7337C3.73962 16.3867 3.41032 17.156 3.28448 17.9701C3.15865 18.7844 3.24037 19.6172 3.52206 20.3913C3.80376 21.1656 4.27633 21.8561 4.89597 22.3991C5.51561 22.9421 6.26228 23.3199 7.06678 23.4975C7.87128 23.6749 8.70758 23.6465 9.49821 23.4149C10.2888 23.1832 11.0082 22.7557 11.5896 22.172H11.5869Z" fill="#7C7C7C"/>
<path d="M52.8894 8.87332H56.8494V28.144H52.8894V8.87332Z" fill="#7C7C7C"/>
<path d="M59.0922 21.5453C59.0868 20.1605 59.4924 18.8051 60.2577 17.6509C61.023 16.4968 62.1137 15.5957 63.3916 15.062C64.6694 14.5281 66.0769 14.3856 67.4358 14.6524C68.7948 14.9192 70.044 15.5832 71.0252 16.5605C72.0064 17.5377 72.6754 18.7843 72.9477 20.1421C73.22 21.5 73.083 22.9081 72.5544 24.1881C72.0257 25.468 71.129 26.5624 69.978 27.3323C68.8268 28.1023 67.4732 28.5133 66.0882 28.5133C65.169 28.5239 64.2569 28.3509 63.4052 28.0048C62.5534 27.6587 61.7793 27.1463 61.128 26.4976C60.4765 25.8488 59.961 25.0767 59.6116 24.2264C59.262 23.3761 59.0854 22.4647 59.0922 21.5453ZM69.1242 21.5453C69.1077 20.9484 68.9156 20.3696 68.572 19.8812C68.2282 19.3929 67.7482 19.0167 67.192 18.7997C66.6356 18.5827 66.0277 18.5344 65.4441 18.6611C64.8605 18.7877 64.3272 19.0835 63.9108 19.5116C63.4945 19.9396 63.2134 20.4809 63.1032 21.0679C62.9928 21.6547 63.0577 22.2611 63.2901 22.8112C63.5225 23.3613 63.9118 23.8307 64.4094 24.1607C64.9072 24.4907 65.4912 24.6667 66.0882 24.6667C66.4972 24.6776 66.904 24.6036 67.283 24.4495C67.662 24.2953 68.0049 24.0644 68.2901 23.7712C68.5753 23.4779 68.7968 23.1287 68.9402 22.7456C69.0838 22.3625 69.1465 21.9539 69.1242 21.5453Z" fill="#7C7C7C"/>
<path d="M88.8668 14.9453V27.4787C88.8668 31.9133 85.4081 33.788 81.8974 33.788C80.6614 33.8805 79.4237 33.6308 78.3201 33.0664C77.2166 32.5019 76.2898 31.6444 75.6414 30.588L79.0201 28.6347C79.2926 29.1853 79.7269 29.6396 80.2646 29.9368C80.8025 30.2339 81.4182 30.3597 82.0294 30.2973C82.4201 30.3515 82.818 30.3171 83.1936 30.1967C83.569 30.0763 83.9128 29.8729 84.1992 29.6019C84.4856 29.3307 84.7073 28.9987 84.8481 28.6301C84.9888 28.2617 85.0448 27.8664 85.0121 27.4733V26.2667C84.5484 26.834 83.9582 27.2848 83.2888 27.5828C82.6193 27.8808 81.8894 28.0177 81.1574 27.9827C79.4158 27.9277 77.764 27.1973 76.5514 25.9459C75.3389 24.6945 74.6609 23.0204 74.6609 21.278C74.6609 19.5356 75.3389 17.8615 76.5514 16.6101C77.764 15.3587 79.4158 14.6283 81.1574 14.5733C81.8894 14.5383 82.6193 14.6752 83.2888 14.9732C83.9582 15.2712 84.5484 15.722 85.0121 16.2893V14.9427L88.8668 14.9453ZM85.0134 21.28C85.0401 20.6419 84.875 20.0103 84.5397 19.4667C84.2044 18.9229 83.714 18.4921 83.1317 18.2296C82.5494 17.9669 81.902 17.8847 81.2725 17.9932C80.643 18.1017 80.0605 18.3961 79.5997 18.8387C79.139 19.2811 78.8213 19.8512 78.6873 20.4757C78.5534 21.1003 78.6094 21.7507 78.8484 22.3431C79.0872 22.9355 79.4978 23.4429 80.0274 23.8C80.557 24.1571 81.1814 24.3475 81.8201 24.3467C82.2362 24.3757 82.6537 24.3173 83.0458 24.1752C83.438 24.0331 83.796 23.8103 84.0968 23.5215C84.3976 23.2325 84.6346 22.8839 84.7925 22.4977C84.9504 22.1117 85.0257 21.6969 85.0134 21.28Z" fill="#7C7C7C"/>
<path d="M91.1096 21.5453C91.1041 20.1605 91.5096 18.8051 92.275 17.6509C93.0404 16.4968 94.131 15.5957 95.4089 15.062C96.6868 14.5281 98.0942 14.3856 99.4532 14.6524C100.812 14.9192 102.061 15.5832 103.042 16.5605C104.024 17.5377 104.693 18.7843 104.965 20.1421C105.237 21.5 105.1 22.9081 104.572 24.1881C104.043 25.468 103.146 26.5624 101.995 27.3323C100.844 28.1023 99.4905 28.5133 98.1056 28.5133C97.1864 28.5239 96.2741 28.3509 95.4225 28.0048C94.5708 27.6587 93.7966 27.1463 93.1453 26.4976C92.4938 25.8488 91.9784 25.0767 91.6289 24.2264C91.2793 23.3761 91.1028 22.4647 91.1096 21.5453ZM101.142 21.5453C101.125 20.9484 100.933 20.3696 100.589 19.8812C100.246 19.3929 99.7656 19.0167 99.2093 18.7997C98.6529 18.5827 98.0449 18.5344 97.4614 18.6611C96.8778 18.7877 96.3445 19.0835 95.9281 19.5116C95.5118 19.9396 95.2308 20.4809 95.1204 21.0679C95.01 21.6547 95.075 22.2611 95.3074 22.8112C95.5398 23.3613 95.9292 23.8307 96.4268 24.1607C96.9245 24.4907 97.5084 24.6667 98.1056 24.6667C98.5145 24.6776 98.9213 24.6036 99.3002 24.4495C99.6793 24.2953 100.022 24.0644 100.307 23.7712C100.593 23.4779 100.814 23.1287 100.958 22.7456C101.101 22.3625 101.164 21.9539 101.142 21.5453Z" fill="#7C7C7C"/>
<path d="M106.948 11.408C106.948 10.9381 107.088 10.4787 107.349 10.088C107.61 9.69723 107.981 9.39268 108.415 9.21285C108.849 9.03301 109.327 8.98596 109.788 9.07764C110.249 9.16932 110.672 9.39561 111.004 9.72791C111.337 10.0602 111.563 10.4835 111.655 10.9445C111.746 11.4053 111.699 11.8831 111.519 12.3172C111.34 12.7514 111.035 13.1225 110.644 13.3836C110.254 13.6447 109.794 13.784 109.324 13.784C108.696 13.7777 108.095 13.5255 107.651 13.0812C107.207 12.6369 106.955 12.0362 106.948 11.408ZM107.348 14.9453H111.31V28.1453H107.343L107.348 14.9453Z" fill="#7C7C7C"/>
<path d="M128.408 21.5453C128.454 22.4177 128.327 23.2905 128.034 24.1136C127.741 24.9367 127.289 25.6937 126.702 26.3413C126.116 26.9888 125.407 27.5141 124.617 27.8869C123.827 28.2596 122.971 28.4725 122.099 28.5133C121.365 28.5533 120.631 28.4296 119.951 28.1511C119.271 27.8724 118.662 27.446 118.167 26.9027V33.424H114.207V14.9453H118.167V16.1853C118.662 15.6424 119.272 15.2163 119.952 14.938C120.632 14.6596 121.365 14.536 122.099 14.576C122.972 14.6167 123.828 14.8295 124.618 15.2023C125.408 15.5751 126.117 16.1004 126.703 16.7481C127.29 17.3959 127.742 18.1532 128.035 18.9765C128.327 19.7997 128.454 20.6728 128.408 21.5453ZM124.448 21.5453C124.433 20.9276 124.235 20.3281 123.881 19.8219C123.526 19.3157 123.03 18.9253 122.455 18.6997C121.88 18.474 121.251 18.4229 120.647 18.5531C120.043 18.6831 119.49 18.9884 119.059 19.4308C118.627 19.8733 118.336 20.4331 118.221 21.0404C118.106 21.6476 118.173 22.2751 118.413 22.8445C118.653 23.414 119.056 23.8999 119.571 24.2416C120.086 24.5832 120.69 24.7655 121.308 24.7653C121.732 24.7843 122.156 24.7132 122.551 24.5569C122.946 24.4008 123.303 24.1628 123.599 23.8588C123.896 23.5547 124.125 23.1915 124.271 22.7928C124.417 22.3941 124.478 21.9689 124.448 21.5453Z" fill="#7C7C7C"/>
<path d="M140.628 24.184C140.628 27.22 137.99 28.5133 135.139 28.5133C133.987 28.6176 132.83 28.3741 131.819 27.814C130.807 27.254 129.986 26.4033 129.463 25.372L132.894 23.4187C133.032 23.8953 133.33 24.3101 133.738 24.5935C134.146 24.8769 134.639 25.012 135.134 24.976C136.083 24.976 136.559 24.6853 136.559 24.1587C136.559 22.7053 130.064 23.472 130.064 18.9053C130.064 16.0267 132.494 14.576 135.239 14.576C136.271 14.5433 137.292 14.7881 138.198 15.2848C139.103 15.7816 139.859 16.512 140.386 17.4L137.007 19.2213C136.859 18.8756 136.612 18.5811 136.298 18.3745C135.983 18.168 135.615 18.0587 135.239 18.06C134.552 18.06 134.13 18.3267 134.13 18.7987C134.135 20.304 140.628 19.3 140.628 24.184Z" fill="#7C7C7C"/>
<path d="M155.093 14.9453V28.1453H151.133V26.904C150.676 27.4517 150.096 27.8833 149.44 28.1633C148.784 28.4433 148.072 28.5637 147.36 28.5147C144.693 28.5147 142.427 26.6147 142.427 23.048V14.9453H146.387V22.468C146.353 22.7824 146.389 23.1003 146.492 23.3993C146.593 23.6985 146.76 23.9719 146.979 24.2003C147.197 24.4287 147.463 24.6067 147.757 24.722C148.051 24.8373 148.367 24.8872 148.683 24.868C150.135 24.868 151.137 24.024 151.137 22.1493V14.9493L155.093 14.9453Z" fill="#7C7C7C"/>
<path d="M177.8 20.04V28.144H173.84V20.3827C173.84 19.0627 173.207 18.2187 171.94 18.2187C170.62 18.2187 169.88 19.1427 169.88 20.7V28.144H165.921V20.3827C165.921 19.0627 165.288 18.2187 164.02 18.2187C162.7 18.2187 161.961 19.1427 161.961 20.7V28.144H158.001V14.944H161.961V16.1573C162.372 15.6191 162.911 15.1921 163.528 14.9157C164.147 14.6392 164.824 14.522 165.499 14.5747C166.176 14.5415 166.851 14.6845 167.457 14.9897C168.063 15.2948 168.579 15.7519 168.956 16.316C169.395 15.7257 169.976 15.2564 170.645 14.9519C171.315 14.6473 172.051 14.5176 172.784 14.5747C175.815 14.576 177.8 16.74 177.8 20.04Z" fill="#7C7C7C"/>
<path d="M181.149 14.864C182.772 14.864 184.088 13.5483 184.088 11.9253C184.088 10.3023 182.772 8.98666 181.149 8.98666C179.527 8.98666 178.211 10.3023 178.211 11.9253C178.211 13.5483 179.527 14.864 181.149 14.864Z" fill="#7C7C7C"/>
</svg>
