<svg width="156" height="40" viewBox="0 0 156 40" fill="none" xmlns="http://www.w3.org/2000/svg">
<path d="M46.7874 12.5875H50.5374V27.75H46.7874V12.5875ZM52.0249 22.025C52.0249 18.275 54.3249 16.0375 57.8749 16.0375C61.4249 16.0375 63.7249 18.275 63.7249 22.025C63.7249 25.775 61.4749 28.025 57.8749 28.025C54.2749 28.025 52.0249 25.8375 52.0249 22.025ZM59.9624 22.025C59.9624 19.9625 59.1499 18.75 57.8749 18.75C56.5999 18.75 55.7999 20 55.7999 22.025C55.7999 24.05 56.5874 25.275 57.8749 25.275C59.1624 25.275 59.9624 24.125 59.9624 22.0375V22.025ZM65.1374 28.4875H68.7374C68.9087 28.8681 69.1984 29.1832 69.5632 29.386C69.9281 29.5886 70.3487 29.6681 70.7624 29.6125C72.1874 29.6125 72.9374 28.8375 72.9374 27.7125V25.6125H72.8624C72.5636 26.2561 72.0787 26.7954 71.4705 27.1609C70.8622 27.5262 70.1584 27.701 69.4499 27.6625C66.7124 27.6625 64.8999 25.575 64.8999 21.9875C64.8999 18.4 66.6249 16.1375 69.4999 16.1375C70.2306 16.1089 70.9526 16.3042 71.5692 16.6974C72.1859 17.0906 72.6676 17.6629 72.9499 18.3375V16.25H76.6999V27.625C76.6999 30.3625 74.2874 32.0625 70.7249 32.0625C67.4124 32.0625 65.3499 30.575 65.1374 28.5V28.4875ZM72.9499 22.0125C72.9499 20.1875 72.1124 19.0375 70.7874 19.0375C69.4624 19.0375 68.6499 20.175 68.6499 22.0125C68.6499 23.85 69.4499 24.8875 70.7874 24.8875C72.1249 24.8875 72.9499 23.875 72.9499 22.025V22.0125ZM78.1124 22.0125C78.1124 18.2625 80.4124 16.025 83.9624 16.025C87.5124 16.025 89.8249 18.2625 89.8249 22.0125C89.8249 25.7625 87.5749 28.0125 83.9624 28.0125C80.3499 28.0125 78.1124 25.8375 78.1124 22.025V22.0125ZM86.0499 22.0125C86.0499 19.95 85.2374 18.7375 83.9624 18.7375C82.6874 18.7375 81.9499 20 81.9499 22.0375C81.9499 24.075 82.7374 25.2875 84.0124 25.2875C85.2874 25.2875 86.0499 24.125 86.0499 22.0375V22.0125ZM91.2499 13.525C91.24 13.1464 91.3429 12.7734 91.5452 12.4532C91.7477 12.1331 92.0406 11.8803 92.3869 11.7269C92.7331 11.5734 93.1171 11.5262 93.4902 11.5913C93.8634 11.6564 94.2087 11.8308 94.4826 12.0923C94.7566 12.3539 94.9466 12.691 95.0287 13.0607C95.1109 13.4305 95.0814 13.8162 94.9439 14.1692C94.8065 14.5221 94.5673 14.8264 94.2569 15.0432C93.9465 15.2601 93.5785 15.38 93.1999 15.3875C92.9489 15.4047 92.697 15.3699 92.4601 15.2851C92.2231 15.2004 92.0064 15.0676 91.8232 14.895C91.6401 14.7225 91.4946 14.5139 91.396 14.2824C91.2972 14.051 91.2475 13.8016 91.2499 13.55V13.525ZM91.2499 16.275H94.9999V27.75H91.2499V16.275ZM108.612 22.0125C108.612 25.7625 106.95 27.9 104.1 27.9C103.369 27.9469 102.641 27.7682 102.015 27.3882C101.389 27.0081 100.895 26.445 100.6 25.775H100.525V31.425H96.7749V16.25H100.525V18.3H100.6C100.882 17.6189 101.366 17.0411 101.988 16.6452C102.61 16.2494 103.338 16.0546 104.075 16.0875C106.95 16.1375 108.662 18.2875 108.662 22.0375L108.612 22.0125ZM104.862 22.0125C104.862 20.1875 104.025 19.025 102.712 19.025C101.4 19.025 100.562 20.2 100.55 22.0125C100.537 23.825 101.4 24.9875 102.712 24.9875C104.025 24.9875 104.862 23.85 104.862 22.0375V22.0125ZM115.05 16.0125C118.162 16.0125 120.05 17.4875 120.137 19.85H116.725C116.725 19.0375 116.05 18.525 115.012 18.525C113.975 18.525 113.512 18.925 113.512 19.5125C113.512 20.1 113.925 20.2875 114.762 20.4625L117.162 20.95C119.45 21.4375 120.425 22.3625 120.425 24.1C120.425 26.475 118.262 28 115.075 28C111.887 28 109.8 26.475 109.637 24.1375H113.25C113.362 24.9875 114.037 25.4875 115.137 25.4875C116.237 25.4875 116.737 25.125 116.737 24.525C116.737 23.925 116.387 23.8 115.487 23.6125L113.325 23.15C111.087 22.6875 109.912 21.5 109.912 19.75C109.937 17.5 111.95 16.0375 115.05 16.0375V16.0125ZM132.937 27.725H129.325V25.5875H129.25C129.051 26.3051 128.614 26.9332 128.009 27.3676C127.404 27.8019 126.669 28.0162 125.925 27.975C125.355 28.0074 124.785 27.9171 124.253 27.7102C123.721 27.5034 123.24 27.1849 122.842 26.776C122.444 26.3672 122.138 25.8776 121.945 25.3405C121.753 24.8034 121.677 24.2311 121.725 23.6625V16.25H125.475V22.8C125.475 24.1625 126.175 24.8875 127.337 24.8875C127.61 24.888 127.88 24.8304 128.129 24.7182C128.376 24.6061 128.599 24.4421 128.779 24.2374C128.957 24.0325 129.092 23.7916 129.171 23.5309C129.25 23.27 129.274 22.9952 129.237 22.725V16.25H132.987L132.937 27.725ZM134.75 16.25H138.375V18.4625H138.45C138.649 17.7544 139.077 17.1321 139.667 16.6934C140.257 16.2546 140.977 16.0239 141.712 16.0375C142.461 15.9776 143.204 16.2015 143.795 16.6647C144.385 17.128 144.78 17.7965 144.9 18.5375H144.975C145.201 17.7886 145.671 17.1366 146.31 16.684C146.947 16.2314 147.719 16.0039 148.5 16.0375C149.01 16.0204 149.517 16.1107 149.99 16.3027C150.464 16.4946 150.89 16.784 151.244 17.1517C151.597 17.5196 151.87 17.9577 152.044 18.4376C152.216 18.9175 152.287 19.4286 152.25 19.9375V27.75H148.5V20.9375C148.5 19.6875 147.937 19.1125 146.887 19.1125C146.654 19.1105 146.421 19.1587 146.207 19.254C145.994 19.3492 145.802 19.4892 145.647 19.6646C145.492 19.84 145.376 20.0465 145.307 20.2704C145.239 20.4944 145.22 20.7304 145.25 20.9625V27.75H141.687V20.8875C141.687 19.7375 141.125 19.1125 140.1 19.1125C139.864 19.1126 139.629 19.1629 139.414 19.26C139.197 19.3572 139.004 19.4991 138.847 19.6762C138.69 19.8534 138.572 20.0619 138.501 20.288C138.431 20.514 138.409 20.7524 138.437 20.9875V27.75H134.687L134.75 16.25Z" fill="#7C7C7C"/>
<path d="M36.2999 13.275C35.6638 11.8204 34.8219 10.4649 33.7999 9.24999C32.2893 7.40041 30.4041 5.89172 28.2683 4.82324C26.1326 3.75476 23.7947 3.1507 21.4087 3.05081C19.0227 2.95093 16.6426 3.35747 14.4249 4.24372C12.2074 5.12996 10.2027 6.4758 8.5427 8.19265C6.88272 9.90949 5.60516 11.9584 4.7941 14.2046C3.98304 16.4507 3.65685 18.8432 3.83702 21.2245C4.01721 23.6059 4.69965 25.922 5.83945 28.0205C6.97925 30.1191 8.55056 31.9525 10.45 33.4C11.6687 34.3474 13.0154 35.1175 14.4499 35.6875C16.4612 36.5117 18.6138 36.9362 20.7874 36.9375C25.2742 36.9276 29.5739 35.1391 32.7443 31.9641C35.9146 28.7891 37.6967 24.4867 37.6999 20C37.7032 17.6856 37.2266 15.3957 36.2999 13.275ZM20.7749 6.48747C22.7269 6.48727 24.6553 6.9139 26.4249 7.73747C25.9934 7.92394 25.5397 8.05417 25.0749 8.12499C23.5457 8.34635 22.1291 9.05632 21.0364 10.1489C19.9438 11.2416 19.2338 12.6582 19.0124 14.1875C18.9153 15.0451 18.5252 15.843 17.9081 16.4465C17.2909 17.05 16.4846 17.422 15.6249 17.5C14.0957 17.7214 12.679 18.4314 11.5864 19.524C10.4938 20.6166 9.78382 22.0332 9.56246 23.5625C9.48751 24.378 9.13957 25.1444 8.57496 25.7375C7.60077 23.6791 7.16315 21.4076 7.3028 19.1346C7.44245 16.8616 8.15484 14.6609 9.37367 12.7371C10.5925 10.8135 12.2782 9.22937 14.2738 8.13229C16.2694 7.0352 18.5102 6.46079 20.7874 6.46247L20.7749 6.48747ZM10.4375 28.75C10.5875 28.6125 10.7375 28.4875 10.8875 28.3375C11.9995 27.2594 12.7133 25.8361 12.9125 24.3C12.9932 23.4365 13.3787 22.63 13.9999 22.025C14.5978 21.4027 15.4024 21.0204 16.2624 20.95C17.7917 20.7286 19.2083 20.0186 20.3009 18.926C21.3936 17.8334 22.1036 16.4167 22.3249 14.8875C22.3791 13.9844 22.7666 13.1335 23.4124 12.5C24.0251 11.8898 24.8373 11.5214 25.6999 11.4625C27.1048 11.2692 28.4151 10.6446 29.4499 9.67499C30.6283 10.6526 31.6266 11.8286 32.3999 13.15C32.3524 13.2141 32.2979 13.2729 32.2374 13.325C31.6408 13.9527 30.8372 14.3435 29.9749 14.425C28.4441 14.6425 27.0253 15.3512 25.9319 16.4445C24.8387 17.5379 24.1299 18.9566 23.9124 20.4875C23.8243 21.348 23.4414 22.1516 22.8287 22.7621C22.2158 23.3727 21.4108 23.7526 20.5499 23.8375C19.0162 24.0571 17.5943 24.7657 16.4953 25.8579C15.3964 26.9501 14.6791 28.3676 14.4499 29.9C14.3827 30.5109 14.1728 31.0975 13.8374 31.6125C12.5549 30.851 11.4063 29.884 10.4375 28.75ZM20.7749 33.575C19.5066 33.5764 18.2442 33.3996 17.0249 33.05C17.4421 32.2725 17.7132 31.4251 17.8249 30.55C17.9126 29.6914 18.2937 28.8892 18.9039 28.279C19.5142 27.6687 20.3163 27.2876 21.1749 27.2C22.7064 26.9811 24.1259 26.2722 25.2211 25.1794C26.3161 24.0866 27.0279 22.6685 27.2499 21.1375C27.3376 20.2789 27.7187 19.4767 28.3289 18.8665C28.9392 18.2562 29.7413 17.8751 30.5999 17.7875C31.7524 17.6376 32.8509 17.2085 33.7999 16.5375C34.3269 18.5349 34.3893 20.6264 33.9824 22.6516C33.5756 24.6769 32.7101 26.5821 31.4526 28.221C30.1951 29.8597 28.5789 31.1889 26.7279 32.1061C24.8771 33.0234 22.8407 33.5045 20.7749 33.5125V33.575Z" fill="#7C7C7C"/>
</svg>
