<svg width="122" height="36" viewBox="0 0 122 36" fill="none" xmlns="http://www.w3.org/2000/svg">
<path d="M32 12.7031C32.0001 10.5471 31.3513 8.44132 30.1384 6.66159C28.9256 4.88186 27.2052 3.51116 25.2028 2.72904C23.2004 1.94692 21.0092 1.78985 18.9164 2.27838C16.8234 2.76692 14.9264 3.8783 13.4737 5.46695H0V34H28.448V20.6651C29.5646 19.6631 30.4581 18.4361 31.0701 17.0641C31.6822 15.6922 31.999 14.2063 32 12.7031ZM26.5263 12.7031C26.5285 13.7362 26.2251 14.7468 25.6546 15.6069C25.084 16.4669 24.2722 17.1379 23.3215 17.5347C22.3707 17.9316 21.3242 18.0365 20.3139 17.8363C19.3039 17.6361 18.3756 17.1396 17.6467 16.4098C16.9179 15.68 16.4213 14.7497 16.2196 13.7366C16.0179 12.7235 16.1204 11.673 16.5139 10.7184C16.9074 9.76365 17.5744 8.94756 18.4303 8.37335C19.2864 7.79915 20.2929 7.49265 21.3225 7.49264C22.7008 7.49264 24.0228 8.04126 24.9983 9.0181C25.974 9.99494 26.5235 11.3202 26.5263 12.7031ZM22.9744 28.5079H5.47369V10.9591H10.807C10.704 11.5348 10.6498 12.1183 10.6451 12.7031C10.648 15.5436 11.7738 18.267 13.7756 20.2755C15.7774 22.284 18.4915 23.4137 21.3225 23.4166C21.8761 23.4136 22.4284 23.3665 22.9744 23.2757V28.5079Z" fill="white"/>
<path d="M44.728 15.104V19.16H51.328V21.776H44.728V26.096H52.504V29H41.392V12.2H52.504V15.104H44.728ZM59.3532 29.192C57.7532 29.192 56.5132 28.592 55.6332 27.392C54.7692 26.192 54.3372 24.608 54.3372 22.64C54.3372 20.624 54.7692 19.016 55.6332 17.816C56.5132 16.616 57.7612 16.016 59.3772 16.016C60.4652 16.016 61.3132 16.264 61.9212 16.76C62.5292 17.24 62.9612 17.752 63.2172 18.296H63.4092V10.976H66.7452V29H63.4092V26.816H63.2172C62.9292 27.408 62.4812 27.952 61.8732 28.448C61.2652 28.944 60.4252 29.192 59.3532 29.192ZM60.5532 26.552C61.4972 26.552 62.2092 26.168 62.6892 25.4C63.1692 24.632 63.4092 23.712 63.4092 22.64C63.4092 21.584 63.1692 20.672 62.6892 19.904C62.2092 19.136 61.4972 18.752 60.5532 18.752C59.5932 18.752 58.8732 19.136 58.3932 19.904C57.9292 20.656 57.6972 21.56 57.6972 22.616C57.6972 23.704 57.9292 24.632 58.3932 25.4C58.8732 26.168 59.5932 26.552 60.5532 26.552ZM81.1994 15.104H76.6394V29H73.3274V15.104H68.7674V12.2H81.1994V15.104ZM86.8823 29.192C85.5543 29.192 84.4343 28.888 83.5223 28.28C82.6103 27.656 81.9303 26.848 81.4823 25.856C81.0503 24.848 80.8343 23.768 80.8343 22.616C80.8343 21.464 81.0503 20.392 81.4823 19.4C81.9303 18.392 82.6103 17.576 83.5223 16.952C84.4343 16.328 85.5623 16.016 86.9063 16.016C88.6823 16.016 90.0903 16.584 91.1303 17.72C92.1863 18.856 92.7143 20.496 92.7143 22.64V23.552H84.0263V23.744C84.0263 24.512 84.2903 25.176 84.8183 25.736C85.3463 26.28 86.0103 26.552 86.8103 26.552C87.4343 26.552 87.9623 26.408 88.3943 26.12C88.8263 25.832 89.1383 25.44 89.3303 24.944H92.5943C92.2583 26.192 91.6023 27.216 90.6263 28.016C89.6503 28.8 88.4023 29.192 86.8823 29.192ZM89.5223 21.392C89.4903 20.384 89.2343 19.64 88.7543 19.16C88.2743 18.68 87.6423 18.44 86.8583 18.44C86.0263 18.44 85.3703 18.704 84.8903 19.232C84.4103 19.76 84.1543 20.48 84.1223 21.392H89.5223ZM100.494 29.216C99.1504 29.216 98.0224 28.904 97.1104 28.28C96.1984 27.656 95.5184 26.84 95.0704 25.832C94.6384 24.824 94.4224 23.744 94.4224 22.592C94.4224 21.456 94.6384 20.392 95.0704 19.4C95.5184 18.392 96.1984 17.576 97.1104 16.952C98.0224 16.328 99.1504 16.016 100.494 16.016C102.19 16.016 103.526 16.504 104.502 17.48C105.494 18.44 106.094 19.656 106.302 21.128H103.062C102.95 20.408 102.678 19.832 102.246 19.4C101.83 18.952 101.254 18.728 100.518 18.728C99.5424 18.728 98.8224 19.104 98.3584 19.856C97.9104 20.608 97.6864 21.52 97.6864 22.592C97.6864 23.696 97.9104 24.624 98.3584 25.376C98.8224 26.128 99.5424 26.504 100.518 26.504C101.238 26.504 101.814 26.288 102.246 25.856C102.678 25.408 102.95 24.824 103.062 24.104H106.302C106.094 25.576 105.494 26.8 104.502 27.776C103.526 28.736 102.19 29.216 100.494 29.216ZM108.324 11.168H111.684V18.272H111.852C112.14 17.648 112.604 17.12 113.244 16.688C113.884 16.24 114.66 16.016 115.572 16.016C117.22 16.016 118.38 16.544 119.052 17.6C119.74 18.656 120.084 19.856 120.084 21.2V29H116.772V21.752C116.772 20.824 116.548 20.096 116.1 19.568C115.668 19.04 115.044 18.776 114.228 18.776C113.428 18.776 112.804 19.048 112.356 19.592C111.908 20.136 111.684 20.856 111.684 21.752V29H108.324V11.168Z" fill="white"/>
</svg>
