<svg width="152" height="40" viewBox="0 0 152 40" fill="none" xmlns="http://www.w3.org/2000/svg">
<path d="M44.583 12.8687H48.2516V27.7258H44.583V12.8687ZM49.7144 22.1373C49.7144 18.4573 52.0002 16.2516 55.4287 16.2516C58.8573 16.2516 61.143 18.4573 61.143 22.1373C61.143 25.8173 58.9373 28.0458 55.4287 28.0458C51.9202 28.0458 49.7144 25.8973 49.7144 22.1373ZM57.5087 22.1373C57.5087 20.1144 56.7202 18.9258 55.463 18.9258C54.2059 18.9258 53.4287 20.0687 53.4287 22.1373C53.4287 24.2058 54.2059 25.3373 55.463 25.3373C56.7202 25.3373 57.5316 24.2058 57.5316 22.1487L57.5087 22.1373ZM62.6059 28.4916H66.1487C66.31 28.8729 66.5917 29.1912 66.9508 29.3975C67.3099 29.6039 67.7265 29.6871 68.1373 29.6344C69.543 29.6344 70.2744 28.8801 70.2744 27.7601V25.703H70.2859C69.9831 26.3436 69.4935 26.8774 68.8816 27.2344C68.2696 27.5914 67.5639 27.7548 66.8573 27.703C64.1716 27.703 62.3887 25.6573 62.3887 22.1373C62.3887 18.6173 64.0916 16.423 66.9602 16.423C67.6848 16.3842 68.4038 16.5711 69.0178 16.958C69.6318 17.3448 70.1108 17.9126 70.3887 18.583H70.2859V16.5144H73.9202V27.6458C73.9202 30.3316 71.543 32.0116 68.0459 32.0116C64.8687 32.0001 62.8344 30.5487 62.6287 28.503L62.6059 28.4916ZM70.2859 22.1373C70.2859 20.343 69.463 19.2116 68.1602 19.2116C66.8573 19.2116 66.0573 20.3544 66.0573 22.1373C66.0573 23.9201 66.8459 24.9716 68.1602 24.9716C69.4744 24.9716 70.2859 24.0001 70.2859 22.1373ZM75.3716 22.1373C75.3716 18.4573 77.6573 16.2516 81.0859 16.2516C84.5144 16.2516 86.8001 18.4573 86.8001 22.1373C86.8001 25.8173 84.583 28.0458 81.0859 28.0458C77.5887 28.0458 75.3944 25.8973 75.3944 22.1373H75.3716ZM83.1659 22.1373C83.1659 20.1144 82.3659 18.9258 81.1202 18.9258C79.8744 18.9258 79.0859 20.0687 79.0859 22.1373C79.0859 24.2058 79.863 25.3373 81.1202 25.3373C82.3773 25.3373 83.1887 24.2058 83.1887 22.1487L83.1659 22.1373ZM88.2859 13.8058C88.2699 13.4321 88.3661 13.0622 88.5621 12.7437C88.7581 12.425 89.045 12.1725 89.3858 12.0183C89.7266 11.864 90.1056 11.8153 90.4743 11.8784C90.843 11.9414 91.1844 12.1133 91.4545 12.3719C91.7247 12.6306 91.9114 12.9641 91.9904 13.3297C92.0694 13.6953 92.0373 14.0762 91.8981 14.4233C91.7589 14.7705 91.519 15.0681 91.2093 15.2778C90.8996 15.4876 90.5342 15.5998 90.1601 15.6001C89.9212 15.6062 89.6832 15.5647 89.4604 15.4782C89.2375 15.3916 89.034 15.2615 88.8617 15.0957C88.6895 14.9298 88.5519 14.7314 88.4571 14.5119C88.3621 14.2925 88.3117 14.0564 88.3087 13.8173L88.2859 13.8058ZM88.2859 16.503H92.0001V27.7716H88.343L88.2859 16.503ZM105.36 22.1373C105.36 25.8058 103.714 27.9316 100.914 27.9316C100.198 27.9758 99.4845 27.7989 98.8713 27.4249C98.2582 27.0509 97.7747 26.4977 97.4859 25.8401H97.4173V31.3944H93.7487V16.5373H97.3944V18.5487H97.463C97.7419 17.8782 98.2207 17.3098 98.8342 16.9213C99.4478 16.5327 100.166 16.3428 100.892 16.3773C103.772 16.3544 105.429 18.4687 105.429 22.1487L105.36 22.1373ZM101.623 22.1373C101.623 20.3544 100.789 19.2001 99.4973 19.2001C98.2059 19.2001 97.3944 20.343 97.383 22.1373C97.3716 23.9316 98.2059 25.063 99.4973 25.063C100.789 25.063 101.692 24.0001 101.692 22.1487L101.623 22.1373ZM111.623 16.2401C114.697 16.2401 116.606 17.6916 116.629 20.023H113.28C113.28 19.2116 112.606 18.7087 111.6 18.7087C110.594 18.7087 110.114 19.0973 110.114 19.6801C110.114 20.263 110.537 20.4458 111.383 20.6173L113.737 21.0973C116.023 21.5773 116.937 22.4916 116.937 24.1944C116.937 26.4801 114.823 28.0344 111.68 28.0344C108.537 28.0344 106.492 26.5258 106.343 24.2287H109.897C110 25.063 110.663 25.5544 111.737 25.5544C112.812 25.5544 113.314 25.2116 113.314 24.6058C113.314 24.0001 112.972 23.8973 112.092 23.7144L109.966 23.2687C107.76 22.8001 106.606 21.6458 106.606 19.9201C106.674 17.6801 108.594 16.2516 111.692 16.2516L111.623 16.2401ZM129.223 27.7601H125.669V25.6458H125.6C125.401 26.3511 124.968 26.9674 124.372 27.3933C123.775 27.8192 123.052 28.0292 122.32 27.9887C121.768 28.0066 121.217 27.9077 120.706 27.6981C120.196 27.4886 119.734 27.1733 119.353 26.7729C118.972 26.3725 118.68 25.896 118.496 25.3749C118.312 24.8537 118.24 24.2994 118.286 23.7487V16.5144H121.954V22.9601C121.954 24.2858 122.652 25.0058 123.794 25.0058C124.063 25.0038 124.327 24.9442 124.57 24.8313C124.814 24.7183 125.03 24.5544 125.204 24.3508C125.378 24.1471 125.508 23.9084 125.582 23.6508C125.655 23.393 125.673 23.1225 125.634 22.8573V16.5144H129.292L129.223 27.7601ZM130.994 16.503H134.56V18.6744H134.64C134.837 17.9788 135.26 17.3681 135.84 16.938C136.422 16.5079 137.129 16.2825 137.852 16.2973C138.577 16.2342 139.301 16.444 139.879 16.8857C140.458 17.3274 140.852 17.9694 140.983 18.6858H141.143C141.372 17.9655 141.831 17.3408 142.452 16.9089C143.071 16.4769 143.817 16.262 144.572 16.2973C145.073 16.2782 145.574 16.3653 146.039 16.5528C146.505 16.7402 146.926 17.024 147.274 17.3855C147.623 17.7469 147.89 18.1778 148.061 18.6501C148.232 19.1223 148.301 19.6252 148.263 20.1258V27.7716H144.572V21.063C144.572 19.9201 144.034 19.2801 142.994 19.2801C142.764 19.2764 142.535 19.3225 142.324 19.4153C142.112 19.5082 141.925 19.6457 141.772 19.8183C141.618 19.991 141.504 20.1945 141.437 20.4153C141.37 20.6361 141.352 20.8687 141.383 21.0973V27.7716H137.886V21.0287C137.886 19.8858 137.326 19.2801 136.32 19.2801C136.087 19.2783 135.856 19.3263 135.644 19.4209C135.43 19.5157 135.24 19.6548 135.085 19.829C134.93 20.0033 134.815 20.2087 134.746 20.4313C134.677 20.6541 134.656 20.8889 134.686 21.1201V27.7716H131.017L130.994 16.503Z" fill="#E0E0E0"/>
<path d="M37.3259 13.8398C37.326 11.5652 36.6392 9.34355 35.3553 7.46591C34.0714 5.58826 32.2503 4.14215 30.1306 3.317C28.011 2.49185 25.6914 2.32613 23.476 2.84155C21.2604 3.35697 19.2523 4.52949 17.7145 6.20554H3.45166V36.3084H33.5659V22.2398C34.7479 21.1827 35.6937 19.8882 36.3416 18.4407C36.9895 16.9933 37.3249 15.4257 37.3259 13.8398ZM31.5316 13.8398C31.5339 14.9298 31.2128 15.9959 30.6089 16.9034C30.0049 17.8107 29.1455 18.5186 28.1391 18.9372C27.1327 19.3559 26.0248 19.4667 24.9554 19.2554C23.8862 19.0442 22.9035 18.5204 22.132 17.7505C21.3604 16.9805 20.8347 15.999 20.6212 14.9301C20.4078 13.8613 20.5162 12.7531 20.9328 11.7459C21.3494 10.7386 22.0554 9.87764 22.9615 9.27185C23.8676 8.66605 24.9331 8.3427 26.0231 8.34268C27.482 8.34268 28.8815 8.92148 29.9142 9.95207C30.947 10.9826 31.5287 12.3809 31.5316 13.8398ZM27.7716 30.5141H9.24595V11.9998H14.8916C14.7826 12.6073 14.7252 13.2228 14.7202 13.8398C14.7233 16.8366 15.9151 19.7098 18.0342 21.8289C20.1531 23.9478 23.0263 25.1397 26.0231 25.1427C26.609 25.1396 27.1937 25.0899 27.7716 24.9941V30.5141Z" fill="#E0E0E0"/>
</svg>
