<svg width="188" height="40" viewBox="0 0 188 40" fill="none" xmlns="http://www.w3.org/2000/svg">
<path d="M30.3588 17.828C29.8535 18.3364 29.4665 18.95 29.2254 19.6249C28.9844 20.3 28.8952 21.0199 28.9641 21.7333L28.9401 21.7093C29.011 22.5492 28.8977 23.3943 28.6082 24.1859C28.3188 24.9773 27.8601 25.6961 27.2643 26.2921C26.6683 26.888 25.9494 27.3468 25.1578 27.6361C24.3664 27.9256 23.5212 28.0389 22.6814 27.968L22.7055 27.992C21.7009 27.8985 20.692 28.1171 19.8161 28.618C18.9404 29.1189 18.2404 29.8777 17.8117 30.7911C17.383 31.7044 17.2464 32.7276 17.4205 33.7215C17.5948 34.7152 18.0712 35.6311 18.7849 36.3441C19.4986 37.0572 20.4149 37.5328 21.4088 37.706C22.4028 37.8793 23.4258 37.7417 24.3388 37.3123C25.2517 36.8827 26.0098 36.1821 26.51 35.3059C27.0101 34.4296 27.2278 33.4205 27.1334 32.416L27.1588 32.44C27.0878 31.6003 27.201 30.7551 27.4905 29.9635C27.78 29.172 28.2388 28.4532 28.8346 27.8572C29.4306 27.2613 30.1495 26.8025 30.9409 26.5132C31.7325 26.2237 32.5776 26.1104 33.4174 26.1813L33.3921 26.1573C34.2127 26.2311 35.0387 26.0965 35.7935 25.7661C36.5481 25.4357 37.2073 24.9201 37.7097 24.2672C38.2121 23.6143 38.5417 22.8449 38.6676 22.0308C38.7936 21.2165 38.712 20.3837 38.4304 19.6093C38.1488 18.8351 37.6763 18.1444 37.0567 17.6013C36.437 17.0583 35.6904 16.6804 34.8859 16.5028C34.0813 16.3252 33.2449 16.3535 32.4543 16.5851C31.6636 16.8168 30.9443 17.2443 30.3628 17.828H30.3588Z" fill="#E0E0E0"/>
<path d="M20.5227 24.8478L20.4973 24.8238C21.2111 24.8957 21.9319 24.8081 22.6077 24.5673C23.2835 24.3265 23.8973 23.9386 24.4048 23.4316C24.9121 22.9245 25.3007 22.3109 25.5419 21.6353C25.7832 20.9597 25.8713 20.239 25.8 19.5252L25.8253 19.5492C25.7544 18.7093 25.8677 17.8642 26.1571 17.0726C26.4465 16.2812 26.9053 15.5624 27.5012 14.9664C28.0972 14.3705 28.816 13.9117 29.6075 13.6224C30.3991 13.3328 31.2441 13.2196 32.084 13.2905L32.0587 13.2665C33.0633 13.3609 34.0725 13.143 34.9488 12.6426C35.8252 12.1423 36.5257 11.3838 36.9551 10.4706C37.3844 9.55749 37.5216 8.53411 37.348 7.5401C37.1744 6.54609 36.6984 5.62985 35.9848 4.91633C35.2713 4.20282 34.3551 3.72677 33.3611 3.55314C32.3671 3.3795 31.3437 3.51671 30.4305 3.94607C29.5173 4.37542 28.7589 5.07602 28.2585 5.9523C27.7581 6.82857 27.5403 7.83786 27.6347 8.8425L27.6107 8.81716C27.6817 9.65702 27.5687 10.5023 27.2793 11.2939C26.99 12.0855 26.5312 12.8044 25.9353 13.4005C25.3393 13.9964 24.6204 14.4552 23.8288 14.7445C23.0371 15.0338 22.1919 15.1469 21.352 15.0758L21.376 15.1012C20.6623 15.0293 19.9413 15.1169 19.2656 15.3577C18.5899 15.5984 17.976 15.9864 17.4685 16.4934C16.9611 17.0005 16.5727 17.6141 16.3313 18.2897C16.0901 18.9653 16.002 19.686 16.0733 20.3998L16.0493 20.3758C16.12 21.2156 16.0065 22.0606 15.7171 22.8521C15.4275 23.6434 14.9688 24.3622 14.3729 24.9581C13.777 25.554 13.0583 26.0126 12.2669 26.3022C11.4755 26.5917 10.6304 26.7052 9.79068 26.6345L9.81468 26.6585C8.81004 26.5641 7.80074 26.782 6.92446 27.2824C6.0482 27.7828 5.3476 28.5412 4.91825 29.4544C4.48889 30.3676 4.35166 31.3909 4.5253 32.3849C4.69894 33.3789 5.175 34.2952 5.8885 35.0086C6.60202 35.7222 7.51826 36.1982 8.51228 36.3718C9.50629 36.5454 10.5297 36.4082 11.4428 35.9789C12.356 35.5496 13.1145 34.849 13.6148 33.9728C14.1152 33.0964 14.3331 32.0872 14.2387 31.0825L14.264 31.1065C14.1931 30.2666 14.3064 29.4216 14.5959 28.63C14.8852 27.8385 15.344 27.1197 15.9399 26.5237C16.5359 25.9278 17.2547 25.469 18.0461 25.1797C18.8377 24.8902 19.6828 24.7769 20.5227 24.8478Z" fill="#E0E0E0"/>
<path d="M11.5869 22.1721C12.0923 21.6638 12.4792 21.0502 12.72 20.3751C12.9609 19.7001 13.0497 18.9801 12.9803 18.2667L13.0056 18.2907C12.9346 17.4507 13.0479 16.6053 13.3375 15.8135C13.6271 15.0218 14.0861 14.3029 14.6824 13.7069C15.2787 13.1109 15.9977 12.6523 16.7896 12.363C17.5814 12.0737 18.4269 11.9608 19.2669 12.0321L19.2416 12.0081C20.2459 12.1022 21.2548 11.8842 22.1307 11.3839C23.0065 10.8836 23.7066 10.1253 24.1358 9.21239C24.5649 8.29951 24.702 7.27651 24.5284 6.28287C24.3548 5.28923 23.8788 4.37334 23.1656 3.66008C22.4524 2.94683 21.5364 2.47094 20.5428 2.29731C19.5492 2.12367 18.5261 2.26076 17.6133 2.68986C16.7004 3.11895 15.9421 3.81918 15.4419 4.69504C14.9415 5.57091 14.7234 6.57979 14.8176 7.58408L14.7936 7.56008C14.8645 8.39988 14.7512 9.24504 14.4617 10.0366C14.1723 10.8281 13.7136 11.5469 13.1177 12.1428C12.5217 12.7388 11.8029 13.1975 11.0114 13.4869C10.2199 13.7763 9.37472 13.8897 8.53492 13.8187L8.55892 13.8427C7.73834 13.7691 6.91246 13.9039 6.15782 14.2345C5.40318 14.565 4.74418 15.0807 4.2419 15.7338C3.73962 16.3867 3.41032 17.1561 3.28448 17.9702C3.15865 18.7845 3.24037 19.6173 3.52206 20.3914C3.80376 21.1657 4.27633 21.8562 4.89597 22.3991C5.51561 22.9422 6.26228 23.3199 7.06678 23.4975C7.87128 23.675 8.70758 23.6466 9.49821 23.415C10.2888 23.1833 11.0082 22.7558 11.5896 22.1721H11.5869Z" fill="#E0E0E0"/>
<path d="M52.8894 8.87354H56.8494V28.1442H52.8894V8.87354Z" fill="#E0E0E0"/>
<path d="M59.0922 21.5455C59.0868 20.1607 59.4924 18.8052 60.2577 17.6511C61.023 16.4969 62.1137 15.5959 63.3916 15.0621C64.6694 14.5283 66.0769 14.3857 67.4358 14.6525C68.7948 14.9193 70.044 15.5833 71.0252 16.5607C72.0064 17.5379 72.6754 18.7844 72.9477 20.1423C73.22 21.5001 73.083 22.9083 72.5544 24.1883C72.0257 25.4681 71.129 26.5625 69.978 27.3324C68.8268 28.1024 67.4732 28.5135 66.0882 28.5135C65.169 28.524 64.2569 28.3511 63.4052 28.0049C62.5534 27.6588 61.7793 27.1464 61.128 26.4977C60.4765 25.8489 59.961 25.0768 59.6116 24.2265C59.262 23.3763 59.0854 22.4648 59.0922 21.5455ZM69.1242 21.5455C69.1077 20.9485 68.9156 20.3697 68.572 19.8813C68.2282 19.3931 67.7482 19.0168 67.192 18.7999C66.6356 18.5828 66.0277 18.5345 65.4441 18.6612C64.8605 18.7879 64.3272 19.0836 63.9108 19.5117C63.4945 19.9397 63.2134 20.4811 63.1032 21.068C62.9928 21.6548 63.0577 22.2612 63.2901 22.8113C63.5225 23.3615 63.9118 23.8308 64.4094 24.1608C64.9072 24.4908 65.4912 24.6668 66.0882 24.6668C66.4972 24.6777 66.904 24.6037 67.283 24.4496C67.662 24.2955 68.0049 24.0645 68.2901 23.7713C68.5753 23.478 68.7968 23.1288 68.9402 22.7457C69.0838 22.3627 69.1465 21.954 69.1242 21.5455Z" fill="#E0E0E0"/>
<path d="M88.8668 14.9452V27.4786C88.8668 31.9132 85.4081 33.7879 81.8974 33.7879C80.6614 33.8804 79.4237 33.6307 78.3201 33.0663C77.2166 32.5018 76.2898 31.6443 75.6414 30.5879L79.0201 28.6346C79.2926 29.1852 79.7269 29.6395 80.2646 29.9367C80.8025 30.2338 81.4182 30.3596 82.0294 30.2972C82.4201 30.3514 82.818 30.317 83.1936 30.1966C83.569 30.0762 83.9128 29.8728 84.1992 29.6018C84.4856 29.3306 84.7073 28.9986 84.8481 28.63C84.9888 28.2616 85.0448 27.8663 85.0121 27.4732V26.2666C84.5484 26.8339 83.9582 27.2847 83.2888 27.5827C82.6193 27.8807 81.8894 28.0176 81.1574 27.9826C79.4158 27.9276 77.764 27.1972 76.5514 25.9458C75.3389 24.6944 74.6609 23.0203 74.6609 21.2779C74.6609 19.5355 75.3389 17.8614 76.5514 16.61C77.764 15.3586 79.4158 14.6282 81.1574 14.5732C81.8894 14.5382 82.6193 14.6751 83.2888 14.9731C83.9582 15.2711 84.5484 15.7219 85.0121 16.2892V14.9426L88.8668 14.9452ZM85.0134 21.2799C85.0401 20.6418 84.875 20.0102 84.5397 19.4666C84.2044 18.9228 83.714 18.492 83.1317 18.2295C82.5494 17.9668 81.902 17.8846 81.2725 17.9931C80.643 18.1016 80.0605 18.396 79.5997 18.8386C79.139 19.281 78.8213 19.8511 78.6873 20.4756C78.5534 21.1002 78.6094 21.7506 78.8484 22.343C79.0872 22.9354 79.4978 23.4428 80.0274 23.7999C80.557 24.157 81.1814 24.3474 81.8201 24.3466C82.2362 24.3756 82.6537 24.3172 83.0458 24.1751C83.438 24.033 83.796 23.8102 84.0968 23.5214C84.3976 23.2324 84.6346 22.8838 84.7925 22.4976C84.9504 22.1116 85.0257 21.6968 85.0134 21.2799Z" fill="#E0E0E0"/>
<path d="M91.1096 21.5455C91.1041 20.1607 91.5096 18.8052 92.275 17.6511C93.0404 16.4969 94.131 15.5959 95.4089 15.0621C96.6868 14.5283 98.0942 14.3857 99.4532 14.6525C100.812 14.9193 102.061 15.5833 103.042 16.5607C104.024 17.5379 104.693 18.7844 104.965 20.1423C105.237 21.5001 105.1 22.9083 104.572 24.1883C104.043 25.4681 103.146 26.5625 101.995 27.3324C100.844 28.1024 99.4905 28.5135 98.1056 28.5135C97.1864 28.524 96.2741 28.3511 95.4225 28.0049C94.5708 27.6588 93.7966 27.1464 93.1453 26.4977C92.4938 25.8489 91.9784 25.0768 91.6289 24.2265C91.2793 23.3763 91.1028 22.4648 91.1096 21.5455ZM101.142 21.5455C101.125 20.9485 100.933 20.3697 100.589 19.8813C100.246 19.3931 99.7656 19.0168 99.2093 18.7999C98.6529 18.5828 98.0449 18.5345 97.4614 18.6612C96.8778 18.7879 96.3445 19.0836 95.9281 19.5117C95.5118 19.9397 95.2308 20.4811 95.1204 21.068C95.01 21.6548 95.075 22.2612 95.3074 22.8113C95.5398 23.3615 95.9292 23.8308 96.4268 24.1608C96.9245 24.4908 97.5084 24.6668 98.1056 24.6668C98.5145 24.6777 98.9213 24.6037 99.3002 24.4496C99.6793 24.2955 100.022 24.0645 100.307 23.7713C100.593 23.478 100.814 23.1288 100.958 22.7457C101.101 22.3627 101.164 21.954 101.142 21.5455Z" fill="#E0E0E0"/>
<path d="M106.948 11.4082C106.948 10.9383 107.088 10.4789 107.349 10.0882C107.61 9.69747 107.981 9.39292 108.415 9.2131C108.849 9.03326 109.327 8.9862 109.788 9.07788C110.249 9.16956 110.672 9.39586 111.004 9.72815C111.337 10.0604 111.563 10.4838 111.655 10.9447C111.746 11.4056 111.699 11.8833 111.519 12.3175C111.34 12.7516 111.035 13.1227 110.644 13.3838C110.254 13.6449 109.794 13.7842 109.324 13.7842C108.696 13.778 108.095 13.5257 107.651 13.0814C107.207 12.6372 106.955 12.0364 106.948 11.4082ZM107.348 14.9456H111.31V28.1456H107.343L107.348 14.9456Z" fill="#E0E0E0"/>
<path d="M128.408 21.5455C128.454 22.4179 128.327 23.2907 128.034 24.1138C127.741 24.9369 127.289 25.6939 126.702 26.3415C126.116 26.989 125.407 27.5143 124.617 27.8871C123.827 28.2598 122.971 28.4727 122.099 28.5135C121.365 28.5535 120.631 28.4298 119.951 28.1513C119.271 27.8726 118.662 27.4462 118.167 26.9029V33.4242H114.207V14.9455H118.167V16.1855C118.662 15.6426 119.272 15.2165 119.952 14.9382C120.632 14.6598 121.365 14.5362 122.099 14.5762C122.972 14.6169 123.828 14.8297 124.618 15.2025C125.408 15.5753 126.117 16.1006 126.703 16.7483C127.29 17.3961 127.742 18.1534 128.035 18.9767C128.327 19.7999 128.454 20.673 128.408 21.5455ZM124.448 21.5455C124.433 20.9278 124.235 20.3283 123.881 19.8221C123.526 19.3159 123.03 18.9255 122.455 18.6999C121.88 18.4742 121.251 18.4231 120.647 18.5533C120.043 18.6833 119.49 18.9886 119.059 19.431C118.627 19.8735 118.336 20.4333 118.221 21.0406C118.106 21.6478 118.173 22.2753 118.413 22.8447C118.653 23.4142 119.056 23.9001 119.571 24.2418C120.086 24.5834 120.69 24.7657 121.308 24.7655C121.732 24.7845 122.156 24.7134 122.551 24.5571C122.946 24.401 123.303 24.163 123.599 23.859C123.896 23.5549 124.125 23.1917 124.271 22.793C124.417 22.3943 124.478 21.9691 124.448 21.5455Z" fill="#E0E0E0"/>
<path d="M140.628 24.1841C140.628 27.2201 137.99 28.5135 135.139 28.5135C133.987 28.6177 132.83 28.3743 131.819 27.8141C130.807 27.2541 129.986 26.4035 129.463 25.3721L132.894 23.4188C133.032 23.8955 133.33 24.3103 133.738 24.5936C134.146 24.8771 134.639 25.0121 135.134 24.9761C136.083 24.9761 136.559 24.6855 136.559 24.1588C136.559 22.7055 130.064 23.4721 130.064 18.9055C130.064 16.0268 132.494 14.5761 135.239 14.5761C136.271 14.5435 137.292 14.7883 138.198 15.2849C139.103 15.7817 139.859 16.5121 140.386 17.4001L137.007 19.2215C136.859 18.8757 136.612 18.5812 136.298 18.3747C135.983 18.1681 135.615 18.0588 135.239 18.0601C134.552 18.0601 134.13 18.3268 134.13 18.7988C134.135 20.3041 140.628 19.3001 140.628 24.1841Z" fill="#E0E0E0"/>
<path d="M155.093 14.9453V28.1453H151.133V26.904C150.676 27.4517 150.096 27.8833 149.44 28.1633C148.784 28.4433 148.072 28.5637 147.36 28.5146C144.693 28.5146 142.427 26.6146 142.427 23.048V14.9453H146.387V22.468C146.353 22.7824 146.389 23.1002 146.492 23.3993C146.593 23.6985 146.76 23.9718 146.979 24.2002C147.197 24.4286 147.463 24.6066 147.757 24.722C148.051 24.8373 148.367 24.8872 148.683 24.868C150.135 24.868 151.137 24.024 151.137 22.1493V14.9493L155.093 14.9453Z" fill="#E0E0E0"/>
<path d="M177.8 20.04V28.144H173.84V20.3826C173.84 19.0626 173.207 18.2186 171.94 18.2186C170.62 18.2186 169.88 19.1426 169.88 20.7V28.144H165.921V20.3826C165.921 19.0626 165.288 18.2186 164.02 18.2186C162.7 18.2186 161.961 19.1426 161.961 20.7V28.144H158.001V14.944H161.961V16.1573C162.372 15.619 162.911 15.1921 163.528 14.9157C164.147 14.6392 164.824 14.522 165.499 14.5746C166.176 14.5414 166.851 14.6845 167.457 14.9897C168.063 15.2948 168.579 15.7518 168.956 16.316C169.395 15.7257 169.976 15.2564 170.645 14.9518C171.315 14.6473 172.051 14.5176 172.784 14.5746C175.815 14.576 177.8 16.74 177.8 20.04Z" fill="#E0E0E0"/>
<path d="M181.149 14.8642C182.772 14.8642 184.088 13.5484 184.088 11.9255C184.088 10.3025 182.772 8.98682 181.149 8.98682C179.527 8.98682 178.211 10.3025 178.211 11.9255C178.211 13.5484 179.527 14.8642 181.149 14.8642Z" fill="#E0E0E0"/>
</svg>
