<svg width="180" height="180" viewBox="0 0 180 180" fill="none" xmlns="http://www.w3.org/2000/svg">
<path d="M180 60.2051C180.001 48.0775 176.351 36.2324 169.529 26.2214C162.706 16.2104 153.029 8.50025 141.766 4.10086C130.502 -0.298586 118.177 -1.18212 106.405 1.56591C94.6317 4.31395 83.9611 10.5655 75.7894 19.5016H0V180H160.02V104.991C166.301 99.3547 171.327 92.4528 174.769 84.7356C178.212 77.0184 179.995 68.6602 180 60.2051ZM149.211 60.2051C149.223 66.0163 147.516 71.7007 144.307 76.5388C141.098 81.3763 136.531 85.1506 131.183 87.3825C125.835 89.6151 119.948 90.2056 114.266 89.0789C108.584 87.9529 103.363 85.1603 99.2629 81.0552C95.1631 76.9501 92.3696 71.7172 91.2352 66.0181C90.1007 60.3196 90.6771 54.4109 92.8906 49.0408C95.1042 43.6705 98.856 39.08 103.671 35.8501C108.486 32.6202 114.148 30.8962 119.939 30.8961C127.692 30.8961 135.128 33.9821 140.616 39.4768C146.104 44.9715 149.195 52.4263 149.211 60.2051ZM129.231 149.107H30.7895V50.3948H60.7894C60.21 53.6334 59.9052 56.9153 59.8785 60.2051C59.8949 76.183 66.2277 91.5016 77.488 102.8C88.7477 114.098 104.015 120.452 119.939 120.468C123.053 120.452 126.16 120.187 129.231 119.676V149.107Z" fill="#32BCA3"/>
</svg>
