<svg width="152" height="40" viewBox="0 0 152 40" fill="none" xmlns="http://www.w3.org/2000/svg">
<path d="M44.1829 12.8686H47.8514V27.7257H44.1829V12.8686ZM49.3143 22.1371C49.3143 18.4571 51.6 16.2514 55.0286 16.2514C58.4571 16.2514 60.7429 18.4571 60.7429 22.1371C60.7429 25.8171 58.5371 28.0457 55.0286 28.0457C51.52 28.0457 49.3143 25.8971 49.3143 22.1371ZM57.1086 22.1371C57.1086 20.1143 56.32 18.9257 55.0629 18.9257C53.8057 18.9257 53.0286 20.0686 53.0286 22.1371C53.0286 24.2057 53.8057 25.3371 55.0629 25.3371C56.32 25.3371 57.1314 24.2057 57.1314 22.1486L57.1086 22.1371ZM62.2057 28.4914H65.7486C65.9098 28.8728 66.1915 29.1911 66.5506 29.3974C66.9097 29.6038 67.3264 29.687 67.7371 29.6343C69.1429 29.6343 69.8743 28.88 69.8743 27.76V25.7029H69.8857C69.583 26.3434 69.0934 26.8773 68.4815 27.2343C67.8695 27.5913 67.1638 27.7546 66.4571 27.7029C63.7714 27.7029 61.9886 25.6571 61.9886 22.1371C61.9886 18.6171 63.6914 16.4229 66.56 16.4229C67.2847 16.3841 68.0037 16.571 68.6176 16.9578C69.2317 17.3447 69.7106 17.9125 69.9886 18.5829H69.8857V16.5143H73.52V27.6457C73.52 30.3314 71.1429 32.0114 67.6457 32.0114C64.4686 32 62.4343 30.5486 62.2286 28.5029L62.2057 28.4914ZM69.8857 22.1371C69.8857 20.3429 69.0629 19.2114 67.76 19.2114C66.4571 19.2114 65.6571 20.3543 65.6571 22.1371C65.6571 23.92 66.4457 24.9714 67.76 24.9714C69.0743 24.9714 69.8857 24 69.8857 22.1371ZM74.9714 22.1371C74.9714 18.4571 77.2571 16.2514 80.6857 16.2514C84.1143 16.2514 86.4 18.4571 86.4 22.1371C86.4 25.8171 84.1829 28.0457 80.6857 28.0457C77.1886 28.0457 74.9943 25.8971 74.9943 22.1371H74.9714ZM82.7657 22.1371C82.7657 20.1143 81.9657 18.9257 80.72 18.9257C79.4743 18.9257 78.6857 20.0686 78.6857 22.1371C78.6857 24.2057 79.4629 25.3371 80.72 25.3371C81.9771 25.3371 82.7886 24.2057 82.7886 22.1486L82.7657 22.1371ZM87.8857 13.8057C87.8697 13.432 87.9659 13.0621 88.1619 12.7435C88.3579 12.4249 88.6448 12.1723 88.9856 12.0182C89.3264 11.8639 89.7055 11.8152 90.0742 11.8783C90.4429 11.9413 90.7842 12.1131 91.0544 12.3718C91.3246 12.6305 91.5112 12.964 91.5903 13.3296C91.6693 13.6952 91.6371 14.0761 91.4979 14.4232C91.3587 14.7704 91.1189 15.068 90.8091 15.2777C90.4994 15.4874 90.1341 15.5997 89.76 15.6C89.521 15.6061 89.2831 15.5646 89.0602 15.4781C88.8374 15.3914 88.6338 15.2614 88.4616 15.0955C88.2894 14.9297 88.1518 14.7313 88.0569 14.5118C87.9619 14.2923 87.9115 14.0562 87.9086 13.8171L87.8857 13.8057ZM87.8857 16.5029H91.6V27.7714H87.9429L87.8857 16.5029ZM104.96 22.1371C104.96 25.8057 103.314 27.9314 100.514 27.9314C99.7975 27.9757 99.0843 27.7987 98.4712 27.4248C97.8581 27.0507 97.3745 26.4976 97.0857 25.84H97.0171V31.3943H93.3486V16.5371H96.9943V18.5486H97.0629C97.3417 17.8781 97.8206 17.3097 98.4341 16.9211C99.0477 16.5326 99.7661 16.3426 100.491 16.3771C103.371 16.3543 105.029 18.4686 105.029 22.1486L104.96 22.1371ZM101.223 22.1371C101.223 20.3543 100.389 19.2 99.0971 19.2C97.8057 19.2 96.9943 20.3429 96.9829 22.1371C96.9714 23.9314 97.8057 25.0629 99.0971 25.0629C100.389 25.0629 101.291 24 101.291 22.1486L101.223 22.1371ZM111.223 16.24C114.297 16.24 116.206 17.6914 116.229 20.0229H112.88C112.88 19.2114 112.206 18.7086 111.2 18.7086C110.194 18.7086 109.714 19.0971 109.714 19.68C109.714 20.2629 110.137 20.4457 110.983 20.6171L113.337 21.0971C115.623 21.5771 116.537 22.4914 116.537 24.1943C116.537 26.48 114.423 28.0343 111.28 28.0343C108.137 28.0343 106.091 26.5257 105.943 24.2286H109.497C109.6 25.0629 110.263 25.5543 111.337 25.5543C112.411 25.5543 112.914 25.2114 112.914 24.6057C112.914 24 112.571 23.8971 111.691 23.7143L109.566 23.2686C107.36 22.8 106.206 21.6457 106.206 19.92C106.274 17.68 108.194 16.2514 111.291 16.2514L111.223 16.24ZM128.823 27.76H125.269V25.6457H125.2C125.001 26.351 124.568 26.9673 123.971 27.3931C123.375 27.8191 122.651 28.029 121.92 27.9886C121.368 28.0065 120.817 27.9075 120.306 27.6979C119.795 27.4885 119.334 27.1731 118.953 26.7728C118.571 26.3723 118.28 25.8959 118.096 25.3747C117.912 24.8536 117.84 24.2993 117.886 23.7486V16.5143H121.554V22.96C121.554 24.2857 122.251 25.0057 123.394 25.0057C123.663 25.0037 123.927 24.9441 124.17 24.8312C124.414 24.7182 124.63 24.5543 124.803 24.3506C124.978 24.147 125.107 23.9082 125.182 23.6506C125.255 23.3929 125.273 23.1224 125.234 22.8571V16.5143H128.891L128.823 27.76ZM130.594 16.5029H134.16V18.6743H134.24C134.437 17.9786 134.859 17.368 135.44 16.9378C136.022 16.5078 136.729 16.2824 137.451 16.2971C138.177 16.2341 138.901 16.4439 139.479 16.8856C140.058 17.3273 140.451 17.9693 140.583 18.6857H140.743C140.971 17.9654 141.431 17.3407 142.051 16.9088C142.671 16.4768 143.417 16.2618 144.171 16.2971C144.673 16.2781 145.174 16.3651 145.639 16.5527C146.105 16.7401 146.526 17.0239 146.874 17.3854C147.223 17.7467 147.49 18.1777 147.661 18.6499C147.832 19.1222 147.901 19.625 147.863 20.1257V27.7714H144.171V21.0629C144.171 19.92 143.634 19.28 142.594 19.28C142.363 19.2762 142.135 19.3224 141.923 19.4152C141.712 19.5081 141.525 19.6456 141.371 19.8182C141.218 19.9909 141.104 20.1944 141.037 20.4152C140.97 20.636 140.952 20.8686 140.983 21.0971V27.7714H137.486V21.0286C137.486 19.8857 136.926 19.28 135.92 19.28C135.687 19.2782 135.456 19.3262 135.243 19.4208C135.03 19.5155 134.84 19.6546 134.685 19.8289C134.53 20.0032 134.415 20.2086 134.346 20.4312C134.277 20.6539 134.256 20.8888 134.286 21.12V27.7714H130.617L130.594 16.5029Z" fill="#7C7C7C"/>
<path d="M36.9258 13.84C36.9259 11.5654 36.239 9.34374 34.9552 7.46609C33.6713 5.58844 31.8501 4.14233 29.7305 3.31719C27.6108 2.49203 25.2913 2.32632 23.0758 2.84174C20.8603 3.35715 18.8522 4.52968 17.3144 6.20572H3.05151V36.3086H33.1658V22.24C34.3477 21.1829 35.2936 19.8884 35.9414 18.4409C36.5893 16.9935 36.9248 15.4258 36.9258 13.84ZM31.1315 13.84C31.1338 14.93 30.8126 15.9961 30.2088 16.9036C29.6048 17.8109 28.7453 18.5188 27.7389 18.9374C26.7325 19.3561 25.6246 19.4669 24.5553 19.2556C23.486 19.0444 22.5034 18.5206 21.7318 17.7506C20.9603 16.9807 20.4346 15.9992 20.2211 14.9303C20.0076 13.8615 20.1161 12.7533 20.5326 11.7461C20.9492 10.7388 21.6553 9.87783 22.5613 9.27203C23.4675 8.66624 24.533 8.34288 25.6229 8.34287C27.0819 8.34287 28.4813 8.92167 29.514 9.95225C30.5468 10.9828 31.1285 12.381 31.1315 13.84ZM27.3715 30.5143H8.8458V12H14.4915C14.3825 12.6074 14.3251 13.223 14.3201 13.84C14.3231 16.8368 15.5149 19.71 17.634 21.829C19.753 23.948 22.6261 25.1399 25.6229 25.1429C26.2089 25.1398 26.7936 25.0901 27.3715 24.9943V30.5143Z" fill="#7C7C7C"/>
</svg>
