<svg width="141" height="40" viewBox="0 0 141 40" fill="none" xmlns="http://www.w3.org/2000/svg">
<path d="M47.1627 25.4546V9.89819H44.6118V25.4546H47.1627Z" fill="#7C7C7C"/>
<path d="M48.7239 20.2691C48.7239 23.4473 50.8566 25.7055 54.0975 25.7055C57.3384 25.7055 59.4712 23.4473 59.4712 20.2691C59.4712 17.0909 57.3384 14.8327 54.0975 14.8327C50.8566 14.8327 48.7239 17.0909 48.7239 20.2691ZM51.2957 20.2691C51.2957 18.4082 52.4039 17.1118 54.0975 17.1118C55.7912 17.1118 56.8993 18.4082 56.8993 20.2691C56.8993 22.1091 55.7912 23.4264 54.0975 23.4264C52.4039 23.4264 51.2957 22.1091 51.2957 20.2691Z" fill="#7C7C7C"/>
<path d="M60.3291 20.06C60.3291 23.0709 62.2736 25.2455 65.18 25.2455C66.6855 25.2455 67.9818 24.6391 68.63 23.6355V25.3918C68.63 27.0855 67.5636 28.2146 65.7864 28.2146C64.1973 28.2146 63.11 27.4409 62.9636 26.0818H60.3918C60.7264 28.7791 62.7964 30.5355 65.64 30.5355C68.9855 30.5355 71.1182 28.34 71.1182 24.9318V15.1255H68.86L68.7136 16.5264C68.0864 15.4391 66.79 14.7909 65.2636 14.7909C62.3155 14.7909 60.3291 17.0282 60.3291 20.06ZM62.9218 19.9973C62.9218 18.2827 64.0091 17.0282 65.6191 17.0282C67.3755 17.0282 68.5464 18.3037 68.5464 19.9973C68.5464 21.7118 67.3755 23.0291 65.6191 23.0291C64.03 23.0291 62.9218 21.7327 62.9218 19.9973Z" fill="#7C7C7C"/>
<path d="M72.3806 20.2691C72.3806 23.4473 74.5133 25.7055 77.7542 25.7055C80.9952 25.7055 83.1279 23.4473 83.1279 20.2691C83.1279 17.0909 80.9952 14.8327 77.7542 14.8327C74.5133 14.8327 72.3806 17.0909 72.3806 20.2691ZM74.9524 20.2691C74.9524 18.4082 76.0606 17.1118 77.7542 17.1118C79.4479 17.1118 80.5561 18.4082 80.5561 20.2691C80.5561 22.1091 79.4479 23.4264 77.7542 23.4264C76.0606 23.4264 74.9524 22.1091 74.9524 20.2691Z" fill="#7C7C7C"/>
<path d="M85.8885 13.0136C86.7249 13.0136 87.4149 12.3445 87.4149 11.4873C87.4149 10.6509 86.7249 9.98181 85.8885 9.98181C85.0312 9.98181 84.3831 10.6509 84.3831 11.4873C84.3831 12.3445 85.0312 13.0136 85.8885 13.0136ZM84.6131 25.4545H87.164V15.1254H84.6131V25.4545Z" fill="#7C7C7C"/>
<path d="M89.3989 30.2427H91.8873V24.0327C92.5355 25.0991 93.9364 25.7264 95.4837 25.7264C98.5364 25.7264 100.355 23.3846 100.314 20.1646C100.251 16.9236 98.39 14.8118 95.4627 14.8118C93.8946 14.8118 92.4727 15.5018 91.8455 16.6936L91.6991 15.1255H89.3989V30.2427ZM91.9918 20.29C91.9918 18.4291 93.1209 17.1327 94.8982 17.1327C96.6755 17.1327 97.7418 18.45 97.7418 20.29C97.7418 22.13 96.6755 23.4264 94.8982 23.4264C93.1209 23.4264 91.9918 22.1509 91.9918 20.29Z" fill="#7C7C7C"/>
<path d="M100.961 22.36C101.044 24.4091 102.633 25.7264 105.101 25.7264C107.526 25.7264 109.178 24.43 109.178 22.4227C109.178 20.9382 108.258 19.9346 106.564 19.5164L104.745 19.0773C103.972 18.8682 103.449 18.5964 103.449 17.9273C103.449 17.2164 104.013 16.7146 104.933 16.7146C105.895 16.7146 106.523 17.2582 106.523 18.1573H108.843C108.76 16.1082 107.233 14.8118 104.996 14.8118C102.78 14.8118 101.128 16.1082 101.128 18.0736C101.128 19.4118 101.902 20.52 103.888 21.0427L105.686 21.5027C106.355 21.6909 106.773 22.0046 106.773 22.59C106.773 23.4055 106 23.7818 105.059 23.7818C103.93 23.7818 103.282 23.2591 103.282 22.36H100.961Z" fill="#7C7C7C"/>
<path d="M114.47 25.7264C115.871 25.7264 117.209 25.0782 117.815 24.1164L117.983 25.4545H120.366V15.1255H117.815V20.5409C117.815 22.4018 117.104 23.4473 115.432 23.4473C114.135 23.4473 113.236 22.82 113.236 20.6873V15.1255H110.685V21.5864C110.685 24.0536 112.023 25.7264 114.47 25.7264Z" fill="#7C7C7C"/>
<path d="M125.168 25.4546V19.5164C125.168 17.8436 126.151 17.0491 127.364 17.0491C128.576 17.0491 129.371 17.8227 129.371 19.2864V25.4546H131.859V19.5373C131.859 17.8436 132.821 17.0491 134.034 17.0491C135.267 17.0491 136.062 17.8227 136.062 19.2864V25.4546H138.529V18.7009C138.529 16.3173 137.212 14.8118 134.703 14.8118C133.134 14.8118 131.901 15.5646 131.399 16.7773C130.834 15.5646 129.705 14.8118 127.991 14.8118C126.778 14.8118 125.691 15.3764 125.084 16.2964L124.959 15.1255H122.617V25.4546H125.168Z" fill="#7C7C7C"/>
<path d="M119.053 34.6855C119.433 34.6855 119.763 34.3655 119.763 33.9855C119.763 33.5955 119.433 33.2755 119.053 33.2755C118.663 33.2755 118.333 33.5955 118.333 33.9855C118.333 34.3655 118.663 34.6855 119.053 34.6855Z" fill="#7C7C7C"/>
<path d="M120.496 32.1054C120.496 33.6354 121.436 34.6654 122.806 34.6654C123.986 34.6654 124.886 33.9554 125.076 32.8954H124.176C124.006 33.4854 123.486 33.8354 122.866 33.8354C121.986 33.8354 121.426 33.1554 121.426 32.0954C121.426 31.0154 122.016 30.3554 122.886 30.3554C123.486 30.3554 124.006 30.6754 124.166 31.3054H125.066C124.906 30.2354 124.066 29.5154 122.896 29.5154C121.476 29.5154 120.496 30.5654 120.496 32.1054Z" fill="#7C7C7C"/>
<path d="M125.431 32.0955C125.431 33.5655 126.431 34.6655 127.931 34.6655C129.431 34.6655 130.431 33.5655 130.431 32.0955C130.431 30.6255 129.431 29.5255 127.931 29.5255C126.431 29.5255 125.431 30.6255 125.431 32.0955ZM126.381 32.0955C126.381 31.0955 126.991 30.3655 127.931 30.3655C128.871 30.3655 129.481 31.0955 129.481 32.0955C129.481 33.0955 128.871 33.8255 127.931 33.8255C126.991 33.8255 126.381 33.0955 126.381 32.0955Z" fill="#7C7C7C"/>
<path d="M132.174 34.5555V31.6155C132.174 30.8455 132.654 30.3455 133.354 30.3455C134.024 30.3455 134.444 30.7755 134.444 31.5455V34.5555H135.364V31.6254C135.364 30.8454 135.834 30.3455 136.544 30.3455C137.204 30.3455 137.624 30.7755 137.624 31.5455V34.5555H138.534V31.3455C138.534 30.2155 137.874 29.5255 136.754 29.5255C135.994 29.5255 135.404 29.8954 135.164 30.4954C134.914 29.8954 134.364 29.5255 133.564 29.5255C132.954 29.5255 132.414 29.8055 132.144 30.2855L132.074 29.6655H131.234V34.5555H132.174Z" fill="#7C7C7C"/>
<path fill-rule="evenodd" clip-rule="evenodd" d="M2.21802 20.3957L2.21977 20.2135L2.22339 20.0313L2.22888 19.849L2.23624 19.6667L2.24547 19.4844L2.25657 19.3022L2.26955 19.12L2.2844 18.9378L2.30113 18.7557L2.31973 18.5736L2.3402 18.3918L2.36254 18.21L2.38675 18.0284L2.41284 17.8469L2.4408 17.6656L2.47063 17.4846L2.50233 17.3037L2.53588 17.1232L2.57131 16.9428L2.6086 16.7627L2.64775 16.5829L2.68875 16.4034L2.73163 16.2244L2.77634 16.0455L2.82291 15.8672L2.87132 15.6891L2.92158 15.5114L2.97368 15.3343L3.02762 15.1575L3.08338 14.9813L3.14098 14.8054L3.20041 14.6301L3.26165 14.4553L3.32471 14.281L3.38958 14.1073L3.45625 13.9341L3.52474 13.7615L3.59501 13.5895L3.66707 13.4183L3.74092 13.2475L3.81654 13.0774L3.89394 12.9081L3.97311 12.7394L4.05404 12.5714L4.13672 12.4042L4.22114 12.2377L4.30731 12.072L4.39521 11.907L4.48483 11.7429L4.57616 11.5795L4.66922 11.417L4.76396 11.2554L4.86041 11.0945L4.95854 10.9346L5.05834 10.7756L5.15982 10.6175L5.26295 10.4604L5.36774 10.3042L5.47417 10.149L5.58224 9.99472L5.69192 9.84145L5.80321 9.68927L5.91611 9.53799L6.0306 9.3879L6.14668 9.23881L6.26433 9.09076L6.38354 8.94385L6.5043 8.79805L6.6266 8.65338L6.75044 8.50984L6.87579 8.36747L7.00264 8.22628L7.131 8.08627L7.26084 7.94747L7.39215 7.80989L7.52493 7.67354L7.65914 7.53844L7.7948 7.4046L7.93188 7.27205L8.07037 7.14079L8.21026 7.01084L8.35154 6.8822L8.49418 6.75491L8.63819 6.62897L8.78354 6.50438L8.93023 6.38118L9.07823 6.25937L9.22754 6.13896L9.37814 6.01997L9.53002 5.9024L9.68311 5.78629L9.83756 5.67163L9.9932 5.55845L10.15 5.44675L10.308 5.33654L10.4673 5.22784L10.6277 5.12065L10.7892 5.015L10.9519 4.91089L11.1158 4.80835L11.2807 4.70737L11.4468 4.60796L11.6139 4.51015L11.7821 4.41394L11.9514 4.31934L12.1217 4.22637L12.2929 4.13502L12.4652 4.04533L12.6385 3.95729L12.8127 3.87091L12.9879 3.78621L13.1641 3.70319L13.3411 3.62188L13.5191 3.54227L13.6979 3.46437L13.8777 3.38819L14.0582 3.31376L14.2396 3.24106L14.4217 3.1701L14.6047 3.10092L14.7885 3.03349L14.973 2.96786L15.1583 2.90399L15.3443 2.84192L15.5309 2.78166L15.7183 2.72319L15.9064 2.66655L16.0951 2.61173L16.2844 2.55874L16.4744 2.50758L16.6649 2.45826L16.856 2.41079L17.0477 2.36519L17.2399 2.32144L17.4327 2.27957L17.6258 2.23956L17.8196 2.20143L18.0137 2.16519L18.2084 2.13084L18.4035 2.09839L18.5989 2.06783L18.7947 2.03918L18.9909 2.01244L19.1875 1.98761L19.3844 1.9647L19.5816 1.9437L19.779 1.92465L19.9767 1.90751L20.1747 1.8923L20.3729 1.87904L21.4387 1.81818L21.4996 6.95333L21.5344 6.95293L21.6816 6.95272L21.8287 6.95396L21.9759 6.95664L22.1233 6.96078L22.2706 6.96636L22.4179 6.97338L22.5653 6.98186L22.7127 6.99179L22.8599 7.00317L23.0073 7.016L23.1545 7.03029L23.3017 7.04604L23.4487 7.06323L23.5957 7.08188L23.7425 7.10198L23.8892 7.12352L24.0357 7.14653L24.1822 7.17099L24.3284 7.19689L24.4745 7.22424L24.6203 7.25304L24.7658 7.28329L24.9113 7.31498L25.0564 7.34812L25.2012 7.38269L25.3458 7.41871L25.4901 7.45618L25.634 7.49507L25.7777 7.53539L25.921 7.57715L26.0639 7.62033L26.2065 7.66494L26.3486 7.71098L26.4905 7.75843L26.6318 7.80729L26.7727 7.85758L26.9133 7.90926L27.0533 7.96236L27.1928 8.01685L27.3319 8.07275L27.4705 8.13004L27.6085 8.18871L27.746 8.24878L27.883 8.31022L28.0194 8.37304L28.1552 8.43722L28.2905 8.50278L28.4251 8.56969L28.5591 8.63797L28.6925 8.70759L28.8252 8.77855L28.9573 8.85086L29.0886 8.92449L29.2194 8.99946L29.3494 9.07574L29.4787 9.15336L29.6072 9.23227L29.735 9.31245L29.862 9.39399L29.9883 9.47672L30.1137 9.56081L30.2385 9.64618L30.3623 9.73272L30.4854 9.82063L30.6076 9.90972L30.7288 10.0001L30.8494 10.0917L30.9689 10.1845L31.0877 10.2786L31.2054 10.3738L31.3223 10.4703L31.4382 10.568L31.5532 10.6668L31.6673 10.7668L31.7804 10.868L31.8924 10.9704L32.0035 11.0739L32.1136 11.1785L32.2227 11.2843L32.3307 11.3912L32.4377 11.4992L32.5436 11.6084L32.6485 11.7185L32.7522 11.8298L32.8549 11.9422L32.9565 12.0556L33.0569 12.1701L33.1563 12.2856L33.2545 12.4022L33.3516 12.5197L33.4475 12.6384L33.5422 12.7579L33.6357 12.8784L33.7281 13L33.8193 13.1225L33.9092 13.246L33.9979 13.3704L34.0854 13.4958L34.1716 13.622L34.2567 13.7492L34.3404 13.8773L34.4228 14.0063L34.5039 14.1361L34.5838 14.2667L34.6624 14.3983L34.7397 14.5306L34.8156 14.6638L34.8902 14.7978L34.9635 14.9326L35.0354 15.0682L35.1059 15.2045L35.1751 15.3416L35.2429 15.4794L35.3094 15.6181L35.3745 15.7574L35.4381 15.8974L35.5004 16.0381L35.5612 16.1794L35.6206 16.3215L35.6786 16.4642L35.7351 16.6075L35.7902 16.7514L35.8438 16.8961L35.896 17.0412L35.9467 17.187L35.996 17.3333L36.0438 17.4802L36.0901 17.6275L36.1349 17.7754L36.1782 17.9239L36.22 18.0728L36.2603 18.2223L36.2991 18.3722L36.3363 18.5224L36.3721 18.6733L36.4063 18.8244L36.4389 18.9761L36.4701 19.128L36.4997 19.2804L36.5277 19.4332L36.5542 19.5863L36.5791 19.7396L36.6025 19.8934L36.6243 20.0474L36.6445 20.2017L36.6631 20.3564L36.6802 20.5112L36.6957 20.6663L36.7096 20.8215L36.7219 20.9771L36.7327 21.1328L36.7417 21.2887L36.7493 21.4447L36.7553 21.601L36.7596 21.7573L36.7624 21.9137L36.7635 22.0703L36.763 22.2269L36.7609 22.3836L36.7572 22.5404L36.7519 22.6972L36.745 22.854L36.7366 23.0108L36.7264 23.1676L36.7146 23.3244L36.7013 23.4812L36.6863 23.6379L36.6697 23.7945L36.6515 23.951L36.6316 24.1074L36.6103 24.2637L36.5872 24.4199L36.5626 24.5759L36.5363 24.7317L36.5084 24.8874L36.4789 25.0428L36.4478 25.1981L36.4151 25.3531L36.3807 25.5078L36.3448 25.6624L36.3074 25.8165L36.2682 25.9704L36.2275 26.124L36.1852 26.2773L36.1413 26.4302L36.0958 26.5827L36.0487 26.735L36 26.8867L35.9498 27.0382L35.898 27.1891L35.8446 27.3396L35.7896 27.4897L35.7331 27.6393L35.675 27.7884L35.6154 27.937L35.5542 28.0851L35.4915 28.2326L35.4272 28.3797L35.3614 28.5261L35.294 28.672L35.2251 28.8173L35.1547 28.9619L35.0827 29.106L35.0094 29.2494L34.9344 29.3922L34.858 29.5342L34.78 29.6756L34.7006 29.8163L34.6197 29.9563L34.5374 30.0955L34.4536 30.234L34.3683 30.3718L34.2815 30.5087L34.1933 30.6449L34.1037 30.7803L34.0126 30.9148L33.9202 31.0485L33.8263 31.1814L33.731 31.3134L33.6343 31.4446L33.5362 31.5749L33.4367 31.7043L33.3359 31.8326L33.2337 31.9602L33.1302 32.0867L33.0253 32.2123L32.919 32.3369L32.8115 32.4605L32.7026 32.5832L32.5924 32.7048L32.4809 32.8254L32.3682 32.945L32.2541 33.0635L32.1388 33.1809L32.0222 33.2973L31.9044 33.4125L31.7854 33.5267L31.6651 33.6398L31.5437 33.7517L31.4209 33.8625L31.297 33.9721L31.172 34.0805L31.0457 34.1879L30.9184 34.294L30.7898 34.3988L30.6602 34.5025L30.5294 34.605L30.3975 34.7062L30.2645 34.8061L30.1304 34.9048L29.9953 35.0023L29.859 35.0984L29.7217 35.1933L29.5835 35.2868L29.4442 35.379L29.3038 35.4699L29.1626 35.5595L29.0203 35.6477L28.877 35.7346L28.7327 35.8201L28.5876 35.9043L28.4416 35.987L28.2945 36.0683L28.1467 36.1483L27.9978 36.2267L27.8482 36.3038L27.6977 36.3795L27.5463 36.4537L27.3941 36.5264L27.2411 36.5978L27.0873 36.6676L26.9327 36.736L26.7774 36.8028L26.6213 36.8682L26.4645 36.9321L26.3069 36.9944L26.1487 37.0553L25.9897 37.1146L25.83 37.1724L25.6697 37.2286L25.5087 37.2833L25.3472 37.3364L25.1849 37.388L25.0221 37.438L24.8587 37.4864L24.6948 37.5333L24.5303 37.5785L24.3653 37.6223L24.1997 37.6643L24.0337 37.7047L23.8671 37.7436L23.7 37.7808L23.5326 37.8164L23.3647 37.8504L23.1963 37.8828L23.0276 37.9135L22.8585 37.9425L22.6889 37.97L22.5191 37.9958L22.3488 38.0199L22.1784 38.0424L22.0076 38.0632L21.8364 38.0823L21.665 38.0997L21.4934 38.1155L21.3216 38.1296L21.1495 38.1421L20.9772 38.1528L20.8047 38.1619L20.632 38.1693L20.4593 38.1749L20.2863 38.1789L20.1133 38.1812L19.9401 38.1818L19.7669 38.1807L19.5937 38.1779L19.4203 38.1734L19.2469 38.1672L19.0736 38.1593L18.9002 38.1497L18.7269 38.1384L18.5536 38.1254L18.3804 38.1106L18.2072 38.0942L18.0341 38.0761L17.8612 38.0563L17.6884 38.0347L17.5157 38.0114L17.3432 37.9864L17.1708 37.9598L16.9987 37.9314L16.8268 37.9014L16.6551 37.8696L16.4837 37.8362L16.3126 37.8011L16.1417 37.7642L15.9711 37.7256L15.8009 37.6854L15.631 37.6435L15.4615 37.5999L15.2923 37.5546L15.1236 37.5077L14.9552 37.4591L14.7872 37.4088L14.6197 37.3568L14.4527 37.3032L14.2862 37.2479L14.1201 37.1909L13.9546 37.1323L13.7896 37.0721L13.6251 37.0102L13.4612 36.9466L13.2979 36.8814L13.1352 36.8146L12.9731 36.7462L12.8117 36.6762L12.6508 36.6045L12.4907 36.5313L12.3312 36.4564L12.1725 36.3799L12.0145 36.3018L11.8571 36.2222L11.7006 36.141L11.5448 36.0582L11.3897 35.9739L11.2356 35.888L11.0822 35.8005L10.9297 35.7115L10.7779 35.621L10.6271 35.529L10.4771 35.4354L10.328 35.3404L10.1799 35.2437L10.0327 35.1457L9.88638 35.0461L9.74111 34.9451L9.59674 34.8426L9.45339 34.7386L9.31104 34.6333L9.16972 34.5264L9.02944 34.4181L8.8902 34.3084L8.75203 34.1973L8.61494 34.0848L8.47895 33.9709L8.34407 33.8556L8.21032 33.739L8.07771 33.6209L7.94625 33.5015L7.81597 33.3809L7.68686 33.2588L7.55896 33.1355L7.43227 33.0108L7.3068 32.8849L7.18257 32.7577L7.0596 32.6292L6.93789 32.4994L6.81746 32.3684L6.69834 32.2362L6.58051 32.1027L6.464 31.9681L6.34883 31.8322L6.235 31.6952L6.12254 31.5569L6.01144 31.4175L5.90173 31.277L5.79341 31.1354L5.6865 30.9925L5.58101 30.8486L5.47695 30.7036L5.37434 30.5575L5.27318 30.4104L5.17349 30.2623L5.07528 30.113L4.97856 29.9628L4.88334 29.8115L4.78963 29.6593L4.69744 29.5061L4.60679 29.3518L4.51769 29.1967L4.43014 29.0406L4.34414 28.8836L4.25974 28.7256L4.1769 28.5668L4.09567 28.4072L4.01604 28.2466L3.93803 28.0853L3.86164 27.923L3.78687 27.76L3.71375 27.5961L3.64228 27.4315L3.57247 27.2661L3.50434 27.1L3.43786 26.9331L3.37308 26.7654L3.31 26.5972L3.24861 26.4282L3.18893 26.2585L3.13095 26.0883L3.07471 25.9173L3.0202 25.7457L2.96742 25.5735L2.91639 25.4008L2.86711 25.2274L2.81958 25.0535L2.77382 24.8792L2.72983 24.7043L2.68761 24.5288L2.64718 24.3529L2.60854 24.1764L2.57168 23.9996L2.53663 23.8224L2.50337 23.6447L2.47193 23.4666L2.4423 23.2882L2.41448 23.1094L2.38849 22.9302L2.36433 22.7506L2.342 22.5708L2.3215 22.3907L2.30284 22.2104L2.28602 22.0298L2.27104 21.8489L2.25792 21.6678L2.24664 21.4865L2.23723 21.3051L2.22966 21.1234L2.22395 20.9417L2.22011 20.7598L2.21814 20.5778L2.21802 20.3957ZM19.8345 7.06089L19.793 3.56071L19.7537 3.56451L19.5729 3.58375L19.3927 3.60473L19.2125 3.62749L19.033 3.65195L18.8537 3.67819L18.6747 3.70618L18.4961 3.73589L18.3177 3.76737L18.1403 3.80049L17.9626 3.83546L17.7861 3.872L17.6094 3.91039L17.4336 3.95041L17.2579 3.99221L17.0831 4.03561L16.9087 4.08076L16.7348 4.12759L16.5615 4.1761L16.3889 4.22625L16.2167 4.27812L16.0453 4.3316L15.8744 4.38679L15.7044 4.44349L15.5347 4.50199L15.3658 4.56206L15.1978 4.62371L15.0303 4.68705L14.8637 4.75193L14.6979 4.81838L14.5327 4.88653L14.3682 4.95623L14.2046 5.02752L14.0418 5.10031L13.8799 5.17469L13.7189 5.25056L13.5585 5.3281L13.3992 5.40707L13.2407 5.48757L13.0832 5.56959L12.9266 5.65312L12.771 5.73809L12.6161 5.82462L12.4622 5.91266L12.3097 6.00195L12.1576 6.09299L12.0069 6.18523L11.8573 6.27891L11.7084 6.37413L11.5607 6.47074L11.414 6.56876L11.2687 6.66793L11.124 6.76886L10.9807 6.87087L10.8386 6.97429L10.6974 7.07912L10.5575 7.1852L10.4188 7.29256L10.281 7.40142L10.1447 7.51132L10.0095 7.62267L9.87547 7.73522L9.74265 7.84908L9.6112 7.96404L9.48073 8.08045L9.35174 8.19789L9.22386 8.31669L9.09746 8.43649L8.97222 8.55759L8.84836 8.67978L8.72577 8.80318L8.60437 8.92786L8.48456 9.05338L8.3661 9.17999L8.24869 9.30809L8.13291 9.43699L8.01854 9.56681L7.90535 9.69799L7.79381 9.82999L7.6835 9.96318L7.57467 10.0973L7.46727 10.2324L7.36127 10.3685L7.25683 10.5055L7.15376 10.6435L7.05211 10.7826L6.95209 10.9224L6.85341 11.0633L6.7563 11.2049L6.66069 11.3474L6.56652 11.4909L6.47394 11.6352L6.38287 11.7802L6.29334 11.9261L6.2054 12.0727L6.11891 12.2203L6.03397 12.3686L5.95071 12.5175L5.86894 12.6673L5.78873 12.8178L5.71014 12.969L5.63311 13.1209L5.55773 13.2734L5.48392 13.4265L5.41174 13.5804L5.34113 13.7349L5.27219 13.8899L5.20482 14.0456L5.13909 14.2019L5.07504 14.3586L5.0126 14.516L4.95179 14.6739L4.89265 14.8323L4.83515 14.9912L4.77935 15.1504L4.72516 15.3104L4.67265 15.4706L4.62183 15.6314L4.57268 15.7924L4.52517 15.954L4.47938 16.1158L4.43526 16.2781L4.39282 16.4406L4.35206 16.6036L4.31301 16.7668L4.27564 16.9304L4.23997 17.0942L4.206 17.2583L4.17373 17.4225L4.14314 17.5871L4.11427 17.7518L4.0871 17.9168L4.06164 18.0819L4.03787 18.2472L4.01582 18.4126L3.99546 18.5782L3.97682 18.7438L3.95988 18.9096L3.94465 19.0754L3.93113 19.2413L3.91931 19.4073L3.9092 19.5733L3.90079 19.7392L3.89409 19.9052L3.88909 20.0711L3.8858 20.237L3.8842 20.4028L3.88431 20.5686L3.88611 20.7343L3.88961 20.8999L3.8948 21.0654L3.90168 21.2306L3.91026 21.3958L3.92052 21.5607L3.93246 21.7255L3.94609 21.8901L3.9614 22.0544L3.97837 22.2186L3.99703 22.3824L4.01734 22.5461L4.03933 22.7094L4.06297 22.8724L4.08828 23.0351L4.11523 23.1974L4.14384 23.3594L4.17408 23.521L4.20596 23.6822L4.23948 23.8431L4.27463 24.0034L4.3114 24.1634L4.34979 24.323L4.38979 24.4821L4.43141 24.6407L4.47461 24.7987L4.51943 24.9564L4.56583 25.1134L4.61381 25.27L4.66337 25.426L4.71449 25.5814L4.76718 25.7362L4.82144 25.8904L4.87724 26.044L4.93456 26.1969L4.99346 26.3493L5.05385 26.5009L5.11577 26.6519L5.17922 26.8022L5.24415 26.9517L5.3106 27.1006L5.37853 27.2488L5.44794 27.3962L5.51881 27.5428L5.59115 27.6886L5.66494 27.8337L5.74019 27.978L5.81686 28.1214L5.89497 28.2641L5.97449 28.4058L6.05542 28.5467L6.13774 28.6868L6.22147 28.8259L6.30654 28.9642L6.39303 29.1015L6.48083 29.2379L6.57002 29.3734L6.66054 29.508L6.75236 29.6415L6.84551 29.7742L6.93999 29.9058L7.03574 30.0364L7.1328 30.1661L7.23109 30.2946L7.3307 30.4222L7.4315 30.5486L7.53357 30.6741L7.6369 30.7985L7.74138 30.9218L7.84711 31.044L7.95401 31.1651L8.06213 31.2851L8.17138 31.4039L8.28177 31.5216L8.39333 31.6382L8.50602 31.7536L8.61985 31.8679L8.73476 31.9809L8.8508 32.0928L8.96787 32.2034L9.08603 32.313L9.20527 32.4213L9.32553 32.5283L9.44676 32.634L9.56911 32.7385L9.69247 32.8418L9.81665 32.9438L9.94202 33.0446L10.0682 33.144L10.1954 33.2422L10.3235 33.3391L10.4526 33.4346L10.5825 33.5288L10.7133 33.6217L10.8449 33.7133L10.9776 33.8035L11.1109 33.8924L11.2453 33.9799L11.3803 34.0661L11.5162 34.1508L11.6529 34.2343L11.7903 34.3163L11.9286 34.3969L12.0675 34.4761L12.2072 34.5539L12.3476 34.6303L12.4887 34.7053L12.6305 34.7788L12.7729 34.851L12.9161 34.9216L13.0599 34.9909L13.2043 35.0587L13.3493 35.1251L13.4948 35.1899L13.6411 35.2534L13.7878 35.3153L13.9352 35.3758L14.083 35.4348L14.2314 35.4923L14.3803 35.5484L14.5296 35.6029L14.6794 35.6559L14.8297 35.7074L14.9805 35.7575L15.1317 35.8061L15.2831 35.8531L15.4352 35.8986L15.5875 35.9426L15.7402 35.9851L15.8933 36.0261L16.0467 36.0655L16.2004 36.1034L16.3543 36.1398L16.5087 36.1747L16.6632 36.208L16.8179 36.2398L16.973 36.2701L17.1283 36.2988L17.2837 36.326L17.4394 36.3516L17.5952 36.3757L17.7512 36.3983L17.9074 36.4193L18.0636 36.4388L18.2199 36.4567L18.3764 36.4731L18.5329 36.488L18.6896 36.5013L18.8462 36.5131L19.0028 36.5233L19.1596 36.532L19.3162 36.5391L19.4728 36.5447L19.6295 36.5488L19.7861 36.5513L19.9426 36.5523L20.099 36.5517L20.2554 36.5496L20.4116 36.5461L20.5677 36.5409L20.7237 36.5343L20.8795 36.5261L21.035 36.5164L21.1905 36.5052L21.3457 36.4924L21.5007 36.4782L21.6555 36.4624L21.81 36.4451L21.9642 36.4264L22.1182 36.4061L22.2718 36.3843L22.4252 36.361L22.5782 36.3363L22.7309 36.31L22.8833 36.2823L23.0352 36.2531L23.1867 36.2224L23.3379 36.1903L23.4887 36.1567L23.6389 36.1216L23.7888 36.0851L23.9382 36.0472L24.0871 36.0077L24.2355 35.9669L24.3835 35.9246L24.5308 35.8809L24.6777 35.8358L24.824 35.7894L24.9698 35.7414L25.115 35.6921L25.2595 35.6414L25.4036 35.5892L25.5469 35.5357L25.6897 35.4808L25.8317 35.4246L25.9731 35.3671L26.1138 35.3081L26.2539 35.2478L26.3933 35.1862L26.5318 35.1233L26.6698 35.059L26.807 34.9934L26.9434 34.9265L27.0791 34.8583L27.2139 34.7888L27.348 34.7181L27.4814 34.646L27.6137 34.5727L27.7454 34.4982L27.8761 34.4224L28.0062 34.3454L28.1351 34.2672L28.2635 34.1876L28.3907 34.107L28.517 34.0251L28.6426 33.942L28.7672 33.8576L28.8906 33.7724L29.0133 33.6857L29.135 33.598L29.2557 33.5092L29.3756 33.4191L29.4942 33.3281L29.6121 33.2357L29.7287 33.1424L29.8444 33.0481L29.9592 32.9525L30.0728 32.8559L30.1853 32.7584L30.2968 32.6596L30.4072 32.56L30.5166 32.4593L30.6248 32.3575L30.7318 32.2549L30.8379 32.1511L30.9428 32.0464L31.0466 31.9407L31.1492 31.8341L31.2506 31.7266L31.3507 31.6183L31.45 31.5086L31.5478 31.3984L31.6447 31.2872L31.7401 31.1752L31.8345 31.0622L31.9276 30.9484L32.0194 30.8338L32.1101 30.7183L32.1995 30.6021L32.2877 30.4849L32.3746 30.3671L32.4603 30.2484L32.5448 30.1288L32.6277 30.0088L32.7097 29.8878L32.7901 29.7663L32.8694 29.6438L32.9475 29.5206L33.024 29.397L33.0993 29.2726L33.1734 29.1473L33.2459 29.0217L33.3173 28.8953L33.3874 28.7682L33.4559 28.6407L33.5233 28.5124L33.5893 28.3834L33.6537 28.2544L33.717 28.1244L33.7789 27.9938L33.8394 27.8629L33.8985 27.7314L33.9562 27.5994L34.0125 27.4671L34.0675 27.334L34.121 27.2005L34.1731 27.067L34.2238 26.9324L34.2731 26.7979L34.3211 26.6627L34.3677 26.5273L34.4127 26.3914L34.4563 26.2554L34.4987 26.1185L34.5394 25.9818L34.5787 25.8446L34.6167 25.7073L34.6533 25.5694L34.6883 25.4314L34.722 25.2931L34.7542 25.1544L34.785 25.0157L34.8144 24.8766L34.8422 24.7376L34.8686 24.598L34.8937 24.4587L34.9172 24.3189L34.9393 24.179L34.9599 24.0391L34.9792 23.8989L34.9969 23.7589L35.0133 23.6183L35.0281 23.4782L35.0416 23.3376L35.0535 23.1974L35.064 23.0566L35.0731 22.9164L35.0807 22.7758L35.0869 22.6351L35.0916 22.4947L35.095 22.3546L35.0968 22.214L35.0973 22.0736L35.0963 21.9334L35.0938 21.7934L35.0899 21.6533L35.0846 21.5137L35.0778 21.3736L35.0696 21.2342L35.06 21.0947L35.049 20.9557L35.0366 20.8164L35.0227 20.6778L35.0075 20.5391L34.9907 20.4008L34.9727 20.2626L34.9532 20.1249L34.9322 19.9871L34.9099 19.8499L34.8863 19.7132L34.8612 19.5764L34.8347 19.44L34.8068 19.3042L34.7776 19.1683L34.7471 19.0334L34.715 18.8983L34.6818 18.7641L34.647 18.6297L34.611 18.4964L34.5737 18.3632L34.5349 18.2303L34.4949 18.0982L34.4536 17.9665L34.4107 17.835L34.3668 17.7044L34.3214 17.574L34.2748 17.4444L34.2268 17.315L34.1777 17.1865L34.127 17.0583L34.0752 16.9307L34.0222 16.804L33.9679 16.6778L33.9121 16.5518L33.8555 16.427L33.7972 16.3023L33.7379 16.1787L33.6774 16.0556L33.6155 15.933L33.5526 15.8114L33.4883 15.6903L33.4227 15.5697L33.3564 15.4504L33.2885 15.3313L33.2196 15.2132L33.1493 15.0956L33.0782 14.9793L33.0056 14.8632L32.9321 14.7482L32.8573 14.6337L32.7815 14.5203L32.7047 14.4078L32.6265 14.2958L32.5473 14.1848L32.4671 14.0746L32.3857 13.9654L32.3034 13.8569L32.2199 13.7494L32.1355 13.6427L32.0499 13.537L31.9634 13.4322L31.8757 13.3282L31.7871 13.2252L31.6976 13.1231L31.6071 13.022L31.5156 12.9218L31.4228 12.8224L31.3297 12.7244L31.2349 12.627L31.1397 12.5309L31.0435 12.4355L30.9464 12.3414L30.848 12.2479L30.7493 12.1559L30.6493 12.0646L30.5485 11.9744L30.4471 11.8854L30.3447 11.7974L30.2412 11.7103L30.1371 11.6244L30.0323 11.5395L29.9266 11.4558L29.82 11.3731L29.7129 11.2917L29.6047 11.211L29.496 11.1318L29.3865 11.0536L29.2761 10.9764L29.1653 10.9005L29.0533 10.8255L28.9413 10.7521L28.828 10.6794L28.7144 10.6081L28.5998 10.5378L28.4848 10.4687L28.3692 10.4009L28.2531 10.3344L28.1359 10.2686L28.0187 10.2044L27.9006 10.1413L27.7819 10.0794L27.6628 10.0187L27.543 9.95918L27.4227 9.90081L27.302 9.84381L27.1807 9.7879L27.059 9.73336L26.9367 9.6799L26.8101 9.62609L26.691 9.5769L26.5671 9.52709L26.4434 9.47881L26.3187 9.43145L26.1939 9.38563L26.0687 9.3409L25.9431 9.29754L25.817 9.25527L25.6908 9.21445L25.5641 9.17481L25.4371 9.13645L25.31 9.09945L25.1824 9.06359L25.0543 9.02898L24.9264 8.99577L24.7982 8.96382L24.6692 8.93305L24.5407 8.90369L24.4115 8.87551L24.2823 8.84869L24.1527 8.82309L24.0232 8.79884L23.8934 8.77584L23.7637 8.75418L23.6333 8.73372L23.5033 8.71462L23.373 8.69679L23.2426 8.68023L23.1121 8.66498L22.9817 8.65103L22.8511 8.63836L22.7205 8.62698L22.5897 8.61688L22.4589 8.60806L22.3285 8.60055L22.1979 8.59432L22.0669 8.58937L21.9367 8.58571L21.8061 8.58333L21.6757 8.58224L21.545 8.58242L21.5188 8.58272L21.56 12.0574L21.6341 12.0571L21.7295 12.0576L21.8248 12.0591L21.9203 12.0615L22.0158 12.0649L22.1114 12.0693L22.2069 12.0745L22.3026 12.0807L22.3982 12.0879L22.4938 12.096L22.5895 12.1051L22.685 12.1151L22.7807 12.1261L22.8762 12.138L22.9717 12.1508L23.0671 12.1647L23.1625 12.1794L23.2577 12.1952L23.353 12.2119L23.4481 12.2295L23.5431 12.2482L23.638 12.2677L23.7328 12.2882L23.8275 12.3096L23.9219 12.3321L24.0163 12.3554L24.1104 12.3797L24.2044 12.405L24.2982 12.4312L24.3918 12.4584L24.4853 12.4864L24.5785 12.5154L24.6714 12.5454L24.7641 12.5764L24.8567 12.6083L24.9488 12.6411L25.0408 12.6748L25.1325 12.7094L25.2239 12.7451L25.315 12.7816L25.4058 12.8191L25.4963 12.8575L25.5865 12.8968L25.6763 12.9371L25.7657 12.9782L25.8548 13.0203L25.9437 13.0633L26.032 13.1072L26.12 13.152L26.2077 13.1977L26.2948 13.2443L26.3817 13.2918L26.468 13.3402L26.5539 13.3894L26.6395 13.4396L26.7246 13.4907L26.8091 13.5426L26.8932 13.5954L26.9768 13.6492L27.06 13.7037L27.1427 13.7591L27.2248 13.8154L27.3065 13.8725L27.3876 13.9304L27.4681 13.9893L27.5481 14.049L27.6277 14.1094L27.7065 14.1708L27.7848 14.233L27.8626 14.2959L27.9397 14.3597L28.0163 14.4244L28.0923 14.4897L28.1677 14.5559L28.2424 14.6229L28.3165 14.6907L28.3898 14.7593L28.4627 14.8286L28.5347 14.8987L28.6062 14.9696L28.677 15.0413L28.7471 15.1137L28.8166 15.1868L28.8852 15.2607L28.9532 15.3354L29.0205 15.4107L29.087 15.4867L29.1528 15.5635L29.2179 15.641L29.2823 15.7192L29.3458 15.7981L29.4087 15.8776L29.4707 15.9579L29.5319 16.0388L29.5924 16.1204L29.652 16.2026L29.7109 16.2855L29.7689 16.3691L29.8262 16.4533L29.8826 16.5381L29.9381 16.6234L29.9928 16.7095L30.0467 16.7962L30.0998 16.8834L30.152 16.9712L30.2033 17.0596L30.2537 17.1485L30.3033 17.2381L30.3519 17.3282L30.3997 17.4188L30.4466 17.51L30.4926 17.6017L30.5377 17.694L30.5818 17.7867L30.625 17.8799L30.6673 17.9737L30.7087 18.0679L30.7491 18.1626L30.7886 18.2578L30.8271 18.3534L30.8647 18.4495L30.9012 18.546L30.9368 18.643L30.9715 18.7404L31.0052 18.8382L31.0379 18.9364L31.0696 19.035L31.1003 19.1339L31.13 19.2333L31.1587 19.333L31.1865 19.4331L31.2131 19.5335L31.2388 19.6343L31.2635 19.7354L31.2871 19.8367L31.3097 19.9384L31.3313 20.0404L31.3518 20.1427L31.3713 20.2453L31.3897 20.3482L31.4072 20.4513L31.4236 20.5545L31.4388 20.6582L31.4531 20.7619L31.4663 20.8659L31.4785 20.9702L31.4895 21.0746L31.4995 21.1792L31.5085 21.284L31.5163 21.3889L31.5231 21.494L31.5287 21.5992L31.5334 21.7045L31.5369 21.8101L31.5394 21.9156L31.5407 22.0214L31.541 22.1272L31.5402 22.233L31.5383 22.3389L31.5353 22.4449L31.5312 22.551L31.526 22.657L31.5197 22.7631L31.5124 22.8693L31.5039 22.9754L31.4943 23.0814L31.4837 23.1875L31.4718 23.2935L31.459 23.3996L31.445 23.5055L31.4299 23.6114L31.4137 23.7173L31.3965 23.823L31.3781 23.9286L31.3586 24.0342L31.338 24.1396L31.3163 24.2449L31.2935 24.3501L31.2696 24.4551L31.2446 24.5599L31.2186 24.6645L31.1914 24.7691L31.1631 24.8734L31.1337 24.9774L31.1033 25.0813L31.0717 25.1849L31.0391 25.2884L31.0053 25.3915L30.9705 25.4944L30.9346 25.597L30.8977 25.6994L30.8596 25.8014L30.8204 25.9031L30.7802 26.0045L30.7389 26.1056L30.6966 26.2064L30.6531 26.3068L30.6087 26.4069L30.5631 26.5066L30.5165 26.6059L30.4688 26.7048L30.4201 26.8034L30.3703 26.9014L30.3195 26.9992L30.2677 27.0964L30.2147 27.1932L30.1608 27.2895L30.1059 27.3854L30.0499 27.4808L29.9929 27.5758L29.9349 27.6702L29.8759 27.7642L29.8158 27.8575L29.7548 27.9504L29.6927 28.0427L29.6297 28.1345L29.5657 28.2258L29.5007 28.3164L29.4347 28.4065L29.3678 28.4961L29.2999 28.585L29.231 28.6733L29.1612 28.7609L29.0904 28.848L29.0187 28.9344L28.946 29.0202L28.8724 29.1053L28.7978 29.1897L28.7224 29.2734L28.646 29.3565L28.5687 29.4389L28.4907 29.5206L28.4116 29.6015L28.3317 29.6818L28.2507 29.7613L28.1691 29.8401L28.0865 29.9181L28.0031 29.9953L27.9188 30.0718L27.8337 30.1474L27.7477 30.2224L27.6609 30.2965L27.5734 30.3698L27.4849 30.4424L27.3957 30.514L27.3057 30.5848L27.2148 30.6548L27.1233 30.724L27.0309 30.7923L26.9377 30.8597L26.8439 30.9264L26.7493 30.992L26.6539 31.0568L26.5577 31.1207L26.4609 31.1837L26.3634 31.2458L26.2652 31.307L26.1662 31.3672L26.0667 31.4265L25.9663 31.4849L25.8654 31.5423L25.7637 31.5987L25.6615 31.6543L25.5586 31.7088L25.455 31.7624L25.3508 31.8149L25.2461 31.8664L25.1407 31.9171L25.0347 31.9666L24.9282 32.0152L24.8211 32.0627L24.7135 32.1093L24.6052 32.1547L24.4965 32.1992L24.3872 32.2426L24.2774 32.285L24.1671 32.3264L24.0563 32.3666L23.945 32.4058L23.8332 32.4439L23.721 32.481L23.6083 32.5169L23.4952 32.5518L23.3817 32.5856L23.2677 32.6183L23.1533 32.6499L23.0385 32.6804L22.9233 32.7097L22.8077 32.738L22.6918 32.7652L22.5755 32.7912L22.4589 32.8161L22.3419 32.8398L22.2247 32.8624L22.1071 32.884L21.9892 32.9044L21.871 32.9235L21.7527 32.9415L21.6339 32.9584L21.5149 32.9742L21.3957 32.9888L21.2764 33.0022L21.1567 33.0144L21.0369 33.0255L20.9169 33.0354L20.7967 33.0442L20.6764 33.0517L20.5558 33.0581L20.4352 33.0633L20.3144 33.0673L20.1935 33.0701L20.0725 33.0717L19.9513 33.0722L19.8301 33.0714L19.7089 33.0694L19.5876 33.0664L19.4662 33.062L19.3448 33.0564L19.2234 33.0497L19.102 33.0418L18.9806 33.0327L18.8592 33.0224L18.7378 33.0108L18.6165 32.9981L18.4952 32.9842L18.374 32.9691L18.2528 32.9527L18.1318 32.9352L18.0109 32.9164L17.8901 32.8965L17.7694 32.8754L17.6488 32.8531L17.5285 32.8295L17.4083 32.8047L17.2882 32.7788L17.1684 32.7517L17.0487 32.7234L16.9293 32.6938L16.8101 32.6631L16.6911 32.6312L16.5724 32.5981L16.454 32.5638L16.3358 32.5284L16.2179 32.4917L16.1004 32.4538L15.9832 32.4148L15.8662 32.3746L15.7497 32.3333L15.6335 32.2907L15.5176 32.247L15.4021 32.2021L15.287 32.1561L15.1723 32.1088L15.058 32.0604L14.9442 32.011L14.8308 31.9603L14.7178 31.9084L14.6054 31.8555L14.4934 31.8014L14.3818 31.7462L14.2707 31.6898L14.1603 31.6324L14.0503 31.5737L13.9408 31.514L13.8319 31.4532L13.7236 31.3912L13.6157 31.3282L13.5086 31.264L13.4019 31.1987L13.2959 31.1324L13.1906 31.065L13.0858 30.9965L12.9817 30.9269L12.8783 30.8563L12.7755 30.7846L12.6734 30.7119L12.5719 30.6381L12.4712 30.5633L12.3711 30.4874L12.2718 30.4104L12.1733 30.3325L12.0755 30.2535L11.9784 30.1736L11.882 30.0926L11.7865 30.0107L11.6917 29.9277L11.5977 29.8438L11.5046 29.7589L11.4123 29.6731L11.3207 29.5863L11.23 29.4984L11.1402 29.4097L11.0513 29.3201L10.9632 29.2294L10.8759 29.138L10.7896 29.0455L10.7042 28.9523L10.6197 28.858L10.536 28.7629L10.4534 28.6669L10.3716 28.5701L10.2908 28.4724L10.2109 28.3737L10.1321 28.2744L10.0542 28.1741L9.97729 28.073L9.90138 27.9711L9.82638 27.8684L9.75247 27.7649L9.67965 27.6606L9.60774 27.5555L9.53693 27.4497L9.46716 27.3432L9.39844 27.2358L9.33078 27.1277L9.2642 27.0189L9.19869 26.9094L9.13427 26.7992L9.07094 26.6882L9.00872 26.5766L8.94761 26.4643L8.88762 26.3514L8.82874 26.2377L8.77101 26.1234L8.71442 26.0085L8.65897 25.893L8.60468 25.7769L8.55155 25.6601L8.49959 25.5428L8.44881 25.4249L8.39921 25.3064L8.35079 25.1874L8.30358 25.0678L8.25756 24.9476L8.21275 24.827L8.16915 24.7059L8.12678 24.5842L8.08564 24.4621L8.04572 24.3394L8.00704 24.2164L7.9696 24.0929L7.93341 23.9689L7.89847 23.8445L7.86479 23.7197L7.83238 23.5944L7.80123 23.4689L7.77135 23.3429L7.74276 23.2165L7.71544 23.0898L7.68942 22.9628L7.66468 22.8354L7.64124 22.7077L7.61909 22.5797L7.59825 22.4514L7.57872 22.3229L7.56049 22.1941L7.54358 22.065L7.52799 21.9356L7.51372 21.8061L7.50076 21.6764L7.48914 21.5464L7.47884 21.4162L7.46988 21.2859L7.46224 21.1554L7.45595 21.0247L7.451 20.894L7.44739 20.7631L7.44512 20.6321L7.44419 20.5009L7.44462 20.3697L7.44638 20.2384L7.44951 20.1072L7.45397 19.9758L7.4598 19.8444L7.46698 19.713L7.47551 19.5815L7.4854 19.4502L7.49663 19.3187L7.50924 19.1874L7.5232 19.0561L7.53851 18.9249L7.55518 18.7937L7.57321 18.6626L7.59259 18.5316L7.61334 18.4008L7.63543 18.2701L7.65888 18.1395L7.68369 18.0091L7.70985 17.8788L7.73736 17.7488L7.76623 17.6189L7.79645 17.4893L7.82802 17.3598L7.86093 17.2306L7.89519 17.1017L7.93079 16.973L7.96774 16.8446L8.00603 16.7165L8.04564 16.5887L8.08661 16.4612L8.1289 16.3341L8.17252 16.2073L8.21747 16.0808L8.26374 15.9547L8.31134 15.829L8.36024 15.7037L8.41047 15.5788L8.46201 15.4544L8.51485 15.3304L8.569 15.2067L8.62445 15.0836L8.68119 14.961L8.73923 14.8388L8.79854 14.7172L8.85915 14.5961L8.92103 14.4754L8.98419 14.3554L9.04861 14.2359L9.1143 14.117L9.18124 13.9986L9.24943 13.8808L9.31888 13.7637L9.38957 13.6472L9.46149 13.5313L9.53465 13.416L9.60902 13.3014L9.68465 13.1874L9.76138 13.0742L9.83947 12.9616L9.91865 12.8497L9.99902 12.7385L10.0807 12.6282L10.1634 12.5184L10.2474 12.4095L10.3325 12.3014L10.4187 12.194L10.5061 12.0874L10.5947 11.9816L10.6844 11.8766L10.7752 11.7724L10.8671 11.6692L10.9602 11.5667L11.0543 11.4651L11.1496 11.3644L11.2459 11.2644L11.3433 11.1655L11.4417 11.0674L11.5413 10.9703L11.6419 10.8741L11.7436 10.7787L11.8462 10.6844L11.9499 10.591L12.0547 10.4986L12.1603 10.4072L12.267 10.3167L12.3747 10.2273L12.4834 10.1388L12.593 10.0514L12.7037 9.96499L12.8152 9.87963L12.9277 9.79536L13.0411 9.71209L13.1554 9.6299L13.2706 9.54881L13.3867 9.46881L13.5037 9.3899L13.6216 9.31218L13.7404 9.23545L13.8599 9.1599L13.9804 9.08548L14.1017 9.0122L14.2237 8.94008L14.3466 8.86911L14.4703 8.79931L14.5947 8.73068L14.7199 8.66326L14.8459 8.59702L14.9727 8.53199L15.1001 8.46816L15.2283 8.40555L15.3572 8.34417L15.4868 8.28402L15.6171 8.22511L15.7481 8.16745L15.8797 8.11105L16.012 8.05591L16.1449 8.00204L16.2784 7.94945L16.4126 7.89814L16.5473 7.84812L16.6827 7.7994L16.8186 7.75199L16.955 7.70588L17.092 7.66109L17.2295 7.61762L17.3676 7.57548L17.5061 7.53467L17.6452 7.4952L17.7847 7.45708L17.9247 7.4203L18.0651 7.38488L18.206 7.35083L18.3473 7.31815L18.489 7.28682L18.6311 7.25688L18.7736 7.22831L18.9165 7.20114L19.0597 7.17535L19.2032 7.15095L19.3471 7.12795L19.4913 7.10635L19.6357 7.08616L19.7805 7.06737L19.8345 7.06089ZM19.8956 12.2146L19.8539 8.70171L19.7353 8.71829L19.6077 8.73741L19.4801 8.7578L19.3533 8.77936L19.2263 8.80223L19.0999 8.82628L18.9738 8.85156L18.8482 8.87802L18.7228 8.90574L18.5977 8.93469L18.473 8.96482L18.3488 8.99615L18.2247 9.02873L18.1056 9.06127L17.9786 9.09736L17.8559 9.13345L17.7338 9.17072L17.6124 9.20908L17.4912 9.24872L17.3705 9.28954L17.2503 9.33145L17.1307 9.37445L17.0117 9.41872L16.8931 9.46399L16.775 9.51054L16.6578 9.55808L16.5407 9.6069L16.4244 9.65672L16.3087 9.70763L16.1937 9.75963L16.0791 9.81281L15.9651 9.86708L15.8521 9.92227L15.7393 9.97872L15.6277 10.0361L15.5162 10.0947L15.4058 10.1541L15.2957 10.2149L15.1866 10.2764L15.0782 10.339L14.9704 10.4027L14.8634 10.4674L14.7569 10.5332L14.6516 10.5997L14.5467 10.6674L14.4427 10.7361L14.3396 10.8056L14.2371 10.8763L14.1353 10.9479L14.0347 11.0202L13.9346 11.0937L13.8353 11.1681L13.7369 11.2434L13.6395 11.3194L13.5427 11.3966L13.4469 11.4745L13.352 11.5534L13.2578 11.6333L13.1648 11.7137L13.0725 11.7953L12.981 11.8776L12.8906 11.9607L12.8011 12.0446L12.7123 12.1295L12.6247 12.215L12.538 12.3014L12.4521 12.3886L12.3673 12.4765L12.2834 12.5654L12.2005 12.6548L12.1186 12.745L12.0376 12.836L11.9575 12.9278L11.8787 13.0201L11.8007 13.1133L11.7237 13.2072L11.6478 13.3016L11.573 13.3967L11.499 13.4927L11.4262 13.5892L11.3544 13.6864L11.2837 13.7842L11.2139 13.8826L11.1454 13.9815L11.0778 14.0812L11.0113 14.1814L10.9458 14.2823L10.8816 14.3835L10.8184 14.4854L10.7562 14.5881L10.6951 14.691L10.6352 14.7945L10.5763 14.8986L10.5187 15.003L10.462 15.1081L10.4064 15.2137L10.3521 15.3195L10.2988 15.4261L10.2467 15.533L10.1957 15.6402L10.1459 15.748L10.0972 15.8561L10.0497 15.9646L10.0032 16.0735L9.95802 16.1828L9.91393 16.2924L9.87093 16.4025L9.82911 16.5129L9.78856 16.6235L9.74902 16.7346L9.71083 16.8458L9.67365 16.9574L9.63774 17.0694L9.60293 17.1815L9.56938 17.2939L9.53693 17.4065L9.50574 17.5194L9.47566 17.6325L9.44679 17.7458L9.41911 17.8594L9.39262 17.9731L9.3673 18.0869L9.34316 18.201L9.32024 18.3152L9.29849 18.4294L9.27793 18.544L9.25857 18.6585L9.24038 18.7733L9.22341 18.8879L9.2076 19.0028L9.193 19.1177L9.17958 19.2327L9.16735 19.3477L9.15632 19.4628L9.14647 19.5779L9.13782 19.6929L9.13034 19.8081L9.12405 19.9232L9.11895 20.0382L9.11504 20.1532L9.11231 20.2681L9.11076 20.383L9.11039 20.4979L9.1112 20.6126L9.11319 20.7273L9.11635 20.8418L9.12068 20.9562L9.12619 21.0705L9.13286 21.1847L9.1407 21.2986L9.14971 21.4125L9.15987 21.5262L9.1712 21.6396L9.18368 21.7529L9.19731 21.866L9.2121 21.9789L9.22803 22.0914L9.24511 22.2039L9.26332 22.3159L9.28267 22.4278L9.30316 22.5394L9.32477 22.6506L9.34752 22.7617L9.37137 22.8724L9.39636 22.9828L9.42243 23.0927L9.44965 23.2024L9.47796 23.3118L9.50738 23.4208L9.53783 23.5294L9.56947 23.6376L9.60211 23.7454L9.63593 23.8529L9.67074 23.96L9.70665 24.0665L9.74365 24.1726L9.78165 24.2784L9.82074 24.3836L9.86093 24.4884L9.90211 24.5927L9.94429 24.6965L9.98756 24.7999L10.0318 24.9027L10.0772 25.005L10.1235 25.1068L10.1708 25.208L10.2192 25.3087L10.2685 25.4089L10.3188 25.5084L10.3701 25.6075L10.4224 25.706L10.4757 25.8038L10.5298 25.9011L10.585 25.9977L10.6411 26.0937L10.6982 26.1891L10.7562 26.2839L10.8151 26.378L10.8749 26.4714L10.9357 26.5644L10.9973 26.6564L11.0599 26.7479L11.1233 26.8386L11.1877 26.9287L11.2528 27.0181L11.3189 27.1067L11.3858 27.1946L11.4537 27.2819L11.5222 27.3684L11.5917 27.4541L11.6619 27.5391L11.733 27.6234L11.8049 27.7067L11.8777 27.7895L11.9511 27.8714L12.0254 27.9525L12.1004 28.0328L12.1762 28.1124L12.2527 28.1911L12.3301 28.269L12.4081 28.3461L12.4869 28.4224L12.5665 28.4978L12.6466 28.5724L12.7276 28.6462L12.8091 28.719L12.8914 28.791L12.9744 28.8622L13.058 28.9324L13.1423 29.0019L13.2272 29.0704L13.3127 29.138L13.3989 29.2047L13.4857 29.2706L13.5732 29.3355L13.6611 29.3995L13.7497 29.4626L13.8388 29.5248L13.9286 29.5861L14.0189 29.6464L14.1097 29.7058L14.2011 29.7643L14.293 29.8218L14.3854 29.8784L14.4783 29.934L14.5717 29.9886L14.6656 30.0423L14.76 30.095L14.8547 30.1467L14.9501 30.1975L15.0458 30.2474L15.1419 30.2961L15.2386 30.344L15.3357 30.3908L15.433 30.4367L15.5307 30.4815L15.629 30.5254L15.7275 30.5683L15.8264 30.6101L15.9257 30.651L16.0253 30.6908L16.1251 30.7296L16.2254 30.7674L16.3259 30.8043L16.4267 30.8401L16.5278 30.8748L16.6293 30.9086L16.7309 30.9413L16.8328 30.973L16.935 31.0036L17.0374 31.0333L17.1399 31.0619L17.2427 31.0894L17.3457 31.1161L17.4489 31.1415L17.5523 31.166L17.6558 31.1894L17.7596 31.2119L17.8634 31.2333L17.9673 31.2535L18.0715 31.2728L18.1756 31.2911L18.2799 31.3084L18.3843 31.3244L18.4887 31.3396L18.5933 31.3537L18.6978 31.3668L18.8025 31.3788L18.9071 31.3898L19.0118 31.3997L19.1166 31.4086L19.2213 31.4164L19.326 31.4234L19.4307 31.4291L19.5353 31.4339L19.64 31.4376L19.7446 31.4404L19.849 31.442L19.9535 31.4426L20.0578 31.4423L20.1621 31.4408L20.2663 31.4384L20.3703 31.435L20.4743 31.4305L20.578 31.425L20.6817 31.4185L20.7851 31.411L20.8885 31.4024L20.9916 31.3929L21.0946 31.3824L21.1974 31.3708L21.2999 31.3583L21.4023 31.3447L21.5044 31.3303L21.6063 31.3147L21.7079 31.2982L21.8092 31.2807L21.9104 31.2622L22.0112 31.2427L22.1117 31.2224L22.2121 31.2009L22.3119 31.1785L22.4116 31.1553L22.5108 31.1309L22.6098 31.1057L22.7085 31.0795L22.8067 31.0524L22.9047 31.0243L23.0022 30.9953L23.0993 30.9654L23.196 30.9344L23.2925 30.9026L23.3884 30.8699L23.4839 30.8363L23.579 30.8017L23.6737 30.7663L23.7678 30.7299L23.8616 30.6926L23.9549 30.6544L24.0477 30.6154L24.14 30.5755L24.2319 30.5348L24.3232 30.4932L24.4141 30.4506L24.5045 30.4073L24.5941 30.3632L24.6836 30.318L24.7722 30.2722L24.8605 30.2254L24.9479 30.1779L25.035 30.1295L25.1216 30.0804L25.2074 30.0304L25.2927 29.9795L25.3775 29.928L25.4615 29.8756L25.5451 29.8224L25.6278 29.7686L25.7101 29.7139L25.7918 29.6584L25.8727 29.6022L25.9529 29.5454L26.0327 29.4875L26.1117 29.4293L26.19 29.3701L26.2677 29.3102L26.3445 29.2497L26.4209 29.1884L26.4966 29.1264L26.5712 29.0638L26.6456 29.0003L26.7189 28.9364L26.7916 28.8718L26.8637 28.8063L26.9348 28.7404L27.0054 28.6738L27.0752 28.6065L27.1441 28.5387L27.2124 28.4702L27.2799 28.4011L27.3467 28.3314L27.4125 28.2611L27.4777 28.1902L27.5421 28.1187L27.6056 28.0468L27.6685 27.9741L27.7304 27.901L27.7915 27.8274L27.8519 27.753L27.9114 27.6784L27.9701 27.6031L28.028 27.5274L28.0851 27.451L28.1413 27.3743L28.1966 27.2972L28.2512 27.2193L28.3048 27.1412L28.3577 27.0625L28.4097 26.9834L28.4607 26.904L28.511 26.824L28.5604 26.7435L28.6089 26.6628L28.6565 26.5816L28.7034 26.4999L28.7491 26.4182L28.7942 26.3356L28.8383 26.253L28.8814 26.17L28.9238 26.0864L28.9651 26.0029L29.0057 25.9185L29.0452 25.8344L29.0841 25.7494L29.1217 25.6646L29.1587 25.5791L29.1947 25.4936L29.2297 25.4078L29.2639 25.3216L29.2972 25.2352L29.3294 25.1487L29.3609 25.0617L29.3913 24.9746L29.4208 24.8874L29.4495 24.7998L29.4772 24.712L29.504 24.6241L29.5298 24.5361L29.5547 24.4477L29.5786 24.3594L29.6017 24.2707L29.6238 24.182L29.645 24.0933L29.6653 24.0041L29.6846 23.915L29.703 23.8258L29.7204 23.7366L29.7369 23.6473L29.7525 23.5575L29.7671 23.4682L29.7808 23.3785L29.7936 23.2888L29.8054 23.1993L29.8163 23.1095L29.8263 23.0195L29.8353 22.9302L29.8435 22.8401L29.8507 22.7504L29.8568 22.6608L29.8622 22.571L29.8666 22.4814L29.87 22.3918L29.8726 22.302L29.8741 22.2127L29.8748 22.1231L29.8746 22.0337L29.8735 21.9444L29.8714 21.8554L29.8684 21.7662L29.8645 21.6772L29.8597 21.5885L29.8539 21.4996L29.8473 21.411L29.8398 21.3228L29.8314 21.2344L29.822 21.1464L29.8117 21.0584L29.8007 20.9707L29.7887 20.8832L29.7757 20.7957L29.7619 20.7086L29.7473 20.6218L29.7317 20.5352L29.7153 20.4488L29.6979 20.3624L29.6797 20.2765L29.6607 20.191L29.6408 20.1055L29.62 20.0203L29.5985 19.9357L29.5759 19.8509L29.5527 19.7668L29.5285 19.6828L29.5035 19.5994L29.4777 19.516L29.4509 19.433L29.4235 19.3505L29.3952 19.2684L29.3659 19.1863L29.3361 19.1049L29.3053 19.0237L29.2737 18.9431L29.2414 18.8626L29.2082 18.7825L29.1743 18.7032L29.1395 18.6239L29.104 18.5453L29.0677 18.4671L29.0307 18.3891L28.9927 18.3115L28.9543 18.2347L28.9148 18.1581L28.8748 18.0822L28.834 18.0067L28.7924 17.9314L28.7502 17.8569L28.7071 17.7827L28.6634 17.7092L28.6188 17.6359L28.5738 17.5634L28.5278 17.4912L28.4814 17.4197L28.4341 17.3487L28.3862 17.2783L28.3375 17.2082L28.2882 17.1388L28.2384 17.0701L28.1877 17.0016L28.1365 16.934L28.0845 16.8668L28.0321 16.8004L27.9788 16.7343L27.925 16.6689L27.8706 16.6041L27.8156 16.5398L27.76 16.4764L27.7037 16.4133L27.6469 16.351L27.5895 16.2892L27.5317 16.2283L27.4729 16.1676L27.4139 16.1079L27.3541 16.0485L27.2939 15.9901L27.2333 15.9323L27.172 15.875L27.1101 15.8184L27.0477 15.7625L26.9849 15.7074L26.9214 15.6526L26.8578 15.599L26.7934 15.5456L26.7286 15.4932L26.6633 15.4414L26.5975 15.3902L26.5313 15.3398L26.4648 15.2903L26.3976 15.2412L26.3298 15.1927L26.2621 15.1454L26.1935 15.0984L26.1249 15.0524L26.0557 15.007L25.9861 14.9623L25.916 14.9183L25.8458 14.8752L25.7749 14.8326L25.7039 14.791L25.6323 14.7499L25.5607 14.7098L25.4886 14.6704L25.416 14.6315L25.3432 14.5935L25.2702 14.5564L25.1967 14.5199L25.1229 14.4842L25.049 14.4493L24.9749 14.4152L24.9 14.3816L24.8255 14.3491L24.7504 14.3173L24.6749 14.2861L24.5994 14.2558L24.5237 14.2264L24.4477 14.1976L24.3713 14.1695L24.295 14.1424L24.2183 14.116L24.1414 14.0904L24.0646 14.0655L23.9874 14.0415L23.9102 14.0183L23.8324 13.9957L23.7548 13.9741L23.6771 13.9532L23.5992 13.9331L23.5212 13.9137L23.4428 13.8952L23.3647 13.8774L23.2865 13.8605L23.2079 13.8444L23.1292 13.8289L23.0509 13.8144L22.9721 13.8006L22.8935 13.7876L22.8145 13.7754L22.7359 13.764L22.6567 13.7533L22.5781 13.7435L22.4992 13.7344L22.4203 13.7262L22.3415 13.7187L22.2625 13.712L22.1838 13.7061L22.1047 13.701L22.026 13.6966L21.9475 13.6931L21.8684 13.6903L21.7899 13.6883L21.7114 13.6871L21.6329 13.6866L21.5793 13.6868L21.6199 17.119L21.6442 17.1191L21.6893 17.1197L21.7345 17.1208L21.7797 17.1223L21.825 17.1244L21.8704 17.1268L21.9157 17.1297L21.9612 17.1332L22.0067 17.1371L22.0522 17.1414L22.0977 17.1463L22.1433 17.1515L22.1889 17.1574L22.2345 17.1636L22.2801 17.1704L22.3257 17.1776L22.3714 17.1854L22.4169 17.1935L22.4626 17.2023L22.5081 17.2114L22.5537 17.2211L22.5992 17.2312L22.6447 17.2418L22.6901 17.2529L22.7356 17.2644L22.7809 17.2765L22.8262 17.2891L22.8715 17.3021L22.9167 17.3156L22.9617 17.3296L23.0067 17.3442L23.0517 17.3592L23.0966 17.3746L23.1414 17.3905L23.186 17.407L23.2306 17.4239L23.275 17.4413L23.3194 17.4592L23.3636 17.4775L23.4077 17.4964L23.4517 17.5157L23.4955 17.5355L23.5392 17.5558L23.5827 17.5766L23.6261 17.5978L23.6694 17.6195L23.7124 17.6418L23.7553 17.6644L23.798 17.6876L23.8406 17.7113L23.8829 17.7354L23.9251 17.7599L23.967 17.7849L24.0088 17.8104L24.0504 17.8364L24.0917 17.8629L24.1328 17.8897L24.1737 17.9171L24.2145 17.945L24.2549 17.9733L24.2951 18.002L24.3351 18.0312L24.3748 18.0608L24.4143 18.0909L24.4535 18.1214L24.4925 18.1524L24.5311 18.1839L24.5695 18.2157L24.6077 18.2481L24.6455 18.2808L24.683 18.314L24.7203 18.3476L24.7572 18.3817L24.7938 18.4162L24.8301 18.4511L24.8662 18.4864L24.9018 18.5222L24.9372 18.5584L24.9723 18.5949L25.0069 18.6319L25.0413 18.6694L25.0753 18.7072L25.109 18.7454L25.1423 18.784L25.1752 18.823L25.2078 18.8624L25.24 18.9022L25.2718 18.9424L25.3033 18.9829L25.3344 19.0239L25.3651 19.0652L25.3954 19.1069L25.4252 19.1489L25.4547 19.1914L25.4838 19.2342L25.5125 19.2774L25.5407 19.3208L25.5687 19.3647L25.596 19.4089L25.623 19.4534L25.6496 19.4984L25.6757 19.5435L25.7014 19.5891L25.7266 19.635L25.7514 19.6812L25.7757 19.7277L25.7996 19.7745L25.823 19.8216L25.8459 19.8691L25.8684 19.9169L25.8904 19.9649L25.9119 20.0133L25.933 20.0619L25.9536 20.1108L25.9737 20.16L25.9932 20.2094L26.0123 20.2592L26.0309 20.3092L26.049 20.3594L26.0666 20.41L26.0837 20.4607L26.1002 20.5117L26.1162 20.563L26.1317 20.6144L26.1467 20.6662L26.1612 20.7182L26.1752 20.7703L26.1887 20.8226L26.2015 20.8753L26.2138 20.9281L26.2257 20.981L26.2369 21.0343L26.2477 21.0876L26.2577 21.1411L26.2674 21.1949L26.2765 21.2488L26.285 21.3028L26.2929 21.3571L26.3003 21.4114L26.3071 21.466L26.3134 21.5207L26.3191 21.5755L26.3242 21.6304L26.3287 21.6855L26.3327 21.7408L26.3361 21.7961L26.3389 21.8515L26.3411 21.9071L26.3428 21.9627L26.3438 22.0184L26.3444 22.0743L26.3442 22.1301L26.3436 22.1861L26.3423 22.2422L26.3404 22.2983L26.3379 22.3544L26.3348 22.4106L26.3312 22.4669L26.3269 22.5232L26.322 22.5795L26.3166 22.6359L26.3106 22.6923L26.3038 22.7486L26.2966 22.8051L26.2887 22.8615L26.2803 22.9179L26.2712 22.9743L26.2615 23.0306L26.2512 23.087L26.2403 23.1434L26.2288 23.1996L26.2167 23.2559L26.2039 23.3121L26.1907 23.3683L26.1767 23.4244L26.1621 23.4804L26.147 23.5364L26.1312 23.5923L26.1148 23.648L26.0978 23.7037L26.0803 23.7594L26.0621 23.8148L26.0433 23.8703L26.0239 23.9255L26.0038 23.9806L25.9832 24.0357L25.962 24.0905L25.9402 24.1454L25.9177 24.1999L25.8947 24.2544L25.8711 24.3086L25.8468 24.3628L25.822 24.4167L25.7966 24.4704L25.7705 24.5241L25.7439 24.5774L25.7167 24.6306L25.6888 24.6836L25.6604 24.7364L25.6314 24.7889L25.6018 24.8413L25.5717 24.8934L25.5408 24.9453L25.5096 24.9968L25.4776 25.0483L25.4451 25.0994L25.412 25.1502L25.3783 25.2008L25.3441 25.2511L25.3093 25.3012L25.2739 25.3509L25.2379 25.4004L25.2015 25.4495L25.1644 25.4984L25.1267 25.5469L25.0886 25.5952L25.0498 25.6431L25.0106 25.6906L24.9707 25.7379L24.9304 25.7848L24.8894 25.8314L24.8479 25.8775L24.8059 25.9234L24.7634 25.9689L24.7204 26.014L24.6767 26.0588L24.6327 26.1032L24.588 26.1471L24.5429 26.1907L24.4972 26.2339L24.451 26.2766L24.4044 26.319L24.3572 26.361L24.3096 26.4025L24.2614 26.4436L24.2127 26.4843L24.1636 26.5245L24.1139 26.5644L24.0638 26.6036L24.0133 26.6425L23.9623 26.681L23.9107 26.719L23.8588 26.7564L23.8064 26.7934L23.7536 26.8301L23.7002 26.8661L23.6465 26.9017L23.5923 26.9367L23.5377 26.9714L23.4826 27.0054L23.4271 27.039L23.3712 27.072L23.3149 27.1045L23.2582 27.1365L23.201 27.168L23.1436 27.199L23.0857 27.2294L23.0274 27.2593L22.9687 27.2885L22.9097 27.3174L22.8502 27.3455L22.7904 27.3732L22.7303 27.4003L22.6697 27.4267L22.6089 27.4527L22.5477 27.4781L22.4862 27.5028L22.4243 27.527L22.3621 27.5506L22.2996 27.5736L22.2367 27.5961L22.1737 27.6179L22.1102 27.6391L22.0465 27.6597L21.9825 27.6796L21.9182 27.699L21.8536 27.7178L21.7887 27.7359L21.7237 27.7534L21.6583 27.7703L21.5927 27.7865L21.5267 27.8021L21.4607 27.8171L21.3943 27.8314L21.3277 27.8451L21.2609 27.8581L21.1939 27.8704L21.1267 27.8822L21.0593 27.8933L20.9917 27.9036L20.9239 27.9134L20.856 27.9224L20.7878 27.9309L20.7196 27.9386L20.6511 27.9456L20.5825 27.9521L20.5137 27.9577L20.4448 27.9628L20.3757 27.9671L20.3067 27.9708L20.2374 27.9738L20.168 27.9761L20.0985 27.9776L20.0289 27.9785L19.9593 27.9788L19.8896 27.9784L19.8197 27.9772L19.7498 27.9753L19.6799 27.9727L19.6099 27.9694L19.5398 27.9654L19.4697 27.9608L19.3997 27.9554L19.3296 27.9494L19.2594 27.9425L19.1893 27.9351L19.1191 27.9268L19.049 27.9179L18.9788 27.9083L18.9087 27.898L18.8387 27.8869L18.7687 27.8752L18.6987 27.8627L18.6287 27.8495L18.5588 27.8357L18.489 27.8211L18.4193 27.8058L18.3497 27.7897L18.2801 27.773L18.2106 27.7556L18.1412 27.7374L18.072 27.7185L18.0028 27.699L17.9339 27.6787L17.865 27.6577L17.7963 27.636L17.7277 27.6136L17.6593 27.5905L17.5911 27.5667L17.523 27.5422L17.4551 27.5169L17.3875 27.491L17.3199 27.4644L17.2527 27.437L17.1856 27.409L17.1187 27.3803L17.0521 27.3508L16.9857 27.3207L16.9196 27.2899L16.8536 27.2584L16.7879 27.2262L16.7226 27.1933L16.6575 27.1597L16.5927 27.1254L16.5281 27.0905L16.4638 27.0549L16.3999 27.0186L16.3362 26.9816L16.2729 26.944L16.2099 26.9057L16.1473 26.8667L16.0849 26.8271L16.0229 26.7868L15.9613 26.7458L15.9 26.7042L15.8392 26.6619L15.7787 26.619L15.7185 26.5754L15.6587 26.5312L15.5994 26.4864L15.5405 26.4409L15.4819 26.3947L15.4238 26.348L15.3661 26.3006L15.3088 26.2526L15.252 26.204L15.1957 26.1547L15.1397 26.1049L15.0843 26.0544L15.0293 26.0034L14.9747 25.9517L14.9207 25.8994L14.8671 25.8466L14.8141 25.7932L14.7616 25.7392L14.7095 25.6845L14.6579 25.6294L14.6069 25.5736L14.5565 25.5174L14.5065 25.4605L14.4571 25.4031L14.4082 25.3452L14.3598 25.2866L14.3121 25.2275L14.2649 25.168L14.2183 25.1079L14.1722 25.0473L14.1267 24.9861L14.0819 24.9244L14.0377 24.8623L13.9939 24.7995L13.9508 24.7364L13.9084 24.6727L13.8666 24.6085L13.8254 24.5439L13.7847 24.4788L13.7448 24.4133L13.7055 24.3472L13.6668 24.2807L13.6288 24.2137L13.5915 24.1464L13.5547 24.0785L13.5187 24.0103L13.4834 23.9415L13.4487 23.8724L13.4147 23.803L13.3814 23.733L13.3487 23.6627L13.3168 23.592L13.2857 23.5209L13.2551 23.4494L13.2253 23.3775L13.1962 23.3053L13.1678 23.2327L13.1402 23.1597L13.1134 23.0864L13.0872 23.0128L13.0617 22.9389L13.037 22.8646L13.0131 22.79L12.9899 22.7151L12.9675 22.6399L12.9457 22.5644L12.9248 22.4885L12.9047 22.4124L12.8853 22.3361L12.8667 22.2594L12.8489 22.1826L12.8318 22.1054L12.8156 22.0281L12.8001 21.9504L12.7854 21.8726L12.7715 21.7945L12.7584 21.7163L12.7461 21.6378L12.7346 21.5591L12.7238 21.4803L12.714 21.4012L12.7049 21.322L12.6967 21.2425L12.6892 21.163L12.6826 21.0833L12.6767 21.0034L12.6717 20.9234L12.6676 20.8434L12.6642 20.7632L12.6617 20.6828L12.66 20.6024L12.6592 20.5219L12.6591 20.4413L12.6599 20.3605L12.6617 20.2798L12.6641 20.199L12.6675 20.1181L12.6717 20.0372L12.6767 19.9563L12.6825 19.8753L12.6892 19.7943L12.6967 19.7133L12.7051 19.6323L12.7144 19.5513L12.7245 19.4703L12.7354 19.3894L12.7472 19.3084L12.7598 19.2275L12.7734 19.1467L12.7877 19.0659L12.8028 18.9852L12.8189 18.9045L12.8358 18.824L12.8536 18.7435L12.8721 18.6632L12.8916 18.583L12.9118 18.5028L12.933 18.4228L12.955 18.343L12.9778 18.2633L13.0015 18.1836L13.026 18.1043L13.0514 18.025L13.0776 17.9459L13.1047 17.8671L13.1326 17.7884L13.1613 17.7099L13.1908 17.6316L13.2213 17.5536L13.2526 17.4758L13.2847 17.3982L13.3176 17.3209L13.3513 17.2438L13.3859 17.167L13.4213 17.0904L13.4576 17.0142L13.4946 16.9383L13.5325 16.8625L13.5711 16.7872L13.6107 16.7122L13.6509 16.6374L13.6921 16.5631L13.734 16.489L13.7767 16.4153L13.8203 16.342L13.8647 16.269L13.9097 16.1964L13.9557 16.1242L14.0025 16.0523L14.0499 15.9808L14.0982 15.9098L14.1473 15.8392L14.1971 15.769L14.2477 15.6993L14.2991 15.6299L14.3512 15.561L14.4041 15.4926L14.4577 15.4246L14.5122 15.3572L14.5674 15.2901L14.6232 15.2236L14.6798 15.1575L14.7372 15.092L14.7953 15.027L14.8541 14.9624L14.9137 14.8985L14.9739 14.8351L15.0349 14.7722L15.0966 14.7098L15.1589 14.648L15.222 14.5867L15.2857 14.5261L15.3502 14.466L15.4153 14.4064L15.481 14.3475L15.5475 14.2892L15.6147 14.2315L15.6824 14.1744L15.7508 14.1179L15.8198 14.0621L15.8896 14.0068L15.9598 13.9523L16.0308 13.8984L16.1024 13.8451L16.1746 13.7924L16.2474 13.7405L16.3207 13.6893L16.3947 13.6386L16.4694 13.5887L16.5445 13.5395L16.6202 13.4911L16.6966 13.4433L16.7734 13.3962L16.8508 13.3498L16.9287 13.3042L17.0073 13.2593L17.0863 13.2151L17.1658 13.1716L17.2459 13.129L17.3265 13.0871L17.4076 13.0459L17.4891 13.0055L17.5712 12.9659L17.6537 12.9271L17.7367 12.889L17.8202 12.8517L17.9041 12.8153L17.9886 12.7795L18.0734 12.7446L18.1586 12.7106L18.2443 12.6774L18.3304 12.6449L18.4168 12.6133L18.5037 12.5825L18.5911 12.5525L18.6787 12.5234L18.7668 12.4952L18.8552 12.4677L18.944 12.4412L19.0331 12.4154L19.1226 12.3906L19.2124 12.3666L19.3025 12.3434L19.3929 12.3212L19.4837 12.2998L19.5747 12.2794L19.666 12.2597L19.7577 12.241L19.8495 12.2232L19.8956 12.2146ZM21.0246 18.8149L19.9767 19.0653L19.9152 13.8748L19.8658 13.8859L19.7915 13.9034L19.7172 13.9217L19.6435 13.9406L19.5698 13.9603L19.4967 13.9806L19.4235 14.0018L19.351 14.0234L19.2784 14.046L19.2067 14.069L19.1347 14.0929L19.0633 14.1174L18.9922 14.1426L18.9214 14.1684L18.8512 14.1949L18.7811 14.2222L18.7114 14.25L18.6421 14.2784L18.5729 14.3077L18.5047 14.3374L18.4364 14.3679L18.3687 14.3989L18.3012 14.4307L18.2343 14.463L18.1676 14.496L18.1016 14.5295L18.0358 14.5637L17.9706 14.5985L17.9057 14.6339L17.8413 14.6699L17.7773 14.7065L17.714 14.7436L17.6507 14.7815L17.5881 14.8198L17.5261 14.8587L17.4645 14.8982L17.4032 14.9383L17.3426 14.9789L17.2824 15.0201L17.2227 15.0617L17.1636 15.1039L17.1047 15.1467L17.0466 15.1901L16.9889 15.2339L16.9317 15.2783L16.8752 15.323L16.8192 15.3684L16.7636 15.4143L16.7085 15.4607L16.6541 15.5074L16.6002 15.5548L16.5468 15.6025L16.494 15.6508L16.4417 15.6996L16.3901 15.7488L16.339 15.7984L16.2884 15.8485L16.2385 15.899L16.1891 15.95L16.1404 16.0013L16.092 16.0533L16.0445 16.1054L15.9975 16.158L15.951 16.2111L15.9053 16.2644L15.86 16.3183L15.8156 16.3723L15.7715 16.427L15.7282 16.4818L15.6854 16.5372L15.6433 16.5929L15.6018 16.6488L15.5609 16.7051L15.5207 16.7617L15.4811 16.8188L15.4421 16.8761L15.4038 16.9338L15.3662 16.9916L15.3292 17.0498L15.2927 17.1084L15.2571 17.1672L15.2219 17.2264L15.1876 17.2856L15.1537 17.3454L15.1206 17.4053L15.0882 17.4654L15.0564 17.5257L15.0253 17.5864L14.9947 17.6474L14.965 17.7083L14.9358 17.7697L14.9074 17.8312L14.8797 17.8929L14.8525 17.9548L14.826 18.017L14.8003 18.0792L14.7752 18.1417L14.7508 18.2044L14.727 18.2672L14.704 18.33L14.6817 18.3932L14.6599 18.4564L14.6389 18.5198L14.6186 18.5833L14.5989 18.647L14.5799 18.7107L14.5617 18.7744L14.5441 18.8384L14.5271 18.9025L14.5109 18.9666L14.4954 19.0308L14.4805 19.0951L14.4663 19.1594L14.4528 19.2239L14.44 19.2883L14.4278 19.3527L14.4164 19.4174L14.4057 19.4818L14.3956 19.5464L14.3861 19.6111L14.3774 19.6755L14.3694 19.7403L14.362 19.8047L14.3553 19.8694L14.3493 19.9341L14.3439 19.9985L14.3393 20.0631L14.3353 20.1276L14.3319 20.192L14.3293 20.2564L14.3273 20.3206L14.326 20.385L14.3253 20.4492L14.3254 20.5133L14.326 20.5773L14.3274 20.6413L14.3294 20.7051L14.332 20.7688L14.3353 20.8324L14.3393 20.8959L14.3439 20.9593L14.3492 21.0225L14.3551 21.0856L14.3617 21.1487L14.3688 21.2114L14.3767 21.2742L14.3851 21.3365L14.3943 21.399L14.404 21.4611L14.4144 21.5231L14.4254 21.585L14.437 21.6465L14.4493 21.708L14.4621 21.7691L14.4757 21.8302L14.4897 21.8909L14.5045 21.9515L14.5197 22.0117L14.5357 22.072L14.5522 22.1317L14.5693 22.1914L14.587 22.2507L14.6053 22.3099L14.6242 22.3687L14.6437 22.4272L14.6637 22.4856L14.6844 22.5436L14.7056 22.6013L14.7273 22.6588L14.7497 22.716L14.7726 22.7728L14.796 22.8294L14.8199 22.8855L14.8446 22.9415L14.8697 22.9972L14.8953 23.0524L14.9215 23.1074L14.9481 23.1619L14.9755 23.2164L15.0031 23.2702L15.0314 23.3237L15.0602 23.377L15.0896 23.4298L15.1194 23.4824L15.1497 23.5345L15.1805 23.5862L15.2118 23.6376L15.2436 23.6886L15.2758 23.7392L15.3087 23.7894L15.3418 23.8393L15.3756 23.8888L15.4097 23.9376L15.4443 23.9864L15.4794 24.0345L15.5148 24.0823L15.5509 24.1297L15.5873 24.1766L15.6241 24.2231L15.6614 24.2692L15.6991 24.3149L15.7371 24.36L15.7757 24.4048L15.8147 24.4492L15.8539 24.493L15.8938 24.5364L15.9338 24.5793L15.9744 24.6219L16.0153 24.6639L16.0565 24.7054L16.0982 24.7465L16.1402 24.7872L16.1826 24.8274L16.2253 24.867L16.2684 24.9062L16.3118 24.9449L16.3556 24.9831L16.3997 25.0208L16.444 25.0581L16.4887 25.0948L16.5338 25.1311L16.5793 25.1668L16.6248 25.202L16.6708 25.2367L16.7171 25.271L16.7637 25.3047L16.8105 25.3379L16.8576 25.3706L16.9049 25.4028L16.9526 25.4344L17.0004 25.4655L17.0485 25.4962L17.097 25.5264L17.1456 25.5558L17.1944 25.5849L17.2436 25.6134L17.2927 25.6414L17.3422 25.6688L17.3921 25.6958L17.442 25.7222L17.4921 25.748L17.5424 25.7733L17.593 25.7981L17.6436 25.8223L17.6946 25.846L17.7456 25.8692L17.7967 25.8917L17.8481 25.9138L17.8997 25.9354L17.9512 25.9564L18.003 25.9768L18.0549 25.9966L18.1071 26.016L18.1591 26.0348L18.2116 26.0531L18.2638 26.0707L18.3163 26.0879L18.3689 26.1045L18.4217 26.1206L18.4744 26.1361L18.5272 26.1511L18.5802 26.1654L18.6332 26.1794L18.6862 26.1926L18.7393 26.2054L18.7924 26.2176L18.8456 26.2293L18.8988 26.2404L18.9521 26.251L19.0054 26.2611L19.0587 26.2705L19.112 26.2795L19.1654 26.2879L19.2187 26.2958L19.2719 26.3031L19.3253 26.3098L19.3786 26.3161L19.4319 26.3218L19.4852 26.3269L19.5385 26.3315L19.5917 26.3356L19.6447 26.3392L19.6979 26.3422L19.7509 26.3446L19.8038 26.3466L19.8569 26.348L19.9097 26.3489L19.9624 26.3493L20.0151 26.3491L20.0677 26.3484L20.1203 26.3472L20.1727 26.3454L20.2249 26.3433L20.2771 26.3404L20.3294 26.3372L20.3812 26.3334L20.4331 26.3291L20.4847 26.3243L20.5364 26.319L20.5878 26.3131L20.639 26.3068L20.6903 26.3L20.7412 26.2926L20.7919 26.2848L20.8427 26.2765L20.8932 26.2677L20.9435 26.2584L20.9937 26.2486L21.0437 26.2384L21.0933 26.2276L21.1427 26.2164L21.1922 26.2047L21.2414 26.1925L21.2903 26.18L21.339 26.1669L21.3875 26.1534L21.4359 26.1393L21.4839 26.1248L21.5316 26.1099L21.5794 26.0944L21.6267 26.0786L21.6737 26.0624L21.7206 26.0457L21.7671 26.0285L21.8136 26.0109L21.8597 25.9929L21.9054 25.9744L21.9509 25.9556L21.9962 25.9363L22.0413 25.9165L22.0858 25.8964L22.1304 25.8759L22.1745 25.855L22.2182 25.8336L22.2618 25.8119L22.3049 25.7898L22.3479 25.7673L22.3906 25.7443L22.4328 25.721L22.4747 25.6974L22.5165 25.6733L22.5578 25.6488L22.5987 25.624L22.6394 25.5988L22.6797 25.5733L22.7197 25.5474L22.7595 25.5212L22.7987 25.4946L22.8377 25.4676L22.8764 25.4404L22.9146 25.4128L22.9525 25.3848L22.99 25.3565L23.0272 25.3279L23.064 25.299L23.1006 25.2697L23.1366 25.2403L23.1723 25.2104L23.2076 25.1803L23.2425 25.1498L23.2771 25.1191L23.3113 25.088L23.3451 25.0567L23.3784 25.0252L23.4115 24.9933L23.4441 24.9611L23.4764 24.9287L23.5082 24.8961L23.5396 24.8631L23.5706 24.83L23.6013 24.7964L23.6314 24.7629L23.6613 24.7289L23.6907 24.6947L23.7196 24.6604L23.7483 24.6257L23.7763 24.591L23.8041 24.5559L23.8315 24.5207L23.8583 24.4853L23.8848 24.4495L23.9108 24.4138L23.9365 24.3776L23.9617 24.3414L23.9865 24.3051L24.0108 24.2684L24.0348 24.2316L24.0582 24.1947L24.0813 24.1576L24.1039 24.1204L24.1261 24.0829L24.1479 24.0454L24.1692 24.0076L24.1901 23.9698L24.2106 23.9317L24.2306 23.8937L24.2501 23.8554L24.2693 23.8171L24.288 23.7786L24.3063 23.7399L24.3241 23.7013L24.3415 23.6624L24.3584 23.6236L24.3749 23.5845L24.3909 23.5455L24.4067 23.5062L24.4217 23.4672L24.4366 23.4275L24.4507 23.3885L24.4647 23.3489L24.4781 23.3093L24.491 23.2698L24.5036 23.2302L24.5157 23.1906L24.5274 23.1506L24.5385 23.1112L24.5494 23.0711L24.5597 23.0316L24.5696 22.9916L24.579 22.9516L24.588 22.9119L24.5966 22.8723L24.6047 22.8321L24.6125 22.7924L24.6197 22.7523L24.6266 22.7126L24.633 22.6728L24.639 22.6329L24.6446 22.593L24.6497 22.5532L24.6544 22.5135L24.6587 22.474L24.6625 22.4341L24.6659 22.3945L24.6689 22.3549L24.6715 22.3154L24.6737 22.2759L24.6754 22.2365L24.6767 22.1974L24.6776 22.1579L24.6781 22.1185L24.6782 22.0795L24.6778 22.0405L24.6771 22.0016L24.6759 21.9628L24.6744 21.9238L24.6724 21.8855L24.67 21.8464L24.6673 21.8084L24.6641 21.7701L24.6606 21.7315L24.6566 21.6934L24.6523 21.6557L24.6475 21.6174L24.6424 21.58L24.6368 21.5423L24.631 21.5051L24.6247 21.4675L24.618 21.4303L24.611 21.3934L24.6037 21.3565L24.5958 21.3196L24.5877 21.2832L24.5792 21.2467L24.5703 21.2105L24.5611 21.1746L24.5514 21.1384L24.5416 21.103L24.5312 21.0672L24.5206 21.032L24.5096 20.9968L24.4982 20.9619L24.4865 20.9271L24.4744 20.8924L24.4621 20.8582L24.4494 20.8241L24.4363 20.7899L24.4229 20.7563L24.4092 20.7224L24.3953 20.6894L24.3808 20.6561L24.3663 20.6233L24.3513 20.5907L24.336 20.5582L24.3205 20.526L24.3046 20.494L24.2884 20.4622L24.2719 20.4307L24.2551 20.3994L24.2381 20.3684L24.2207 20.3376L24.203 20.3071L24.1852 20.2768L24.167 20.2468L24.1485 20.2169L24.1297 20.1875L24.1107 20.1583L24.0915 20.1293L24.0719 20.1004L24.0522 20.0721L24.0321 20.0438L24.0118 20.0159L23.9913 19.9883L23.9705 19.9609L23.9496 19.9338L23.9282 19.9069L23.9067 19.8804L23.885 19.8542L23.8631 19.8282L23.8409 19.8024L23.8187 19.7771L23.796 19.752L23.7732 19.7272L23.7502 19.7025L23.727 19.6784L23.7036 19.6544L23.6799 19.6307L23.6562 19.6074L23.6322 19.5844L23.6081 19.5617L23.5836 19.5392L23.5592 19.5171L23.5345 19.4952L23.5097 19.4737L23.4846 19.4524L23.4594 19.4316L23.434 19.411L23.4086 19.3907L23.3829 19.3707L23.3571 19.351L23.3312 19.3317L23.3051 19.3126L23.2788 19.2939L23.2526 19.2755L23.2261 19.2574L23.1996 19.2396L23.1728 19.2222L23.1459 19.205L23.1191 19.1882L23.0919 19.1716L23.0648 19.1554L23.0377 19.1396L23.0103 19.1241L22.9827 19.1088L22.9553 19.0939L22.9277 19.0793L22.9 19.065L22.8724 19.0511L22.8444 19.0374L22.8166 19.0241L22.7886 19.0112L22.7606 18.9984L22.7325 18.9861L22.7042 18.974L22.6762 18.9624L22.6478 18.951L22.6195 18.9399L22.5912 18.9292L22.5628 18.9187L22.5345 18.9086L22.506 18.8988L22.4776 18.8893L22.4492 18.8802L22.4207 18.8713L22.3921 18.8627L22.3637 18.8545L22.335 18.8466L22.3067 18.8391L22.2781 18.8318L22.2496 18.8248L22.221 18.8182L22.1926 18.8118L22.164 18.8058L22.1356 18.8001L22.1072 18.7946L22.0788 18.7895L22.0503 18.7847L22.0221 18.7803L21.9936 18.7761L21.9655 18.7722L21.9371 18.7685L21.9089 18.7653L21.8809 18.7623L21.8527 18.7596L21.8247 18.7572L21.7967 18.7551L21.7688 18.7533L21.7409 18.7517L21.7131 18.7505L21.6856 18.7496L21.6578 18.7489L21.6303 18.7485L21.6027 18.7484L21.5754 18.7487L21.548 18.7492L21.5208 18.7499L21.4937 18.751L21.4667 18.7523L21.4397 18.7539L21.4129 18.7557L21.3862 18.7578L21.3596 18.7603L21.3331 18.7629L21.3066 18.7658L21.2804 18.769L21.2542 18.7724L21.2282 18.7762L21.2022 18.7802L21.1765 18.7844L21.1507 18.7888L21.1254 18.7935L21.0998 18.7985L21.0747 18.8037L21.0495 18.8092L21.0246 18.8149Z" fill="#7C7C7C"/>
</svg>
