<svg width="158" height="40" viewBox="0 0 158 40" fill="none" xmlns="http://www.w3.org/2000/svg">
<path d="M18.3531 7.82352V2.82352H2.58838V37.1765H18.3531V32.1765C15.1237 32.1765 12.0265 30.8935 9.74301 28.61C7.45949 26.3265 6.17661 23.2294 6.17661 20C6.17661 16.7706 7.45949 13.6734 9.74301 11.3899C12.0265 9.1064 15.1237 7.82352 18.3531 7.82352Z" fill="#7C7C7C"/>
<path d="M18.353 7.82352V32.1765C21.5824 32.1765 24.6796 30.8935 26.9631 28.61C29.2467 26.3265 30.5295 23.2294 30.5295 20C30.5295 16.7706 29.2467 13.6734 26.9631 11.3899C24.6796 9.1064 21.5824 7.82352 18.353 7.82352Z" fill="#7C7C7C"/>
<path d="M39.3765 10.8824H42.9059V27.8824H39.3765V10.8824Z" fill="#7C7C7C"/>
<path d="M44.8824 22.0588C44.8824 20.8358 45.2456 19.6402 45.9258 18.6238C46.606 17.6073 47.5727 16.8156 48.7034 16.3492C49.8342 15.8828 51.0778 15.7626 52.2769 16.0038C53.4759 16.2449 54.5764 16.8367 55.4387 17.704C56.3011 18.5714 56.8866 19.6752 57.121 20.8756C57.3552 22.0761 57.2279 23.3191 56.755 24.4471C56.282 25.5749 55.485 26.5372 54.4646 27.2115C53.4443 27.886 52.2466 28.2422 51.0236 28.2353C50.2124 28.2416 49.408 28.086 48.6578 27.7773C47.9076 27.4687 47.2264 27.0134 46.6544 26.4382C46.0824 25.8629 45.6311 25.1792 45.3267 24.4272C45.0225 23.6752 44.8714 22.87 44.8824 22.0588ZM53.7295 22.0588C53.7156 21.5315 53.5465 21.02 53.2434 20.5883C52.9404 20.1566 52.5169 19.8238 52.0256 19.6315C51.5344 19.4393 50.9975 19.3961 50.4819 19.5075C49.9663 19.6188 49.495 19.8796 49.1269 20.2575C48.7587 20.6353 48.5102 21.1132 48.4123 21.6315C48.3144 22.1499 48.3714 22.6855 48.5764 23.1715C48.7813 23.6575 49.125 24.0725 49.5645 24.3641C50.0039 24.6559 50.5196 24.8115 51.0471 24.8118C51.4063 24.8188 51.763 24.7516 52.095 24.6145C52.427 24.4774 52.7271 24.2733 52.9766 24.0149C53.2262 23.7566 53.4197 23.4494 53.5452 23.1129C53.6707 22.7763 53.7254 22.4175 53.7059 22.0588H53.7295Z" fill="#7C7C7C"/>
<path d="M71.1294 16.2353V27.3059C71.1294 31.2118 68.0706 32.8706 64.9764 32.8706C63.885 32.9601 62.7903 32.7433 61.8156 32.2445C60.8408 31.7456 60.0246 30.9846 59.4588 30.0471L62.4353 28.3294C62.6764 28.8158 63.0601 29.2169 63.5351 29.4796C64.0102 29.7423 64.554 29.8541 65.0941 29.8C65.4382 29.8423 65.7874 29.8082 66.1167 29.7C66.4461 29.5916 66.7474 29.412 66.9991 29.1736C67.251 28.9353 67.447 28.6443 67.5733 28.3214C67.6995 27.9986 67.7528 27.6518 67.7294 27.3059V26.2353C67.3187 26.7333 66.7975 27.1286 66.2074 27.39C65.6171 27.6514 64.9742 27.7716 64.3294 27.7412C62.7693 27.7412 61.2731 27.1214 60.17 26.0182C59.0668 24.9152 58.447 23.4189 58.447 21.8588C58.447 20.2987 59.0668 18.8026 60.17 17.6994C61.2731 16.5962 62.7693 15.9765 64.3294 15.9765C64.9742 15.946 65.6171 16.0662 66.2074 16.3276C66.7975 16.5891 67.3187 16.9843 67.7294 17.4823V16.3059L71.1294 16.2353ZM67.7294 21.8235C67.7528 21.2607 67.6074 20.7036 67.3117 20.2241C67.0161 19.7446 66.5838 19.3645 66.0703 19.1326C65.5569 18.9007 64.986 18.8278 64.4307 18.9231C63.8755 19.0183 63.3614 19.2775 62.9547 19.6673C62.548 20.057 62.2671 20.5596 62.1483 21.1103C62.0295 21.6611 62.0781 22.2346 62.2878 22.7574C62.4977 23.2802 62.8591 23.7283 63.3256 24.0441C63.7922 24.3599 64.3426 24.5289 64.9058 24.5294C65.2735 24.5559 65.6426 24.5049 65.9891 24.38C66.3358 24.2549 66.6526 24.0586 66.9186 23.8035C67.1847 23.5486 67.3943 23.2406 67.534 22.8995C67.6736 22.5585 67.7402 22.1919 67.7294 21.8235Z" fill="#7C7C7C"/>
<path d="M73.1176 22.0588C73.1176 20.8367 73.4802 19.6421 74.1594 18.6261C74.8385 17.6101 75.8038 16.8185 76.9331 16.3514C78.0624 15.8842 79.3049 15.7626 80.5034 16.0019C81.7018 16.2412 82.8023 16.8306 83.6657 17.6955C84.529 18.5606 85.1163 19.6622 85.3532 20.8611C85.5903 22.06 85.4663 23.3022 84.997 24.4306C84.5277 25.5591 83.7342 26.5228 82.717 27.2001C81.6997 27.8774 80.5044 28.2376 79.2823 28.2353C78.4696 28.2432 77.6634 28.0887 76.9111 27.7809C76.1589 27.4732 75.4756 27.0183 74.9015 26.4431C74.3272 25.8678 73.8737 25.1836 73.5674 24.4308C73.2611 23.678 73.1082 22.8715 73.1176 22.0588ZM81.9647 22.0588C81.9508 21.5311 81.7814 21.0191 81.4778 20.5871C81.1743 20.1552 80.7499 19.8223 80.2581 19.6305C79.7662 19.4386 79.2287 19.3961 78.7128 19.5085C78.1969 19.6207 77.7256 19.8828 77.358 20.2618C76.9903 20.6407 76.7427 21.1198 76.6462 21.6388C76.5496 22.1579 76.6083 22.6939 76.815 23.1796C77.0217 23.6655 77.3672 24.0795 77.8083 24.3699C78.2492 24.6601 78.7661 24.8139 79.2941 24.8118C79.6532 24.8188 80.01 24.7516 80.342 24.6145C80.674 24.4774 80.9741 24.2733 81.2236 24.0149C81.4731 23.7566 81.6667 23.4494 81.7922 23.1129C81.9177 22.7763 81.9724 22.4175 81.9529 22.0588H81.9647Z" fill="#7C7C7C"/>
<path d="M87.0825 13.1176C87.0825 12.7035 87.2053 12.2986 87.4355 11.9542C87.6656 11.6098 87.9926 11.3414 88.3752 11.1829C88.7579 11.0244 89.179 10.983 89.5852 11.0638C89.9913 11.1446 90.3645 11.344 90.6575 11.6369C90.9503 11.9298 91.1497 12.3029 91.2305 12.7091C91.3113 13.1153 91.2698 13.5364 91.1113 13.9191C90.9529 14.3016 90.6844 14.6287 90.34 14.8588C89.9957 15.0889 89.5909 15.2118 89.1766 15.2118C88.6231 15.2056 88.094 14.9831 87.7026 14.5916C87.3112 14.2002 87.0886 13.6712 87.0825 13.1176ZM87.4237 16.2353H90.9531V27.8824H87.4237V16.2353Z" fill="#7C7C7C"/>
<path d="M106.059 22.0588C106.098 22.8334 105.984 23.6082 105.723 24.3386C105.462 25.0689 105.059 25.7405 104.538 26.3145C104.016 26.8886 103.386 27.3538 102.684 27.6834C101.982 28.0131 101.222 28.2006 100.447 28.2353C99.7895 28.2791 99.1305 28.1738 98.5195 27.9273C97.9083 27.6807 97.3608 27.2994 96.9176 26.8118V32.5647H93.3882V16.2353H96.9176V17.3294C97.3614 16.8432 97.9094 16.4636 98.5205 16.2192C99.1317 15.9746 99.7903 15.8715 100.447 15.9176C101.219 15.9523 101.976 16.1388 102.676 16.4662C103.375 16.7936 104.004 17.2558 104.525 17.826C105.046 18.3962 105.45 19.0635 105.713 19.7899C105.976 20.5161 106.094 21.2871 106.059 22.0588ZM102.529 22.0588C102.515 21.5123 102.341 20.9822 102.027 20.5348C101.713 20.0874 101.274 19.7425 100.765 19.5435C100.256 19.3445 99.6991 19.3002 99.1649 19.4161C98.6308 19.532 98.1428 19.8031 97.7619 20.1952C97.3811 20.5873 97.1245 21.0831 97.0244 21.6205C96.9242 22.1578 96.9848 22.7127 97.1987 23.2158C97.4125 23.7187 97.7701 24.1474 98.2265 24.4481C98.683 24.7488 99.2181 24.908 99.7647 24.9059C100.139 24.9218 100.513 24.8584 100.861 24.7198C101.209 24.5812 101.524 24.3706 101.785 24.1018C102.046 23.8329 102.247 23.5119 102.375 23.1599C102.504 22.8078 102.556 22.4326 102.529 22.0588Z" fill="#7C7C7C"/>
<path d="M116.8 24.3882C116.8 27.0706 114.447 28.2118 111.953 28.2118C110.936 28.3033 109.914 28.0877 109.021 27.5927C108.128 27.0978 107.403 26.3462 106.941 25.4353L109.976 23.7177C110.097 24.1374 110.357 24.5032 110.715 24.7538C111.073 25.0044 111.506 25.1245 111.941 25.0941C112.776 25.0941 113.2 24.8353 113.2 24.3647C113.2 23.0824 107.471 23.7647 107.471 19.7294C107.471 17.1882 109.612 15.9177 112.035 15.9177C112.956 15.8764 113.872 16.0854 114.684 16.5225C115.496 16.9595 116.174 17.6084 116.647 18.4L113.612 20C113.478 19.6965 113.259 19.4384 112.981 19.2567C112.703 19.0751 112.379 18.9778 112.047 18.9765C111.435 18.9765 111.071 19.2118 111.071 19.6235C111.071 20.9647 116.8 20.0824 116.8 24.3882Z" fill="#7C7C7C"/>
<path d="M129.588 16.2353V27.8824H126.059V26.7882C125.658 27.2726 125.148 27.6558 124.573 27.9072C123.996 28.1586 123.369 28.2709 122.741 28.2353C120.388 28.2353 118.376 26.5529 118.376 23.4118V16.2353H121.906V22.8824C121.878 23.1602 121.911 23.4408 122.002 23.7048C122.094 23.9687 122.241 24.2096 122.434 24.4111C122.628 24.6123 122.864 24.7693 123.124 24.8711C123.384 24.9727 123.662 25.0167 123.941 25C125.212 25 126.106 24.2471 126.106 22.6471V16.2353H129.588Z" fill="#7C7C7C"/>
<path d="M149.588 20.7294V27.8824H146.059V21.0353C146.059 19.8588 145.506 19.1294 144.388 19.1294C143.271 19.1294 142.565 19.9412 142.565 21.3176V27.8824H139.035V21.0353C139.035 19.8588 138.482 19.1294 137.365 19.1294C136.247 19.1294 135.541 19.9412 135.541 21.3176V27.8824H132.012V16.2353H135.541V17.3059C135.907 16.8329 136.383 16.4584 136.931 16.216C137.476 15.9736 138.075 15.8711 138.671 15.9176C139.267 15.8865 139.862 16.0112 140.396 16.2793C140.931 16.5474 141.386 16.9499 141.718 17.4471C142.106 16.9275 142.619 16.5148 143.209 16.2474C143.799 15.9799 144.448 15.8665 145.094 15.9176C147.847 15.9176 149.588 17.8235 149.588 20.7294Z" fill="#7C7C7C"/>
<path d="M152.553 16.1647C153.982 16.1647 155.141 15.0059 155.141 13.5765C155.141 12.147 153.982 10.9882 152.553 10.9882C151.124 10.9882 149.965 12.147 149.965 13.5765C149.965 15.0059 151.124 16.1647 152.553 16.1647Z" fill="#7C7C7C"/>
</svg>
