<svg width="156" height="40" viewBox="0 0 156 40" fill="none" xmlns="http://www.w3.org/2000/svg">
<path d="M46.1873 12.5876H49.9373V27.7501H46.1873V12.5876ZM51.4248 22.0251C51.4248 18.2751 53.7248 16.0376 57.2748 16.0376C60.8248 16.0376 63.1248 18.2751 63.1248 22.0251C63.1248 25.7751 60.8748 28.0251 57.2748 28.0251C53.6748 28.0251 51.4248 25.8376 51.4248 22.0251ZM59.3623 22.0251C59.3623 19.9626 58.5498 18.7501 57.2748 18.7501C55.9998 18.7501 55.1998 20.0001 55.1998 22.0251C55.1998 24.0501 55.9873 25.2751 57.2748 25.2751C58.5623 25.2751 59.3623 24.1251 59.3623 22.0376V22.0251ZM64.5373 28.4876H68.1373C68.3086 28.8682 68.5983 29.1834 68.9631 29.3861C69.328 29.5887 69.7486 29.6682 70.1623 29.6126C71.5873 29.6126 72.3373 28.8376 72.3373 27.7126V25.6126H72.2623C71.9635 26.2562 71.4786 26.7955 70.8704 27.161C70.2621 27.5264 69.5583 27.7011 68.8498 27.6626C66.1123 27.6626 64.2998 25.5751 64.2998 21.9876C64.2998 18.4001 66.0248 16.1376 68.8998 16.1376C69.6305 16.109 70.3525 16.3044 70.9691 16.6975C71.5858 17.0907 72.0675 17.663 72.3498 18.3376V16.2501H76.0998V27.6251C76.0998 30.3626 73.6873 32.0626 70.1248 32.0626C66.8123 32.0626 64.7498 30.5751 64.5373 28.5001V28.4876ZM72.3498 22.0126C72.3498 20.1876 71.5123 19.0376 70.1873 19.0376C68.8623 19.0376 68.0498 20.1751 68.0498 22.0126C68.0498 23.8501 68.8498 24.8876 70.1873 24.8876C71.5248 24.8876 72.3498 23.8751 72.3498 22.0251V22.0126ZM77.5123 22.0126C77.5123 18.2626 79.8123 16.0251 83.3623 16.0251C86.9123 16.0251 89.2248 18.2626 89.2248 22.0126C89.2248 25.7626 86.9748 28.0126 83.3623 28.0126C79.7498 28.0126 77.5123 25.8376 77.5123 22.0251V22.0126ZM85.4498 22.0126C85.4498 19.9501 84.6373 18.7376 83.3623 18.7376C82.0873 18.7376 81.3498 20.0001 81.3498 22.0376C81.3498 24.0751 82.1373 25.2876 83.4123 25.2876C84.6873 25.2876 85.4498 24.1251 85.4498 22.0376V22.0126ZM90.6498 13.5251C90.6399 13.1465 90.7428 12.7735 90.9451 12.4534C91.1476 12.1332 91.4405 11.8804 91.7868 11.727C92.133 11.5735 92.517 11.5264 92.8901 11.5914C93.2633 11.6565 93.6086 11.8309 93.8825 12.0925C94.1565 12.3541 94.3465 12.6911 94.4286 13.0609C94.5108 13.4306 94.4813 13.8164 94.3438 14.1694C94.2064 14.5222 93.9673 14.8265 93.6568 15.0434C93.3464 15.2602 92.9784 15.3801 92.5998 15.3876C92.3488 15.4049 92.0969 15.37 91.86 15.2852C91.623 15.2005 91.4063 15.0677 91.2231 14.8951C91.04 14.7226 90.8945 14.514 90.7959 14.2825C90.6971 14.0511 90.6474 13.8017 90.6498 13.5501V13.5251ZM90.6498 16.2751H94.3998V27.7501H90.6498V16.2751ZM108.012 22.0126C108.012 25.7626 106.35 27.9001 103.5 27.9001C102.769 27.947 102.041 27.7684 101.415 27.3884C100.789 27.0082 100.295 26.4451 99.9998 25.7751H99.9248V31.4251H96.1748V16.2501H99.9248V18.3001H99.9998C100.282 17.619 100.766 17.0412 101.388 16.6454C102.01 16.2495 102.738 16.0547 103.475 16.0876C106.35 16.1376 108.062 18.2876 108.062 22.0376L108.012 22.0126ZM104.262 22.0126C104.262 20.1876 103.425 19.0251 102.112 19.0251C100.8 19.0251 99.9623 20.2001 99.9498 22.0126C99.9373 23.8251 100.8 24.9876 102.112 24.9876C103.425 24.9876 104.262 23.8501 104.262 22.0376V22.0126ZM114.45 16.0126C117.562 16.0126 119.45 17.4876 119.537 19.8501H116.125C116.125 19.0376 115.45 18.5251 114.412 18.5251C113.375 18.5251 112.912 18.9251 112.912 19.5126C112.912 20.1001 113.325 20.2876 114.162 20.4626L116.562 20.9501C118.85 21.4376 119.825 22.3626 119.825 24.1001C119.825 26.4751 117.662 28.0001 114.475 28.0001C111.287 28.0001 109.2 26.4751 109.037 24.1376H112.65C112.762 24.9876 113.437 25.4876 114.537 25.4876C115.637 25.4876 116.137 25.1251 116.137 24.5251C116.137 23.9251 115.787 23.8001 114.887 23.6126L112.725 23.1501C110.487 22.6876 109.312 21.5001 109.312 19.7501C109.337 17.5001 111.35 16.0376 114.45 16.0376V16.0126ZM132.337 27.7251H128.725V25.5876H128.65C128.451 26.3052 128.014 26.9334 127.409 27.3677C126.804 27.802 126.069 28.0164 125.325 27.9751C124.755 28.0075 124.185 27.9172 123.653 27.7104C123.121 27.5035 122.64 27.185 122.242 26.7761C121.844 26.3674 121.538 25.8777 121.345 25.3406C121.153 24.8035 121.077 24.2312 121.125 23.6626V16.2501H124.875V22.8001C124.875 24.1626 125.575 24.8876 126.737 24.8876C127.01 24.8881 127.28 24.8305 127.529 24.7184C127.776 24.6062 127.999 24.4422 128.179 24.2375C128.357 24.0326 128.492 23.7917 128.571 23.531C128.65 23.2701 128.674 22.9954 128.637 22.7251V16.2501H132.387L132.337 27.7251ZM134.15 16.2501H137.775V18.4626H137.85C138.049 17.7545 138.477 17.1322 139.067 16.6935C139.657 16.2547 140.377 16.024 141.112 16.0376C141.861 15.9777 142.604 16.2016 143.195 16.6649C143.785 17.1281 144.18 17.7966 144.3 18.5376H144.375C144.601 17.7887 145.071 17.1367 145.71 16.6841C146.347 16.2315 147.118 16.004 147.9 16.0376C148.41 16.0205 148.917 16.1109 149.39 16.3029C149.864 16.4947 150.29 16.7841 150.644 17.1519C150.997 17.5197 151.27 17.9579 151.444 18.4377C151.616 18.9176 151.687 19.4287 151.65 19.9376V27.7501H147.9V20.9376C147.9 19.6876 147.337 19.1126 146.287 19.1126C146.054 19.1106 145.821 19.1589 145.607 19.2541C145.394 19.3494 145.202 19.4894 145.047 19.6647C144.892 19.8401 144.776 20.0466 144.707 20.2705C144.638 20.4945 144.62 20.7305 144.65 20.9626V27.7501H141.087V20.8876C141.087 19.7376 140.525 19.1126 139.5 19.1126C139.263 19.1127 139.029 19.163 138.814 19.2601C138.597 19.3574 138.404 19.4992 138.247 19.6764C138.09 19.8535 137.972 20.062 137.901 20.2881C137.831 20.5141 137.809 20.7525 137.837 20.9876V27.7501H134.087L134.15 16.2501Z" fill="#E0E0E0"/>
<path d="M35.6999 13.2751C35.0637 11.8206 34.2218 10.465 33.1999 9.25011C31.6892 7.40053 29.804 5.89185 27.6682 4.82336C25.5325 3.75488 23.1946 3.15082 20.8086 3.05093C18.4226 2.95105 16.0425 3.3576 13.8249 4.24385C11.6073 5.13008 9.60256 6.47592 7.9426 8.19277C6.28262 9.90961 5.00506 11.9585 4.194 14.2047C3.38294 16.4509 3.05675 18.8434 3.23693 21.2246C3.41711 23.606 4.09955 25.9221 5.23935 28.0206C6.37915 30.1192 7.95046 31.9526 9.84986 33.4001C11.0686 34.3475 12.4153 35.1176 13.8499 35.6876C15.8611 36.5119 18.0137 36.9364 20.1874 36.9376C24.6741 36.9277 28.9739 35.1392 32.1442 31.9642C35.3145 28.7892 37.0966 24.4869 37.0998 20.0001C37.1031 17.6857 36.6265 15.3959 35.6999 13.2751ZM20.1749 6.4876C22.1269 6.4874 24.0552 6.91402 25.8249 7.7376C25.3934 7.92406 24.9396 8.0543 24.4748 8.12511C22.9456 8.34647 21.529 9.05645 20.4363 10.1491C19.3437 11.2417 18.6337 12.6584 18.4123 14.1876C18.3152 15.0452 17.9251 15.8431 17.308 16.4466C16.6909 17.0501 15.8845 17.4221 15.0248 17.5001C13.4956 17.7215 12.0789 18.4315 10.9863 19.5241C9.89371 20.6167 9.18373 22.0334 8.96236 23.5626C8.88741 24.3781 8.53948 25.1445 7.97486 25.7376C7.00068 23.6792 6.56305 21.4077 6.7027 19.1347C6.84235 16.8617 7.55474 14.661 8.77358 12.7372C9.9924 10.8136 11.6781 9.2295 13.6737 8.13241C15.6694 7.03532 17.9101 6.46091 20.1874 6.4626L20.1749 6.4876ZM9.83736 28.7501C9.98736 28.6126 10.1374 28.4876 10.2874 28.3376C11.3994 27.2595 12.1132 25.8362 12.3124 24.3001C12.3931 23.4366 12.7786 22.6301 13.3999 22.0251C13.9977 21.4029 14.8024 21.0205 15.6624 20.9501C17.1916 20.7287 18.6082 20.0187 19.7009 18.9261C20.7935 17.8335 21.5035 16.4169 21.7248 14.8876C21.779 13.9845 22.1665 13.1336 22.8124 12.5001C23.425 11.8899 24.2372 11.5215 25.0998 11.4626C26.5047 11.2693 27.815 10.6447 28.8498 9.67511C30.0282 10.6527 31.0265 11.8287 31.7999 13.1501C31.7524 13.2142 31.6978 13.273 31.6374 13.3251C31.0407 13.9529 30.2371 14.3436 29.3749 14.4251C27.844 14.6426 26.4252 15.3514 25.3319 16.4446C24.2386 17.538 23.5299 18.9567 23.3124 20.4876C23.2242 21.3481 22.8413 22.1517 22.2286 22.7622C21.6157 23.3729 20.8107 23.7527 19.9499 23.8376C18.4161 24.0572 16.9942 24.7659 15.8952 25.858C14.7964 26.9502 14.079 28.3677 13.8499 29.9001C13.7826 30.511 13.5727 31.0976 13.2374 31.6126C11.9549 30.8511 10.8062 29.8841 9.83736 28.7501ZM20.1749 33.5751C18.9065 33.5765 17.6441 33.3997 16.4249 33.0501C16.842 32.2726 17.1131 31.4252 17.2249 30.5501C17.3125 29.6915 17.6936 28.8894 18.3039 28.2791C18.9141 27.6689 19.7162 27.2877 20.5749 27.2001C22.1063 26.9812 23.5259 26.2724 24.621 25.1795C25.716 24.0867 26.4279 22.6686 26.6499 21.1376C26.7375 20.279 27.1186 19.4769 27.7289 18.8666C28.3391 18.2564 29.1412 17.8752 29.9999 17.7876C31.1524 17.6377 32.2509 17.2086 33.1999 16.5376C33.7269 18.535 33.7892 20.6265 33.3824 22.6517C32.9755 24.677 32.11 26.5822 30.8525 28.2211C29.595 29.8599 27.9788 31.189 26.1278 32.1062C24.277 33.0235 22.2406 33.5046 20.1749 33.5126V33.5751Z" fill="#E0E0E0"/>
</svg>
