<svg width="159" height="40" viewBox="0 0 159 40" fill="none" xmlns="http://www.w3.org/2000/svg">
<path d="M18.753 7.82373V2.82373H2.98828V37.1767H18.753V32.1767C15.5236 32.1767 12.4264 30.8937 10.1429 28.6102C7.85939 26.3267 6.57652 23.2296 6.57652 20.0002C6.57652 16.7708 7.85939 13.6736 10.1429 11.3901C12.4264 9.10661 15.5236 7.82373 18.753 7.82373Z" fill="#E0E0E0"/>
<path d="M18.7529 7.82373V32.1767C21.9823 32.1767 25.0795 30.8937 27.363 28.6102C29.6466 26.3267 30.9294 23.2296 30.9294 20.0002C30.9294 16.7708 29.6466 13.6736 27.363 11.3901C25.0795 9.10661 21.9823 7.82373 18.7529 7.82373Z" fill="#E0E0E0"/>
<path d="M39.7764 10.8823H43.3058V27.8823H39.7764V10.8823Z" fill="#E0E0E0"/>
<path d="M45.2823 22.0587C45.2823 20.8356 45.6455 19.6401 46.3257 18.6236C47.0059 17.6071 47.9726 16.8155 49.1033 16.349C50.2341 15.8827 51.4777 15.7624 52.6768 16.0036C53.8758 16.2448 54.9763 16.8365 55.8386 17.7038C56.701 18.5713 57.2865 19.675 57.5209 20.8755C57.7551 22.076 57.6278 23.3189 57.1549 24.4469C56.6819 25.5748 55.8849 26.537 54.8645 27.2114C53.8442 27.8858 52.6465 28.2421 51.4235 28.2351C50.6123 28.2415 49.8079 28.0858 49.0577 27.7771C48.3075 27.4685 47.6263 27.0133 47.0543 26.4381C46.4823 25.8628 46.031 25.179 45.7266 24.427C45.4224 23.675 45.2714 22.8698 45.2823 22.0587ZM54.1294 22.0587C54.1155 21.5314 53.9464 21.0198 53.6434 20.5882C53.3403 20.1564 52.9168 19.8236 52.4255 19.6314C51.9343 19.4391 51.3974 19.396 50.8818 19.5074C50.3662 19.6187 49.8949 19.8795 49.5268 20.2574C49.1586 20.6351 48.9101 21.113 48.8122 21.6314C48.7143 22.1497 48.7714 22.6854 48.9763 23.1714C49.1812 23.6574 49.5249 24.0723 49.9644 24.364C50.4038 24.6557 50.9195 24.8114 51.447 24.8116C51.8062 24.8187 52.1629 24.7515 52.4949 24.6143C52.8269 24.4773 53.127 24.2731 53.3765 24.0148C53.6261 23.7564 53.8196 23.4493 53.9451 23.1128C54.0706 22.7762 54.1254 22.4174 54.1058 22.0587H54.1294Z" fill="#E0E0E0"/>
<path d="M71.5293 16.2351V27.3057C71.5293 31.2116 68.4705 32.8704 65.3763 32.8704C64.2849 32.96 63.1902 32.7431 62.2155 32.2443C61.2407 31.7455 60.4245 30.9844 59.8587 30.0469L62.8352 28.3293C63.0763 28.8156 63.46 29.2168 63.935 29.4795C64.4101 29.7422 64.9539 29.854 65.494 29.7998C65.8381 29.8422 66.1873 29.8081 66.5166 29.6998C66.846 29.5915 67.1473 29.4118 67.399 29.1735C67.6509 28.9351 67.8469 28.6442 67.9732 28.3213C68.0994 27.9984 68.1527 27.6516 68.1293 27.3057V26.2351C67.7186 26.7331 67.1974 27.1284 66.6073 27.3898C66.017 27.6513 65.3741 27.7715 64.7293 27.741C63.1692 27.741 61.673 27.1213 60.5699 26.0181C59.4667 24.915 58.8469 23.4188 58.8469 21.8587C58.8469 20.2985 59.4667 18.8024 60.5699 17.6993C61.673 16.5961 63.1692 15.9763 64.7293 15.9763C65.3741 15.9458 66.017 16.0661 66.6073 16.3275C67.1974 16.5889 67.7186 16.9842 68.1293 17.4822V16.3057L71.5293 16.2351ZM68.1293 21.8234C68.1527 21.2605 68.0073 20.7035 67.7116 20.224C67.416 19.7444 66.9837 19.3643 66.4702 19.1324C65.9568 18.9005 65.3859 18.8276 64.8306 18.9229C64.2754 19.0182 63.7613 19.2774 63.3546 19.6671C62.9479 20.0569 62.667 20.5595 62.5482 21.1102C62.4294 21.6609 62.478 22.2344 62.6877 22.7573C62.8976 23.2801 63.259 23.7282 63.7255 24.044C64.1921 24.3597 64.7425 24.5288 65.3057 24.5293C65.6734 24.5557 66.0425 24.5048 66.389 24.3798C66.7357 24.2548 67.0525 24.0584 67.3185 23.8034C67.5846 23.5484 67.7942 23.2404 67.9339 22.8994C68.0735 22.5583 68.1401 22.1917 68.1293 21.8234Z" fill="#E0E0E0"/>
<path d="M73.5175 22.0588C73.5175 20.8367 73.8801 19.6421 74.5593 18.6261C75.2384 17.6101 76.2037 16.8185 77.333 16.3514C78.4623 15.8842 79.7048 15.7626 80.9033 16.0019C82.1017 16.2412 83.2022 16.8306 84.0656 17.6955C84.9289 18.5606 85.5162 19.6622 85.7531 20.8611C85.9902 22.06 85.8662 23.3022 85.3969 24.4306C84.9276 25.5591 84.1341 26.5228 83.1169 27.2001C82.0996 27.8774 80.9043 28.2376 79.6822 28.2353C78.8695 28.2432 78.0633 28.0887 77.311 27.7809C76.5588 27.4732 75.8755 27.0183 75.3014 26.4431C74.7271 25.8678 74.2736 25.1836 73.9673 24.4308C73.661 23.678 73.5081 22.8715 73.5175 22.0588ZM82.3646 22.0588C82.3507 21.5311 82.1813 21.0191 81.8777 20.5871C81.5742 20.1552 81.1498 19.8223 80.658 19.6305C80.1661 19.4386 79.6286 19.3961 79.1127 19.5085C78.5968 19.6207 78.1255 19.8828 77.7579 20.2618C77.3902 20.6407 77.1426 21.1198 77.0461 21.6388C76.9495 22.1579 77.0082 22.6939 77.2149 23.1796C77.4216 23.6655 77.7671 24.0795 78.2082 24.3699C78.6491 24.6601 79.166 24.8139 79.694 24.8118C80.0531 24.8188 80.4099 24.7516 80.7419 24.6145C81.0739 24.4774 81.374 24.2733 81.6235 24.0149C81.873 23.7566 82.0666 23.4494 82.1921 23.1129C82.3176 22.7763 82.3723 22.4175 82.3528 22.0588H82.3646Z" fill="#E0E0E0"/>
<path d="M87.4824 13.1176C87.4824 12.7034 87.6052 12.2985 87.8354 11.9541C88.0655 11.6097 88.3925 11.3413 88.7751 11.1828C89.1578 11.0243 89.5789 10.9829 89.9851 11.0637C90.3912 11.1445 90.7644 11.3439 91.0574 11.6368C91.3502 11.9297 91.5496 12.3029 91.6304 12.709C91.7112 13.1152 91.6697 13.5363 91.5112 13.919C91.3528 14.3016 91.0843 14.6286 90.7399 14.8587C90.3956 15.0889 89.9908 15.2117 89.5765 15.2117C89.023 15.2056 88.494 14.983 88.1025 14.5916C87.7111 14.2001 87.4885 13.6711 87.4824 13.1176ZM87.8236 16.2352H91.353V27.8823H87.8236V16.2352Z" fill="#E0E0E0"/>
<path d="M106.459 22.0586C106.498 22.8332 106.384 23.608 106.123 24.3384C105.862 25.0688 105.459 25.7403 104.938 26.3143C104.416 26.8884 103.786 27.3536 103.084 27.6832C102.382 28.0129 101.622 28.2004 100.847 28.2351C100.189 28.2789 99.5304 28.1736 98.9194 27.9271C98.3082 27.6805 97.7607 27.2992 97.3175 26.8116V32.5645H93.7881V16.2351H97.3175V17.3292C97.7613 16.843 98.3093 16.4635 98.9204 16.219C99.5316 15.9744 100.19 15.8713 100.847 15.9175C101.619 15.9522 102.376 16.1386 103.076 16.466C103.775 16.7935 104.404 17.2556 104.925 17.8258C105.446 18.396 105.849 19.0633 106.113 19.7897C106.376 20.5159 106.493 21.2869 106.459 22.0586ZM102.929 22.0586C102.915 21.5122 102.74 20.982 102.427 20.5346C102.113 20.0872 101.674 19.7423 101.165 19.5433C100.655 19.3443 100.099 19.3 99.5648 19.4159C99.0307 19.5318 98.5427 19.8029 98.1618 20.195C97.781 20.5871 97.5244 21.0829 97.4243 21.6203C97.3241 22.1576 97.3847 22.7125 97.5986 23.2156C97.8124 23.7185 98.17 24.1472 98.6264 24.4479C99.0829 24.7486 99.618 24.9078 100.165 24.9057C100.539 24.9216 100.912 24.8582 101.261 24.7196C101.609 24.581 101.924 24.3704 102.185 24.1016C102.446 23.8328 102.647 23.5117 102.775 23.1597C102.904 22.8076 102.956 22.4324 102.929 22.0586Z" fill="#E0E0E0"/>
<path d="M117.2 24.3883C117.2 27.0707 114.847 28.2118 112.353 28.2118C111.336 28.3034 110.314 28.0877 109.421 27.5928C108.527 27.0978 107.803 26.3463 107.341 25.4354L110.376 23.7177C110.497 24.1375 110.757 24.5033 111.115 24.7538C111.473 25.0044 111.905 25.1245 112.341 25.0942C113.176 25.0942 113.6 24.8354 113.6 24.3648C113.6 23.0824 107.87 23.7648 107.87 19.7295C107.87 17.1883 110.012 15.9177 112.435 15.9177C113.356 15.8764 114.272 16.0855 115.084 16.5225C115.896 16.9596 116.574 17.6084 117.047 18.4001L114.012 20.0001C113.878 19.6965 113.658 19.4384 113.381 19.2568C113.103 19.0751 112.779 18.9778 112.447 18.9765C111.835 18.9765 111.47 19.2118 111.47 19.6236C111.47 20.9648 117.2 20.0824 117.2 24.3883Z" fill="#E0E0E0"/>
<path d="M129.988 16.2354V27.8824H126.459V26.7883C126.058 27.2726 125.548 27.6558 124.973 27.9072C124.396 28.1586 123.769 28.271 123.141 28.2354C120.788 28.2354 118.776 26.553 118.776 23.4118V16.2354H122.306V22.8824C122.278 23.1603 122.31 23.4409 122.402 23.7049C122.494 23.9688 122.641 24.2097 122.834 24.4111C123.028 24.6124 123.263 24.7694 123.523 24.8711C123.783 24.9728 124.062 25.0168 124.341 25.0001C125.612 25.0001 126.506 24.2471 126.506 22.6471V16.2354H129.988Z" fill="#E0E0E0"/>
<path d="M149.988 20.7295V27.8824H146.459V21.0354C146.459 19.8589 145.906 19.1295 144.788 19.1295C143.67 19.1295 142.965 19.9413 142.965 21.3177V27.8824H139.435V21.0354C139.435 19.8589 138.882 19.1295 137.765 19.1295C136.647 19.1295 135.941 19.9413 135.941 21.3177V27.8824H132.412V16.2354H135.941V17.306C136.307 16.833 136.783 16.4584 137.33 16.2161C137.876 15.9737 138.475 15.8711 139.07 15.9177C139.667 15.8866 140.262 16.0113 140.796 16.2794C141.33 16.5475 141.786 16.95 142.118 17.4471C142.506 16.9276 143.019 16.5149 143.609 16.2475C144.199 15.98 144.848 15.8666 145.494 15.9177C148.247 15.9177 149.988 17.8236 149.988 20.7295Z" fill="#E0E0E0"/>
<path d="M152.953 16.1648C154.382 16.1648 155.541 15.0059 155.541 13.5765C155.541 12.1471 154.382 10.9883 152.953 10.9883C151.524 10.9883 150.365 12.1471 150.365 13.5765C150.365 15.0059 151.524 16.1648 152.953 16.1648Z" fill="#E0E0E0"/>
</svg>
