<svg width="109" height="20" viewBox="0 0 109 20" fill="none" xmlns="http://www.w3.org/2000/svg">
<path d="M19.0209 7.60938C18.9427 7.36327 18.7919 7.14654 18.5884 6.98761C18.3848 6.82868 18.138 6.73496 17.8803 6.71875L13.2397 6.39844L11.5209 2.0625C11.4271 1.82375 11.2637 1.61867 11.052 1.47382C10.8403 1.32896 10.5899 1.25099 10.3334 1.25C10.0769 1.25099 9.82655 1.32896 9.61483 1.47382C9.40311 1.61867 9.23975 1.82375 9.1459 2.0625L7.3959 6.42188L2.78653 6.71875C2.52911 6.73601 2.28279 6.83012 2.07944 6.9889C1.87609 7.14768 1.72507 7.36383 1.6459 7.60938C1.56461 7.85869 1.55986 8.12664 1.63226 8.37868C1.70467 8.63072 1.85092 8.85529 2.05215 9.02344L5.59903 12.0234L4.54434 16.1719C4.47137 16.4525 4.4845 16.7486 4.58203 17.0217C4.67956 17.2948 4.85697 17.5322 5.09121 17.7031C5.31858 17.8663 5.58947 17.9579 5.86922 17.9663C6.14896 17.9746 6.42483 17.8993 6.66153 17.75L10.3256 15.4297H10.3412L14.2865 17.9219C14.4889 18.0534 14.7249 18.1239 14.9662 18.125C15.1633 18.1235 15.3574 18.0767 15.5336 17.9884C15.7098 17.9002 15.8634 17.7727 15.9826 17.6157C16.1018 17.4588 16.1834 17.2766 16.2212 17.0832C16.259 16.8898 16.252 16.6903 16.2006 16.5L15.0834 11.9609L18.6147 9.02344C18.8159 8.85529 18.9621 8.63072 19.0345 8.37868C19.107 8.12664 19.1022 7.85869 19.0209 7.60938Z" fill="#FFC761"/>
<path d="M41.0209 7.60938C40.9427 7.36327 40.7919 7.14654 40.5884 6.98761C40.3848 6.82868 40.138 6.73496 39.8803 6.71875L35.2397 6.39844L33.5209 2.0625C33.4271 1.82375 33.2637 1.61867 33.052 1.47382C32.8403 1.32896 32.5899 1.25099 32.3334 1.25C32.0769 1.25099 31.8265 1.32896 31.6148 1.47382C31.4031 1.61867 31.2398 1.82375 31.1459 2.0625L29.3959 6.42188L24.7865 6.71875C24.5291 6.73601 24.2828 6.83012 24.0794 6.9889C23.8761 7.14768 23.7251 7.36383 23.6459 7.60938C23.5646 7.85869 23.5599 8.12664 23.6323 8.37868C23.7047 8.63072 23.8509 8.85529 24.0522 9.02344L27.599 12.0234L26.5443 16.1719C26.4714 16.4525 26.4845 16.7486 26.582 17.0217C26.6796 17.2948 26.857 17.5322 27.0912 17.7031C27.3186 17.8663 27.5895 17.9579 27.8692 17.9663C28.149 17.9746 28.4248 17.8993 28.6615 17.75L32.3256 15.4297H32.3412L36.2865 17.9219C36.4889 18.0534 36.7249 18.1239 36.9662 18.125C37.1633 18.1235 37.3574 18.0767 37.5336 17.9884C37.7098 17.9002 37.8634 17.7727 37.9826 17.6157C38.1018 17.4588 38.1834 17.2766 38.2212 17.0832C38.259 16.8898 38.252 16.6903 38.2006 16.5L37.0834 11.9609L40.6147 9.02344C40.8159 8.85529 40.9621 8.63072 41.0345 8.37868C41.107 8.12664 41.1022 7.85869 41.0209 7.60938Z" fill="#FFC761"/>
<path d="M63.0209 7.60938C62.9427 7.36327 62.7919 7.14654 62.5884 6.98761C62.3848 6.82868 62.138 6.73496 61.8803 6.71875L57.2397 6.39844L55.5209 2.0625C55.4271 1.82375 55.2637 1.61867 55.052 1.47382C54.8403 1.32896 54.5899 1.25099 54.3334 1.25C54.0769 1.25099 53.8265 1.32896 53.6148 1.47382C53.4031 1.61867 53.2398 1.82375 53.1459 2.0625L51.3959 6.42188L46.7865 6.71875C46.5291 6.73601 46.2828 6.83012 46.0794 6.9889C45.8761 7.14768 45.7251 7.36383 45.6459 7.60938C45.5646 7.85869 45.5599 8.12664 45.6323 8.37868C45.7047 8.63072 45.8509 8.85529 46.0522 9.02344L49.599 12.0234L48.5443 16.1719C48.4714 16.4525 48.4845 16.7486 48.582 17.0217C48.6796 17.2948 48.857 17.5322 49.0912 17.7031C49.3186 17.8663 49.5895 17.9579 49.8692 17.9663C50.149 17.9746 50.4248 17.8993 50.6615 17.75L54.3256 15.4297H54.3412L58.2865 17.9219C58.4889 18.0534 58.7249 18.1239 58.9662 18.125C59.1633 18.1235 59.3574 18.0767 59.5336 17.9884C59.7098 17.9002 59.8634 17.7727 59.9826 17.6157C60.1018 17.4588 60.1834 17.2766 60.2212 17.0832C60.259 16.8898 60.252 16.6903 60.2006 16.5L59.0834 11.9609L62.6147 9.02344C62.8159 8.85529 62.9621 8.63072 63.0345 8.37868C63.107 8.12664 63.1022 7.85869 63.0209 7.60938Z" fill="#FFC761"/>
<path d="M85.0209 7.60938C84.9427 7.36327 84.7919 7.14654 84.5884 6.98761C84.3848 6.82868 84.138 6.73496 83.8803 6.71875L79.2397 6.39844L77.5209 2.0625C77.4271 1.82375 77.2637 1.61867 77.052 1.47382C76.8403 1.32896 76.5899 1.25099 76.3334 1.25C76.0769 1.25099 75.8265 1.32896 75.6148 1.47382C75.4031 1.61867 75.2398 1.82375 75.1459 2.0625L73.3959 6.42188L68.7865 6.71875C68.5291 6.73601 68.2828 6.83012 68.0794 6.9889C67.8761 7.14768 67.7251 7.36383 67.6459 7.60938C67.5646 7.85869 67.5599 8.12664 67.6323 8.37868C67.7047 8.63072 67.8509 8.85529 68.0522 9.02344L71.599 12.0234L70.5443 16.1719C70.4714 16.4525 70.4845 16.7486 70.582 17.0217C70.6796 17.2948 70.857 17.5322 71.0912 17.7031C71.3186 17.8663 71.5895 17.9579 71.8692 17.9663C72.149 17.9746 72.4248 17.8993 72.6615 17.75L76.3256 15.4297H76.3412L80.2865 17.9219C80.4889 18.0534 80.7249 18.1239 80.9662 18.125C81.1633 18.1235 81.3574 18.0767 81.5336 17.9884C81.7098 17.9002 81.8634 17.7727 81.9826 17.6157C82.1018 17.4588 82.1834 17.2766 82.2212 17.0832C82.259 16.8898 82.252 16.6903 82.2006 16.5L81.0834 11.9609L84.6147 9.02344C84.8159 8.85529 84.9621 8.63072 85.0345 8.37868C85.107 8.12664 85.1022 7.85869 85.0209 7.60938Z" fill="#FFC761"/>
<path d="M107.021 7.60946C106.943 7.36335 106.792 7.14662 106.588 6.98769C106.385 6.82876 106.138 6.73505 105.88 6.71883L101.271 6.42196C101.264 6.42114 101.258 6.41854 101.252 6.41443C101.247 6.41031 101.242 6.40483 101.24 6.39852L99.5209 2.06258C99.4281 1.82302 99.2651 1.61712 99.0531 1.47192C98.8412 1.32672 98.5903 1.24902 98.3334 1.24902C98.0765 1.24902 97.8256 1.32672 97.6137 1.47192C97.4017 1.61712 97.2387 1.82302 97.1459 2.06258L95.4272 6.39852C95.4245 6.40483 95.4202 6.41031 95.4147 6.41443C95.4092 6.41854 95.4027 6.42114 95.3959 6.42196L90.7865 6.71883C90.5288 6.73505 90.282 6.82876 90.0784 6.98769C89.8749 7.14662 89.7241 7.36335 89.6459 7.60946C89.5646 7.85877 89.5599 8.12672 89.6323 8.37876C89.7047 8.6308 89.8509 8.85537 90.0522 9.02352L93.5834 11.961C93.5914 11.969 93.5971 11.9791 93.5999 11.9901C93.6026 12.0011 93.6023 12.0127 93.599 12.0235L92.5443 16.172C92.4725 16.4526 92.4861 16.7484 92.5836 17.0212C92.681 17.2941 92.8578 17.5316 93.0912 17.7032C93.3186 17.8664 93.5895 17.958 93.8692 17.9664C94.149 17.9747 94.4248 17.8994 94.6615 17.7501L98.3256 15.4298H98.3412L102.287 17.922C102.489 18.0535 102.725 18.124 102.966 18.1251C103.232 18.1215 103.491 18.037 103.708 17.8829C103.921 17.7291 104.081 17.5147 104.169 17.2678C104.257 17.021 104.268 16.7533 104.201 16.5001L103.068 12.0235C103.064 12.0127 103.064 12.0011 103.067 11.9901C103.07 11.9791 103.075 11.969 103.083 11.961L106.615 9.02352C106.816 8.85537 106.962 8.6308 107.035 8.37876C107.107 8.12672 107.102 7.85877 107.021 7.60946ZM105.818 8.06258L102.279 11.0001C102.091 11.1595 101.952 11.3687 101.877 11.6035C101.802 11.8384 101.795 12.0896 101.857 12.3282L102.99 16.8048C102.997 16.836 102.997 16.8438 102.99 16.8516C102.984 16.8617 102.976 16.8699 102.966 16.8751H102.951L99.0131 14.3751C98.8101 14.2459 98.574 14.1781 98.3334 14.1798V2.50008C98.3412 2.50008 98.349 2.50008 98.3568 2.52352L100.083 6.85946C100.171 7.08518 100.322 7.28133 100.517 7.42514C100.712 7.56895 100.943 7.65453 101.185 7.67196L105.802 7.96883C105.81 7.96883 105.818 7.96883 105.826 8.00008C105.833 8.03133 105.826 8.05477 105.818 8.06258Z" fill="#FFC761"/>
</svg>
